<svg width="322" height="200" viewBox="0 0 322 200" fill="none" xmlns="http://www.w3.org/2000/svg">
<g clip-path="url(#clip0_1762_87063)">
<path opacity="0.1" d="M323.423 128.334C323.428 133.747 322.773 139.141 321.473 144.396C321.035 146.165 320.527 147.899 319.947 149.598C319.238 151.692 318.417 153.747 317.487 155.754C317.018 156.767 316.523 157.762 316.001 158.738C316.009 164.289 314.866 169.782 312.644 174.869C308.626 183.996 301.463 191.376 292.461 195.665C286.825 198.353 280.665 199.766 274.421 199.802H60.2447C50.7148 199.823 41.3493 197.32 33.1003 192.548C31.8813 191.842 30.6935 191.09 29.537 190.292C27.0258 188.557 24.6666 186.613 22.4847 184.478C19.5309 181.589 16.9286 178.361 14.732 174.861C9.57113 166.667 6.83721 157.178 6.84679 147.493C1.62036 138.323 -1.42725 127.338 -1.42725 115.534C-1.42725 100.64 3.41582 87.0543 11.3727 76.7697C13.0315 74.621 14.8486 72.5993 16.8087 70.7214C18.7428 68.8631 20.8215 67.1616 23.0253 65.6329C24.7879 64.4075 26.6307 63.3018 28.5413 62.3233C29.3384 61.9151 30.1382 61.5345 30.9518 61.1787C31.6661 60.8615 32.3887 60.5664 33.1196 60.2878C33.9967 59.9532 34.8848 59.6471 35.7839 59.3694C36.683 59.0918 37.5701 58.8472 38.4453 58.6358C39.7324 58.3214 41.0416 58.0658 42.3728 57.8691C43.476 57.7063 44.5792 57.5933 45.6824 57.505C46.5594 57.4425 47.4438 57.4057 48.3356 57.3947H48.8182C49.8001 57.3947 50.7764 57.4333 51.7445 57.4995C51.8465 57.2954 51.9568 57.0886 52.0589 56.8845C52.445 56.1508 52.8449 55.4172 53.2476 54.6973V54.6781C53.3165 54.5539 53.3855 54.4298 53.4572 54.3085C53.7827 53.721 54.1219 53.1391 54.4694 52.5627C54.6294 52.2868 54.7866 52.0276 54.9493 51.7656C54.9851 51.7021 55.021 51.6415 55.0624 51.578C55.2279 51.3022 55.3961 51.0264 55.5671 50.7506C56.4184 49.3919 57.3037 48.0542 58.2231 46.7377C58.303 46.6247 58.3775 46.5143 58.4575 46.404C58.6009 46.1999 58.7333 45.9986 58.8932 45.7972C59.2739 45.2649 59.6655 44.7299 60.0599 44.2031C60.3357 43.8308 60.6115 43.4585 60.9094 43.0999C61.6264 42.1732 62.3628 41.252 63.1158 40.3419C63.8687 39.4318 64.663 38.5161 65.4656 37.6197C65.5759 37.4956 65.6862 37.3743 65.8021 37.2502L66.9797 35.9677C67.0377 35.907 67.0873 35.8519 67.1425 35.7967C67.2831 35.645 67.4183 35.4933 67.57 35.3444C68.2015 34.6769 68.8497 34.0178 69.5006 33.3669C72.8252 30.0634 76.3671 26.986 80.1024 24.1551C80.2485 24.0393 80.3975 23.929 80.5436 23.8186C81.2442 23.2891 81.9557 22.7678 82.6673 22.2549C86.5819 19.448 90.6731 16.8962 94.9157 14.6152C95.208 14.4497 95.5059 14.2925 95.8065 14.1353C99.6111 12.1239 103.523 10.323 107.525 8.7406C109.706 7.87826 111.925 7.07292 114.183 6.32458C115.678 5.83641 117.178 5.3703 118.698 4.94557C121.048 4.27078 123.427 3.66218 125.836 3.11977C132.932 1.52753 140.151 0.543941 147.414 0.179726C149.621 0.0638893 151.852 0.00597177 154.108 0.00597177C164.994 -0.00843993 175.837 1.36321 186.377 4.08783C186.486 4.25251 186.635 4.38676 186.81 4.47795C186.985 4.56914 187.181 4.61427 187.378 4.60909H188.305C188.707 4.71666 189.107 4.82973 189.51 4.94557C191.759 5.59462 193.975 6.30159 196.16 7.06648L196.711 7.26506C202.102 9.1821 207.348 11.4865 212.407 14.1601C216.967 16.5654 221.358 19.2782 225.549 22.2797C226.194 22.743 226.83 23.211 227.457 23.6835C228.219 23.1926 228.993 22.7246 229.78 22.2797C232.819 20.5497 236.047 19.1746 239.4 18.1813C246.41 16.1067 253.827 15.8166 260.978 17.3373C270.149 19.2817 278.45 24.1082 285.155 30.9729C287.886 33.7726 290.319 36.8487 292.414 40.1516C292.566 40.3888 292.718 40.6287 292.864 40.8714C294.661 43.8047 296.206 46.8854 297.481 50.0804C297.528 50.1963 297.574 50.3094 297.616 50.4252C298.793 53.4152 299.743 56.4899 300.457 59.6232C300.49 59.7804 300.528 59.9403 300.561 60.1003C301.229 63.1325 301.682 66.2079 301.918 69.3038C301.918 69.4141 301.918 69.5272 301.94 69.6403C302.056 71.2418 302.115 72.8607 302.117 74.4971C302.117 75.9589 302.067 77.4096 301.976 78.8465C301.976 79.0037 301.954 79.1692 301.94 79.3292C301.916 79.7484 301.88 80.1566 301.844 80.5785C303.95 82.2767 305.922 84.1356 307.74 86.1387C308.544 87.0157 309.322 87.9268 310.074 88.8719C312.365 91.7423 314.378 94.824 316.086 98.0754C320.742 106.895 323.423 117.249 323.423 128.334Z" fill="#1890FF"/>
<path opacity="0.1" d="M292.257 182.619C292.257 188.888 285.759 194.754 274.42 199.807H60.2443C50.3348 199.807 41.0541 196.222 33.1 189.969C31.1004 187.597 30.0469 185.14 30.0469 182.616C30.0469 175.953 37.3942 169.734 50.0976 164.477L50.4562 164.333C54.0416 162.863 58.049 161.476 62.4287 160.172C62.539 160.139 62.6521 160.108 62.7624 160.07C66.2375 159.049 69.9342 158.082 73.8524 157.168C73.9765 157.141 74.0978 157.11 74.2219 157.088C75.7333 156.73 77.2751 156.396 78.8499 156.062L79.4566 155.935C90.9162 153.558 103.942 151.671 118.069 150.392H118.085C120.064 150.208 122.063 150.043 124.084 149.898C126.332 149.719 128.607 149.567 130.907 149.426C132.664 149.313 134.443 149.217 136.228 149.129C136.234 149.126 136.241 149.124 136.248 149.124C136.255 149.124 136.262 149.126 136.269 149.129C144.32 148.723 152.638 148.511 161.143 148.511C182.176 148.511 202.056 149.801 219.671 152.096C219.688 152.093 219.704 152.093 219.721 152.096C222.429 152.449 225.088 152.822 227.68 153.219C228.422 153.335 229.162 153.45 229.887 153.569C232.812 154.041 235.662 154.541 238.437 155.067C271.064 161.269 292.257 171.306 292.257 182.619Z" fill="#1890FF"/>
<path d="M238.939 67.0966C238.939 67.0966 236.021 65.9134 226.738 70.169C217.454 74.4246 216.296 73.8868 213.893 73.247C211.491 72.6071 210.151 72.4416 207.575 68.8865C207.575 68.8865 205.757 59.0377 203.989 57.5097C202.222 55.9818 194.758 58.3813 194.758 58.3813C194.758 58.3813 185.798 60.436 184.09 48.4524C184.09 48.4524 185.301 39.4282 183.652 36.6592C183.652 36.6592 186.984 38.0933 192.477 35.7766C197.971 33.4599 202.37 38.2726 202.37 38.2726C202.37 38.2726 203.749 41.858 203.612 43.9982C203.474 46.1385 204.345 46.941 206.965 45.9068C206.965 45.9068 208.253 44.0755 206.43 41.0472C204.607 38.0189 203.305 35.7656 203.813 33.4157C204.32 31.0659 205.785 27.8032 210.487 26.1732C215.19 24.5432 221.575 24.2426 224.639 22.9546C227.703 21.6666 228.459 20.8447 228.459 20.8447C228.459 20.8447 226.572 22.734 231.015 30.746C235.458 38.758 232.626 42.2331 232.626 42.2331C232.626 42.2331 230.262 47.8677 219.826 47.4099C219.826 47.4099 209.77 47.7767 215.253 52.0406C215.253 52.0406 218.764 51.3263 224.013 49.6577C229.261 47.9891 233.051 54.8758 233.991 59.6665C234.932 64.4572 238.939 67.0966 238.939 67.0966Z" fill="#1890FF"/>
<path d="M225.422 26.913L225.477 26.8965C225.88 28.4244 221.387 34.5693 217.545 39.4537L217.501 39.4178C222.917 32.5394 225.733 28.0962 225.422 26.913Z" fill="#444053"/>
<path d="M217.578 39.3242L217.603 39.3849C214.533 43.2847 210.675 47.9347 207.586 51.3905C207.291 51.7187 206.998 52.0635 206.717 52.4165L206.629 52.3448C206.905 51.9918 207.205 51.6443 207.5 51.3161C210.587 47.8741 214.506 43.2268 217.578 39.3242Z" fill="#444053"/>
<path d="M206.703 52.2559L206.764 52.3607C201.143 59.3798 200.771 70.2877 200.757 70.3732L199.571 68.9942C199.585 68.906 201.044 59.3246 206.703 52.2559Z" fill="#444053"/>
<path d="M232.433 63.2912C232.433 63.2912 225.813 59.8437 220.639 61.0848C215.465 62.3259 203.829 56.6995 203.829 56.6995C203.829 56.6995 198.893 54.6945 197.9 52.4081C197.9 52.4081 194.51 48.8226 194.314 46.972C194.118 45.1214 190.823 40.4576 188.671 40.2783" stroke="#444053" stroke-miterlimit="10"/>
<path d="M231.459 66.6089C231.459 66.6089 228.122 64.3584 228.511 61.7383" stroke="#444053" stroke-miterlimit="10"/>
<path d="M226.34 69.5131C226.34 69.5131 221.566 67.7811 221.1 60.9854" stroke="#444053" stroke-miterlimit="10"/>
<path d="M218.643 71.2727C218.643 71.2727 214.081 67.4887 215.595 60.875" stroke="#444053" stroke-miterlimit="10"/>
<path d="M209.379 69.4245C209.379 69.4245 206.345 63.0535 209.045 58.9082" stroke="#444053" stroke-miterlimit="10"/>
<path d="M232.496 59.0908C232.496 59.0908 229.046 60.194 229.785 62.0033" stroke="#444053" stroke-miterlimit="10"/>
<path d="M228.331 52.8379C228.331 52.8379 223.712 54.3024 223.604 60.8361" stroke="#444053" stroke-miterlimit="10"/>
<path d="M221.889 51.3154C221.889 51.3154 217.683 56.506 217.992 61.2222" stroke="#444053" stroke-miterlimit="10"/>
<path d="M214.525 53.3506C214.525 53.3506 210.349 57.3442 210.882 59.5644" stroke="#444053" stroke-miterlimit="10"/>
<path d="M212.007 51.9421C212.007 51.9421 208.09 52.6426 207.542 51.3574" stroke="#444053" stroke-miterlimit="10"/>
<path d="M206.918 47.2148C206.918 47.2148 208.896 49.835 209.401 49.2475" stroke="#444053" stroke-miterlimit="10"/>
<path d="M226.533 45.5565C226.533 45.5565 216.66 46.2736 214.426 43.2949" stroke="#444053" stroke-miterlimit="10"/>
<path d="M204.853 34.0088C204.853 34.0088 209.483 43.9514 212.851 45.2174" stroke="#444053" stroke-miterlimit="10"/>
<path d="M209.701 29.2734C209.701 29.2734 212.545 38.419 216.069 41.2736" stroke="#444053" stroke-miterlimit="10"/>
<path d="M230.687 38.0083C230.687 38.0083 223.179 41.2297 218.673 37.9697" stroke="#444053" stroke-width="0.75" stroke-miterlimit="10"/>
<path d="M216.387 27.3232C216.387 27.3232 218.102 34.0445 220.413 35.669" stroke="#444053" stroke-width="0.75" stroke-miterlimit="10"/>
<path d="M229.553 30.4756C229.553 30.4756 225.334 32.0752 223.761 30.8507" stroke="#444053" stroke-width="0.75" stroke-miterlimit="10"/>
<path d="M203.303 49.4102C203.303 49.4102 203.303 55.2709 201.708 55.6874" stroke="#444053" stroke-miterlimit="10"/>
<path d="M190.26 57.003C190.26 57.003 196.603 57.5546 199.518 54.2754" stroke="#444053" stroke-miterlimit="10"/>
<path d="M201.67 42.4873C201.67 42.4873 200.137 48.4308 195.906 50.0332" stroke="#444053" stroke-miterlimit="10"/>
<path d="M186.459 50.7416C186.459 50.7416 190.944 52.2998 194.802 48.3311" stroke="#444053" stroke-miterlimit="10"/>
<path d="M196.681 37.377C196.681 37.377 196.259 42.4241 193.515 44.7877" stroke="#444053" stroke-miterlimit="10"/>
<path d="M186.63 43.05C186.63 43.05 190.351 43.0749 191.222 41.8613" stroke="#444053" stroke-miterlimit="10"/>
<path d="M213.54 62.2148H107.578V115.704H213.54V62.2148Z" fill="#33323D"/>
<path d="M246.885 131.954H74.5698V167.163H246.885V131.954Z" fill="#33323D"/>
<path d="M115.703 140.755H204.061L221.666 200H97.0835L115.703 140.755Z" fill="white"/>
<path d="M69.6602 110.963V129.246V133.096V167.16H102.668V134.662H218.786V167.16H251.794V133.096V129.246V110.963H69.6602Z" fill="#504F60"/>
<path opacity="0.1" d="M251.794 110.963H69.6602V129.243H251.794V110.963Z" fill="#33323D"/>
<path opacity="0.8" d="M241.978 122.814C243.474 122.814 244.686 121.602 244.686 120.106C244.686 118.61 243.474 117.397 241.978 117.397C240.482 117.397 239.27 118.61 239.27 120.106C239.27 121.602 240.482 122.814 241.978 122.814Z" fill="#8CCF4D"/>
<path opacity="0.8" d="M229.791 122.814C231.286 122.814 232.499 121.602 232.499 120.106C232.499 118.61 231.286 117.397 229.791 117.397C228.295 117.397 227.082 118.61 227.082 120.106C227.082 121.602 228.295 122.814 229.791 122.814Z" fill="#FA5959"/>
<path d="M209.649 49.3496H111.472V107.577H209.649V49.3496Z" fill="white"/>
<path d="M224.583 134.335C224.79 136.588 223.088 138.775 223.585 140.982C223.69 141.453 223.894 141.9 223.968 142.361C224.172 143.671 223.392 144.912 222.644 146.009L216.237 155.436C215.98 155.85 215.673 156.23 215.322 156.567C214.094 157.67 212.258 157.543 210.65 157.869C209.519 158.098 208.451 158.568 207.519 159.248C207.479 159.28 207.452 159.326 207.444 159.378C207.436 159.429 207.449 159.481 207.478 159.524C207.743 159.887 208.095 160.179 208.501 160.371C208.908 160.564 209.356 160.652 209.806 160.627C209.974 160.848 209.806 161.179 209.574 161.333C209.229 161.57 208.747 161.634 208.689 162.218C208.664 162.421 208.705 162.627 208.805 162.806C209.064 163.201 209.466 163.479 209.927 163.583C212.133 164.262 214.541 163.071 216.202 161.449C217.862 159.827 219.053 157.781 220.683 156.129C221.585 155.216 222.614 154.432 223.541 153.547C225.394 151.782 226.85 149.634 228.229 147.479C228.685 146.855 229.028 146.156 229.244 145.414C229.415 144.68 229.338 143.905 229.537 143.177C229.796 142.225 230.494 141.467 231.073 140.667C232.212 139.101 232.97 137.187 232.819 135.256C232.667 133.325 231.475 131.425 229.655 130.769C229.091 130.544 228.469 130.506 227.882 130.661C227.134 130.89 226.585 131.508 226.075 132.098L224.859 133.502C224.556 133.813 224.315 134.179 224.15 134.58C224.072 134.783 224.054 135.004 224.098 135.216C224.143 135.428 224.248 135.623 224.401 135.777" fill="#FBBEBE"/>
<path opacity="0.05" d="M224.583 134.335C224.79 136.588 223.088 138.775 223.585 140.982C223.69 141.453 223.894 141.9 223.968 142.361C224.172 143.671 223.392 144.912 222.644 146.009L216.237 155.436C215.98 155.85 215.673 156.23 215.322 156.567C214.094 157.67 212.258 157.543 210.65 157.869C209.519 158.098 208.451 158.568 207.519 159.248C207.479 159.28 207.452 159.326 207.444 159.378C207.436 159.429 207.449 159.481 207.478 159.524C207.743 159.887 208.095 160.179 208.501 160.371C208.908 160.564 209.356 160.652 209.806 160.627C209.974 160.848 209.806 161.179 209.574 161.333C209.229 161.57 208.747 161.634 208.689 162.218C208.664 162.421 208.705 162.627 208.805 162.806C209.064 163.201 209.466 163.479 209.927 163.583C212.133 164.262 214.541 163.071 216.202 161.449C217.862 159.827 219.053 157.781 220.683 156.129C221.585 155.216 222.614 154.432 223.541 153.547C225.394 151.782 226.85 149.634 228.229 147.479C228.685 146.855 229.028 146.156 229.244 145.414C229.415 144.68 229.338 143.905 229.537 143.177C229.796 142.225 230.494 141.467 231.073 140.667C232.212 139.101 232.97 137.187 232.819 135.256C232.667 133.325 231.475 131.425 229.655 130.769C229.091 130.544 228.469 130.506 227.882 130.661C227.134 130.89 226.585 131.508 226.075 132.098L224.859 133.502C224.556 133.813 224.315 134.179 224.15 134.58C224.072 134.783 224.054 135.004 224.098 135.216C224.143 135.428 224.248 135.623 224.401 135.777" fill="black"/>
<path d="M229.435 192.333C228.034 193.185 226.291 193.241 224.663 193.039C224.388 193.009 224.093 192.99 223.924 193.191C223.682 193.486 223.968 193.916 224.264 194.153C225.225 194.873 226.353 195.337 227.543 195.502C228.605 195.65 229.676 195.721 230.748 195.714C233.671 195.764 236.611 195.814 239.507 195.392C239.674 195.379 239.837 195.331 239.984 195.251C240.171 195.121 240.301 194.923 240.346 194.699C240.547 193.949 240.163 193.138 239.587 192.617C239.011 192.096 238.269 191.804 237.543 191.514L235 190.524C234.402 190.289 233.445 189.674 232.794 189.721C231.605 189.818 230.444 191.743 229.435 192.333Z" fill="#3F3D56"/>
<path opacity="0.05" d="M229.435 192.333C228.034 193.185 226.291 193.241 224.663 193.039C224.388 193.009 224.093 192.99 223.924 193.191C223.682 193.486 223.968 193.916 224.264 194.153C225.225 194.873 226.353 195.337 227.543 195.502C228.605 195.65 229.676 195.721 230.748 195.714C233.671 195.764 236.611 195.814 239.507 195.392C239.674 195.379 239.837 195.331 239.984 195.251C240.171 195.121 240.301 194.923 240.346 194.699C240.547 193.949 240.163 193.138 239.587 192.617C239.011 192.096 238.269 191.804 237.543 191.514L235 190.524C234.402 190.289 233.445 189.674 232.794 189.721C231.605 189.818 230.444 191.743 229.435 192.333Z" fill="black"/>
<path d="M231.208 158.561C230.152 159.97 229.054 161.595 229.316 163.341C229.457 164.281 229.984 165.111 230.37 165.98C230.853 167.175 231.211 168.418 231.437 169.687C231.834 171.532 232.231 173.383 232.474 175.255C232.75 177.371 231.454 183.491 231.332 185.623C231.302 186.136 231.244 186.693 230.885 187.062C230.745 187.208 230.557 187.338 230.496 187.517C230.458 187.7 230.487 187.89 230.579 188.052C231.178 189.401 232.4 190.402 233.756 190.976C235.113 191.55 238.415 192.534 239.888 192.587C240.083 192.61 240.281 192.584 240.464 192.509C240.663 192.39 240.819 192.212 240.911 191.999C241.975 189.966 240.952 182.729 240.969 180.432C240.969 178.501 241.435 176.615 241.352 174.701C241.283 173.165 240.872 171.667 240.723 170.134C240.478 167.621 240.938 165.1 241.402 162.618C241.755 160.718 242.108 158.815 242.56 156.934C242.836 155.789 243.156 154.631 243.787 153.624C244.287 152.833 244.965 152.173 245.536 151.418C247.118 149.344 247.821 146.73 247.491 144.142C247.458 143.888 243.818 145.066 243.501 145.204C242.194 145.76 240.992 146.534 239.945 147.493C239.118 148.293 238.442 149.366 237.703 150.265C236.661 151.534 235.632 152.812 234.617 154.101C233.464 155.581 232.328 157.068 231.208 158.561Z" fill="#464353"/>
<path opacity="0.05" d="M231.208 158.47C230.152 159.879 229.054 161.504 229.316 163.252C229.457 164.19 229.984 165.02 230.37 165.889C230.853 167.084 231.21 168.327 231.437 169.596C231.834 171.441 232.231 173.291 232.474 175.164C232.75 177.28 231.454 183.402 231.332 185.534C231.302 186.044 231.244 186.604 230.885 186.971C230.745 187.117 230.557 187.247 230.496 187.426C230.455 187.614 230.484 187.811 230.579 187.978C231.178 189.324 232.4 190.328 233.756 190.899C235.113 191.469 238.415 192.002 239.888 192.049C240.083 192.072 240.281 192.046 240.464 191.971C240.663 191.852 240.819 191.674 240.911 191.461C241.975 189.429 240.952 182.652 240.969 180.357C240.969 178.427 241.435 176.538 241.352 174.624C241.283 173.087 240.872 171.59 240.723 170.056C240.478 167.544 240.938 165.023 241.402 162.543C241.755 160.64 242.108 158.737 242.56 156.856C242.836 155.712 243.156 154.554 243.787 153.547C244.287 152.758 244.965 152.096 245.536 151.357C247.116 149.282 247.819 146.669 247.491 144.081C247.458 143.825 243.818 145.003 243.501 145.143C242.193 145.699 240.991 146.475 239.945 147.438C239.118 148.24 238.442 149.311 237.703 150.196C236.661 151.465 235.632 152.744 234.617 154.035C233.464 155.506 232.328 156.984 231.208 158.47Z" fill="black"/>
<path d="M219.434 127.53C222.714 127.53 225.372 124.872 225.372 121.592C225.372 118.313 222.714 115.654 219.434 115.654C216.155 115.654 213.496 118.313 213.496 121.592C213.496 124.872 216.155 127.53 219.434 127.53Z" fill="#FBBEBE"/>
<path d="M224.779 121.344C225.328 122.22 226.047 122.976 226.893 123.569C227.74 124.161 228.697 124.577 229.708 124.792L229.261 126.411C228.489 129.204 227.606 132.158 225.463 134.094C225.698 133.148 225.394 132.131 224.859 131.317C224.287 130.526 223.609 129.817 222.843 129.21L219.426 126.237C219.324 126.162 219.237 126.068 219.169 125.961C219.087 125.752 219.087 125.519 219.169 125.31C219.605 123.956 220.849 123.104 221.856 122.194C222.362 121.719 222.815 121.191 223.207 120.619C223.908 119.645 224.33 120.619 224.779 121.344Z" fill="#FBBEBE"/>
<path d="M211.61 115.624L211.477 114.521C212.415 114.763 213.303 113.969 213.902 113.142C214.5 112.314 215.057 111.343 215.97 111.001C217.073 110.582 218.254 111.252 219.313 111.804C220.5 112.465 221.804 112.891 223.152 113.059C223.367 113.066 223.58 113.101 223.786 113.164C224.476 113.409 224.804 114.267 224.903 115.059C225.003 115.85 224.975 116.677 225.317 117.378C225.573 117.908 226.018 118.302 226.288 118.823C227.013 120.23 226.313 122.149 227.079 123.528L225.176 121.783C225 121.623 224.754 121.457 224.564 121.592C224.374 121.727 224.401 121.931 224.338 122.116C224.153 122.668 223.477 122.822 222.984 122.61C222.49 122.398 222.134 121.929 221.773 121.507C220.932 120.514 219.931 119.642 218.739 119.218C218.223 119.02 217.672 118.935 217.12 118.967C216.569 119 216.031 119.15 215.543 119.408C214.655 119.91 214.004 121.079 212.917 121.121C211.425 121.176 210.804 118.398 210.112 117.301C210.364 117.11 210.541 116.837 210.613 116.529C210.684 116.221 210.646 115.898 210.504 115.616C210.625 115.569 211.59 115.445 211.61 115.624Z" fill="#464353"/>
<path d="M236.36 192.285C235.187 193.332 233.663 193.9 232.091 193.877C231.691 193.877 231.137 193.954 231.134 194.354C231.141 194.473 231.181 194.588 231.25 194.685C231.748 195.512 232.533 196.127 233.456 196.411C234.311 196.671 235.227 196.627 236.12 196.582L238.727 196.447C239.218 196.42 239.711 196.395 240.202 196.334C240.693 196.274 241.223 196.172 241.736 196.097C242.992 195.917 244.263 195.857 245.531 195.918C245.867 195.932 246.256 195.918 246.466 195.664C246.675 195.41 246.562 194.953 246.485 194.586C246.33 193.83 246.485 193.038 246.341 192.28C246.09 190.948 244.946 189.93 243.683 189.447C242.511 189.001 240.431 188.49 239.32 189.232C238.128 190.032 237.411 191.334 236.36 192.285Z" fill="#3F3D56"/>
<path d="M238.942 147.714C239.173 148.817 240.23 149.644 240.263 150.747C240.288 151.641 239.648 152.402 239.19 153.161C238.752 153.955 238.383 154.786 238.087 155.643C237.216 157.868 236.138 160.005 234.865 162.028C234.253 162.996 233.569 164.049 233.71 165.188C233.806 165.72 233.993 166.231 234.261 166.7L236.095 170.343C236.498 171.071 236.813 171.844 237.033 172.646C237.19 173.338 237.207 174.055 237.309 174.761C237.599 176.995 238.647 179.246 238.029 181.411C237.974 181.598 237.781 181.825 237.634 181.687C238.238 182.817 238.738 183.959 238.68 185.242C238.655 185.915 238.448 186.621 238.699 187.244C238.841 187.487 238.935 187.755 238.975 188.033C238.975 188.215 238.889 188.389 238.87 188.584C238.82 189.1 239.292 189.53 239.786 189.688C240.279 189.845 240.812 189.839 241.308 189.988C242.265 190.264 242.944 191.091 243.763 191.665C244.592 192.24 245.572 192.56 246.581 192.584C246.725 192.599 246.869 192.57 246.995 192.501C247.067 192.438 247.126 192.361 247.165 192.273C247.205 192.186 247.226 192.092 247.227 191.996C247.271 191.539 247.202 191.079 247.026 190.655C246.85 190.231 246.572 189.857 246.217 189.566C246.063 189.468 245.935 189.334 245.845 189.175C245.798 189.033 245.786 188.883 245.809 188.736C245.958 186.731 245.922 184.717 245.702 182.718C245.602 182.085 245.57 181.444 245.605 180.804C245.66 180.272 245.82 179.742 245.76 179.21C245.699 178.678 245.431 178.198 245.271 177.685C244.996 176.775 245.067 175.798 245.037 174.844C244.987 173.189 244.609 171.568 244.232 169.957C244.085 169.325 243.92 168.661 243.47 168.192C243.09 167.795 242.475 167.411 242.618 166.882C242.696 166.686 242.815 166.508 242.966 166.36C243.144 166.138 243.274 165.882 243.35 165.607C243.425 165.333 243.444 165.046 243.404 164.764C243.566 164.806 243.737 164.791 243.888 164.721C244.039 164.65 244.161 164.529 244.232 164.377C247.213 162.974 249.624 160.16 250.685 157.038C250.745 156.808 250.838 156.588 250.961 156.385C251.237 155.999 251.717 155.833 252.142 155.618C253.476 154.948 254.4 153.687 255.247 152.455C255.741 151.737 256.232 150.998 256.444 150.157C256.56 149.613 256.616 149.058 256.61 148.502L256.684 145.628C256.699 145.443 256.68 145.256 256.629 145.077C256.559 144.905 256.453 144.75 256.32 144.622C255.511 143.761 254.448 143.181 253.286 142.967C252.503 142.826 251.703 142.854 250.912 142.788C249.375 142.661 247.858 142.186 246.322 142.297C243.906 142.473 241.758 144.147 240.619 146.285C240.219 147.049 239.799 147.714 238.942 147.714Z" fill="#464353"/>
<path d="M225.538 129.025C225.572 129.468 225.513 129.914 225.364 130.333C225.176 130.735 224.702 131.047 224.291 130.884C224.415 130.608 224.084 130.28 223.778 130.316C223.627 130.35 223.486 130.42 223.367 130.52C223.249 130.621 223.157 130.749 223.099 130.893C222.894 131.302 222.825 131.767 222.904 132.219C223 132.771 223.326 133.322 223.24 133.874C223.171 134.343 222.826 134.812 223.011 135.253C223.13 135.451 223.279 135.63 223.453 135.782C223.695 136.08 223.814 136.459 223.785 136.841C223.755 137.224 223.58 137.58 223.295 137.837L227.923 137.928C227.755 138.703 228.1 139.495 228.497 140.182C229.608 142.069 231.142 143.674 232.976 144.87C234.811 146.066 236.898 146.821 239.074 147.077C238.957 147.146 238.856 147.24 238.779 147.353C238.703 147.466 238.652 147.594 238.631 147.729C238.61 147.864 238.619 148.002 238.657 148.132C238.696 148.263 238.763 148.384 238.853 148.486C239.228 148.858 239.865 148.811 240.337 148.569C240.809 148.326 241.181 147.926 241.611 147.617C242.37 147.076 243.298 146.826 244.226 146.911C244.805 146.966 245.368 147.154 245.95 147.187C247.665 147.278 249.138 146.045 250.779 145.532C251.981 145.163 253.341 145.163 254.364 144.412C254.8 144.09 255.156 143.56 255.029 143.033C254.921 142.731 254.751 142.455 254.53 142.222C253.948 141.472 253.606 140.568 253.192 139.715C252.367 138.026 251.232 136.507 249.847 135.236C248.803 134.322 247.697 133.48 246.537 132.718C246.255 132.508 245.954 132.323 245.638 132.167C245.217 132.03 244.806 131.863 244.408 131.668C243.856 131.326 243.55 130.722 243.134 130.233C242.215 129.163 240.806 128.67 239.675 127.828C238.917 127.277 238.249 126.521 237.342 126.248C236.903 126.116 236.435 126.105 235.993 125.972C234.995 125.669 234.267 124.781 233.285 124.422C232.507 124.146 231.652 124.213 230.83 124.111C229.926 123.998 229.062 123.67 228.312 123.154C228.063 122.953 227.784 122.793 227.485 122.679C226.246 122.301 226.144 124.61 226.029 125.412C225.844 126.64 225.538 127.82 225.538 129.025Z" fill="#1890FF"/>
<path d="M226.746 136.775C226.953 139.028 225.251 141.213 225.747 143.422C225.852 143.893 226.056 144.34 226.131 144.801C226.338 146.111 225.554 147.352 224.807 148.447L218.4 157.852C218.143 158.265 217.835 158.645 217.484 158.982C216.257 160.086 214.42 159.959 212.812 160.284C211.682 160.514 210.614 160.984 209.682 161.663C209.641 161.695 209.614 161.742 209.607 161.793C209.599 161.844 209.611 161.896 209.641 161.939C209.905 162.303 210.257 162.595 210.664 162.788C211.07 162.981 211.519 163.068 211.968 163.042C212.137 163.266 211.968 163.594 211.737 163.748C211.392 163.988 210.909 164.052 210.851 164.636C210.827 164.839 210.868 165.045 210.967 165.224C211.227 165.618 211.629 165.896 212.09 166.002C214.296 166.68 216.704 165.489 218.364 163.867C220.024 162.245 221.216 160.199 222.849 158.547C223.751 157.634 224.779 156.85 225.703 155.965C227.559 154.2 228.999 152.052 230.392 149.897C230.847 149.273 231.19 148.574 231.407 147.832C231.578 147.098 231.501 146.323 231.699 145.595C231.958 144.643 232.656 143.882 233.235 143.085C234.374 141.519 235.133 139.605 234.981 137.674C234.829 135.743 233.638 133.843 231.818 133.187C231.254 132.961 230.632 132.923 230.044 133.079C229.3 133.308 228.748 133.926 228.238 134.516L227.022 135.92C226.718 136.23 226.478 136.596 226.315 136.998C226.237 137.2 226.218 137.42 226.262 137.632C226.306 137.844 226.411 138.039 226.564 138.192" fill="#FBBEBE"/>
<path d="M229.989 127.517C229.145 127.566 228.218 127.649 227.623 128.25C227.375 128.526 227.173 128.841 227.027 129.182C226.451 130.36 225.888 131.59 225.847 132.9C225.811 133.948 226.122 134.971 226.274 136.008C226.406 136.869 226.07 137.746 225.998 138.618C227.044 138.298 228.423 137.862 229.371 137.321C229.993 136.915 230.654 136.571 231.343 136.295C232.35 135.962 234.041 136.535 234.989 137.007C235.042 136.334 234.54 135.167 234.592 134.494C234.601 134.213 234.651 133.934 234.741 133.667C234.884 133.384 235.053 133.116 235.246 132.864C235.612 132.272 235.78 131.579 235.727 130.886C235.674 130.192 235.402 129.533 234.951 129.003C234.104 128.049 232.775 127.69 231.509 127.544C230.711 127.451 229.906 127.422 229.104 127.459" fill="#1890FF"/>
<path d="M105.037 108.222L99.5986 100.334C99.5986 100.334 99.4965 98.3812 99.1407 97.9262C98.785 97.4711 99.0635 96.4562 99.0635 96.4562C99.0635 96.4562 99.4469 95.9046 99.1159 95.8466C98.785 95.7887 99.0635 94.5531 99.0635 94.5531L99.0387 92.5756C99.0387 92.5756 99.3448 90.6726 99.0911 90.2175C99.0162 90.094 98.9786 89.9514 98.983 89.8071C98.9874 89.6627 99.0336 89.5226 99.1159 89.4039C99.1159 89.4039 99.4193 88.3145 99.1159 88.0249C98.8125 87.7353 98.887 86.0474 98.9615 84.7015C99.0359 83.3556 98.4292 82.5971 98.4292 82.3958C98.4292 82.1945 96.4213 80.2142 96.4213 80.0349C96.4213 79.8557 95.1499 79.122 94.3859 78.9317C93.622 78.7414 93.2441 78.576 93.2689 78.4739C93.2938 78.3719 92.0747 77.9692 92.0747 77.9692C92.0747 77.9692 91.0074 77.892 90.5992 77.3597C90.191 76.8274 88.9444 76.6729 88.914 76.6674L88.8892 76.5626C88.8892 76.524 88.8754 76.4854 88.8671 76.4468C88.9678 76.2863 89.0599 76.1206 89.1429 75.9503L89.2147 75.7959C89.6613 75.7988 90.0979 75.6629 90.464 75.407C90.6443 75.2575 90.7916 75.0723 90.8965 74.8629C91.0015 74.6535 91.0617 74.4246 91.0735 74.1907C91.0953 73.7219 90.9925 73.2556 90.7757 72.8393C90.5523 72.3842 90.2241 71.9098 90.3399 71.4134C90.3896 71.201 90.5164 71.0135 90.5826 70.8039C90.6814 70.3947 90.6161 69.963 90.4006 69.6014C90.2075 69.2346 89.94 68.9091 89.7249 68.5533C89.4521 68.0978 89.2695 67.5941 89.1871 67.0695C89.1717 66.7905 89.1054 66.5166 88.9913 66.2614C88.8758 66.0816 88.7235 65.9284 88.5445 65.8119C87.7486 65.2441 86.7884 64.9535 85.8113 64.9845C85.119 65.0065 84.4323 65.1941 83.7428 65.1086C83.332 65.0379 82.9279 64.9328 82.5347 64.7942C81.6825 64.5404 80.6979 64.4384 79.956 64.9266C79.2141 65.4147 78.919 66.3745 78.4143 67.133C77.9702 67.7949 77.3111 68.352 76.9801 69.0636C76.9801 69.0636 76.9801 69.036 76.9801 69.025C76.8968 69.1869 76.8329 69.3582 76.7898 69.5352C76.6951 70.0971 76.7338 70.6734 76.9029 71.2176C76.9402 71.5106 77.087 71.7786 77.3138 71.9678C77.5648 72.1305 77.9096 72.0919 78.2019 72.1443L78.1688 72.2877C77.8712 73.7134 78.1202 75.1988 78.8666 76.4495C79.613 77.7001 80.8022 78.6245 82.1983 79.0393C82.1983 79.0917 82.1983 79.1414 82.1983 79.1938C82.1977 79.3394 82.1885 79.4849 82.1707 79.6295C82.1707 79.6295 79.614 79.1027 78.9273 79.4585C78.2405 79.8143 76.8946 80.0929 76.6905 80.2859C76.4864 80.479 75.979 80.3383 75.5211 81.5298C75.0633 82.7213 75.0137 83.9375 74.4179 84.4974C73.8222 85.0573 73.5298 85.4351 73.5023 85.8406C73.4747 86.246 73.5795 86.348 73.3506 86.4749C73.1217 86.6018 72.799 87.1341 72.8927 87.3382C72.9278 87.4777 72.9203 87.6245 72.8711 87.7597C72.822 87.8949 72.7334 88.0122 72.6169 88.0966C72.4963 88.1814 72.4 88.2962 72.3376 88.4298C72.2752 88.5633 72.2488 88.7109 72.2612 88.8578C72.2612 88.8578 72.1067 89.4094 71.7509 89.5446C71.3951 89.6797 71.1662 90.5071 71.1662 90.5071L70.0134 91.831L67.7297 89.3046C67.5582 89.1158 67.3189 89.0025 67.0641 88.9896C66.8093 88.9767 66.5598 89.0652 66.37 89.2357L65.2475 90.2451C64.815 90.3502 64.4239 90.5827 64.125 90.9125C63.8818 91.1649 63.6848 91.458 63.5431 91.7786L62.9308 92.3302C62.7374 92.5698 62.619 92.8612 62.5905 93.1679C62.5621 93.4745 62.6248 93.7828 62.7708 94.0539L64.2353 95.6729V95.6867C63.7165 95.7323 63.2235 95.9332 62.8205 96.2631C60.6361 98.1937 60.6141 99.9671 60.9395 100.778C61.265 101.589 64.0395 104.708 64.0395 104.708C64.0395 104.708 65.6502 106.801 67.9752 107.913L67.9587 107.932C67.9108 107.982 67.8657 108.035 67.8235 108.089L67.7849 108.139L67.7491 108.189L67.7077 108.249C67.6966 108.265 67.6864 108.282 67.6773 108.299L67.6332 108.371C67.623 108.387 67.6138 108.403 67.6056 108.42C67.5863 108.454 67.5698 108.487 67.5532 108.52C67.5472 108.53 67.5416 108.541 67.5367 108.553C67.5146 108.597 67.4926 108.641 67.4732 108.691L67.4512 108.74C67.4374 108.773 67.4264 108.807 67.4126 108.842C67.404 108.864 67.3966 108.886 67.3905 108.909L67.3574 109.008C67.3484 109.031 67.3411 109.055 67.3353 109.08C67.3353 109.115 67.3133 109.151 67.305 109.19C67.2967 109.229 67.2912 109.234 67.2857 109.259C67.2802 109.284 67.2581 109.377 67.2471 109.441C67.2471 109.463 67.2471 109.488 67.2333 109.513C67.2195 109.537 67.2195 109.598 67.2112 109.642C67.203 109.686 67.2112 109.703 67.2112 109.736L67.1947 109.86V109.959C67.1947 110.006 67.1947 110.053 67.1809 110.103C67.1671 110.152 67.1809 110.161 67.1809 110.191C67.1809 110.271 67.1809 110.351 67.1809 110.437C67.1312 113.404 67.305 113.834 67.305 113.834C67.4184 114.109 67.6035 114.347 67.8407 114.525C68.078 114.703 68.3588 114.814 68.6537 114.847C68.7984 114.858 68.9439 114.851 69.0867 114.825C70.4105 114.596 73.4995 114.063 74.6027 114.273C75.2619 114.394 76.4782 114.212 77.3442 114.05L77.5731 114.005L77.7303 114.51L78.2322 114.372L78.6597 114.618L78.9355 114.775C79.4375 116.474 81.4729 115.895 81.4729 115.895L81.9556 116.17L86.8621 116.297C87.4128 116.629 87.9948 116.906 88.5996 117.125C88.6795 117.151 88.7617 117.169 88.8451 117.18C89.3038 117.217 89.7644 117.225 90.2241 117.205C90.5992 117.205 90.8888 117.18 90.8888 117.18C90.8888 117.18 90.8391 115.848 90.7674 114.356C92.2883 114.318 93.8059 114.194 95.3126 113.983C97.9327 113.525 99.0249 111.143 99.4276 109.868C99.5481 110.389 99.6338 110.917 99.6841 111.449C99.7911 111.916 99.9275 112.377 100.092 112.828C100.233 113.188 100.418 113.529 100.644 113.843C102.574 113.183 101.405 112.188 101 111.763C100.594 111.338 101.275 110.977 101.275 110.977C101.275 110.977 101.81 110.621 101.758 110.293C101.706 109.965 101.681 109.609 103.413 109.634C105.145 109.659 105.037 108.222 105.037 108.222ZM78.1964 92.0295C78.2185 92.173 78.4722 93.7368 78.6763 94.1477C78.7372 94.419 78.7567 94.698 78.7342 94.9751C77.711 94.8924 76.6436 94.8482 76.6436 94.8482C76.6736 94.8855 76.6927 94.9304 76.6988 94.9779L76.5361 94.942L76.3044 94.8868L78.1909 92.0157L78.1964 92.0295ZM74.4565 97.9758L76.2299 98.2516L76.3789 98.2737C76.3287 98.5469 76.2983 98.8235 76.2879 99.1011C76.2879 99.1287 76.3265 99.159 76.3844 99.1949C76.3597 99.3341 76.3486 99.4754 76.3513 99.6168C76.3789 99.7547 77.2063 100.058 78.1578 100.309C78.144 100.361 78.133 100.411 78.1192 100.455C77.278 100.014 75.9569 99.8071 75.8052 99.4789C75.6535 99.1507 71.1524 97.5787 71.1524 97.5787L70.7056 97.3553L71.8888 97.5787L72.2143 97.5456C72.9516 97.7374 73.7006 97.8811 74.4565 97.9758Z" fill="url(#paint0_linear_1762_87063)"/>
<path d="M99.251 109.325C99.251 109.325 98.5478 113.583 94.9706 114.212C91.3935 114.841 79.4513 114.717 79.4513 114.717C79.4513 114.717 72.6224 113.732 70.154 107.965C67.6856 102.198 66.097 99.9009 68.2234 99.8016C70.3498 99.7024 81.7542 103.663 82.4079 103.707C83.0615 103.751 99.8826 94.9393 99.251 109.325Z" fill="#65617D"/>
<path opacity="0.05" d="M99.251 109.325C99.251 109.325 98.5478 113.583 94.9706 114.212C91.3935 114.841 79.4513 114.717 79.4513 114.717C79.4513 114.717 72.6224 113.732 70.154 107.965C67.6856 102.198 66.097 99.9009 68.2234 99.8016C70.3498 99.7024 81.7542 103.663 82.4079 103.707C83.0615 103.751 99.8826 94.9393 99.251 109.325Z" fill="black"/>
<path d="M67.2278 114.066C67.3386 114.338 67.5213 114.576 67.7563 114.753C67.9913 114.93 68.27 115.041 68.5626 115.072C68.7074 115.081 68.8528 115.073 68.9956 115.048C70.3057 114.821 73.3781 114.292 74.462 114.496C75.1129 114.615 76.3182 114.435 77.1759 114.275C77.7468 114.168 78.166 114.066 78.166 114.066C78.166 114.066 77.1566 110.715 77.0325 110.615C76.9084 110.516 72.4956 107.857 72.4956 107.857L69.0039 107.606C68.5338 107.677 68.109 107.926 67.818 108.301C67.4512 108.748 67.134 109.479 67.1119 110.679C67.054 113.633 67.2278 114.066 67.2278 114.066Z" fill="#3F3D56"/>
<path opacity="0.05" d="M67.228 114.066C67.3388 114.338 67.5215 114.576 67.7565 114.753C67.9915 114.931 68.2702 115.041 68.5628 115.072C68.2209 114.631 67.9041 114.171 67.6141 113.693L67.6334 111.25C67.564 110.58 67.6526 109.902 67.8921 109.273C68.1316 108.643 68.5152 108.078 69.0124 107.623C69.0124 107.623 67.1728 107.747 67.1204 110.695C67.068 113.644 67.228 114.066 67.228 114.066Z" fill="black"/>
<path opacity="0.1" d="M82.372 108.721L85.6237 106.176L90.7371 101.137L89.3581 101.073C89.1512 101.206 88.572 101.625 88.55 102.127C88.5252 102.742 87.171 102.171 86.4622 102.521C85.7534 102.871 82.3058 107.293 81.7018 107.262C81.0978 107.232 80.6179 106.956 80.3642 107.386L80.3477 107.414L82.372 108.721Z" fill="black"/>
<path opacity="0.1" d="M67.8096 108.308C67.9254 108.363 68.044 108.418 68.1626 108.468C70.631 109.527 73.6786 111.744 73.9075 112.147C74.0454 112.392 75.8133 113.465 77.1758 114.27C77.7467 114.163 78.1659 114.061 78.1659 114.061C78.1659 114.061 77.1565 110.71 77.0324 110.611C76.9083 110.511 72.4954 107.853 72.4954 107.853L69.0038 107.602C68.529 107.673 68.1006 107.926 67.8096 108.308Z" fill="black"/>
<path d="M60.959 101.086C61.2844 101.892 64.0314 104.992 64.0314 104.992C64.0314 104.992 65.769 107.259 68.2402 108.301C70.7113 109.344 73.7562 111.578 73.9823 111.98C74.1285 112.24 76.0977 113.426 77.4822 114.239L77.7939 114.421L78.4806 114.821L78.8447 115.028C78.8447 115.028 79.6887 114.352 80.5299 113.671C81.371 112.99 82.1847 112.322 82.1847 112.292C82.1847 112.262 82.5377 111.36 82.4605 111.31C82.3832 111.261 82.2481 110.935 81.9282 110.53C81.5905 110.08 81.151 109.717 80.6457 109.471C79.9147 109.095 79.3317 108.484 78.9909 107.736C78.9909 107.736 78.8806 107.656 78.7151 107.548C78.3721 107.313 77.9888 107.142 77.5843 107.044C77.0327 106.975 75.9957 105.841 75.9957 105.841C75.5924 105.579 75.2561 105.225 75.0138 104.81C74.738 104.258 70.841 101.572 70.4797 101.324L79.9507 107.408L82.2178 108.864L85.4695 106.321L90.5828 101.282L88.8949 101.205C86.4127 101.097 81.9999 100.929 81.4483 101.056C80.9964 101.16 80.5308 101.191 80.0693 101.147C80.0693 101.147 78.8116 101.202 77.9787 100.764C77.1458 100.325 75.8357 100.118 75.684 99.7928C75.5323 99.4674 71.0754 97.9063 71.0754 97.9063C71.0754 97.9063 65.0078 94.6822 62.8372 96.5963C60.6666 98.5103 60.6308 100.275 60.959 101.086Z" fill="#65617D"/>
<path d="M80.5322 82.5946L81.3127 85.1899L82.3222 91.0341L86.0262 91.2851L87.0852 89.5199L88.1553 87.7438C88.1553 87.7438 88.8228 85.3829 89.3027 83.0993C89.7247 81.0777 90.0032 79.114 89.5426 78.9016C89.1317 78.7141 88.8642 78.0328 88.6876 77.2992C88.6656 77.2109 88.6463 77.1172 88.6297 77.0234C88.5062 76.4034 88.4233 75.776 88.3815 75.1452C88.3815 75.1452 80.6232 74.7425 81.7071 77.9418C81.9005 78.4883 81.9994 79.0638 81.9995 79.6435C81.9995 79.7924 81.9995 79.9386 81.9719 80.0765C81.9181 80.5727 81.7625 81.0525 81.5148 81.4857C81.267 81.919 80.9325 82.2965 80.5322 82.5946Z" fill="#EE8E9E"/>
<path d="M78.9219 82.1666L79.1977 86.5794L79.8265 90.3331L80.5326 92.0734L81.1641 101.583C81.1641 101.583 87.2318 102.286 88.7156 101.569C88.825 101.527 88.9205 101.456 88.9914 101.362C90.7758 98.6678 90.1911 90.8626 90.1911 90.8626L90.8696 85.8237L90.4173 83.2091L89.3141 83.0933L88.4701 83.0023C88.4701 83.0023 88.2798 83.2367 88.004 83.6007C87.2566 84.5854 85.8831 86.527 85.9769 87.3351C86.101 88.4383 85.8252 89.5774 85.3949 89.7539C84.9647 89.9304 84.6144 90.2338 84.5399 89.9304C84.4327 89.6761 84.4058 89.3951 84.4627 89.125C84.5399 88.6948 84.1345 87.3847 84.1345 87.3847C84.1345 87.3847 83.456 85.8485 83.5057 85.1949C83.5553 84.5412 83.4312 83.7828 83.2299 83.6063C83.0286 83.4297 82.75 83.2532 82.9762 82.4479C83.2023 81.6425 81.9833 80.0732 81.9833 80.0732L78.9219 82.1666Z" fill="#E3E8F4"/>
<path opacity="0.1" d="M86.9447 93.177L87.1984 100.709L88.6519 101.517C88.761 101.473 88.8563 101.401 88.9277 101.308C90.7121 98.6131 90.1274 90.8079 90.1274 90.8079L90.8086 85.769L90.3536 83.1544L89.2504 83.0386C89.6751 81.0169 89.9509 79.056 89.4903 78.8409C89.0794 78.6533 88.8119 77.9721 88.6381 77.2412L87.8521 82.5697C87.8521 82.5697 87.9183 83.0496 87.9403 83.546C87.973 83.8599 87.9515 84.1771 87.8769 84.4838C87.775 84.8962 87.7581 85.325 87.8272 85.7442C87.3722 86.544 87.146 88.0278 87.0357 89.4592C86.8868 91.3622 86.9447 93.177 86.9447 93.177Z" fill="black"/>
<path d="M88.6601 77.1084C88.6601 77.1084 89.9315 77.2656 90.3342 77.7951C90.7369 78.3247 91.7959 78.4019 91.7959 78.4019C91.7959 78.4019 93.0039 78.8046 92.9791 78.9039C92.9543 79.0032 93.3321 79.1576 94.0823 79.3589C94.8325 79.5603 96.0984 80.2911 96.0984 80.4621C96.0984 80.6331 98.087 82.6024 98.087 82.8037C98.087 83.005 98.6909 83.7607 98.6165 85.0956C98.542 86.4305 98.4648 88.1294 98.7682 88.4052C99.0716 88.681 98.7682 89.7649 98.7682 89.7649C98.6867 89.8829 98.641 90.0219 98.6365 90.1653C98.6321 90.3086 98.6692 90.4502 98.7433 90.573C98.9943 91.0253 98.6909 92.9145 98.6909 92.9145L98.7185 94.881C98.7185 94.881 98.4427 96.1138 98.7682 96.1662C99.0936 96.2186 98.7185 96.7702 98.7185 96.7702C98.7185 96.7702 98.4427 97.7769 98.793 98.232C99.1433 98.6871 99.2453 100.623 99.2453 100.623L104.637 108.459C104.637 108.459 104.714 109.896 103.002 109.871C101.289 109.846 101.311 110.199 101.363 110.524C101.416 110.85 100.884 111.206 100.884 111.206C100.884 111.206 100.205 111.559 100.608 111.986C101.01 112.414 102.169 113.398 100.255 114.052C100.029 113.741 99.8439 113.403 99.7031 113.045C99.5409 112.601 99.4064 112.147 99.3005 111.686C99.3005 111.686 99.124 109.769 98.7709 109.518C98.4179 109.267 98.4675 108.056 98.4675 108.056C98.4675 108.056 98.9723 107.074 98.2662 106.677C97.5602 106.28 87.3335 100.609 87.3335 100.609L87.0853 93.0745C87.0853 93.0745 86.9087 87.5061 87.9678 85.6417C87.8987 85.2225 87.9156 84.7937 88.0175 84.3813C88.194 83.929 87.9926 82.4672 87.9926 82.4672L88.6601 77.1084Z" fill="#3F3D56"/>
<path opacity="0.1" d="M82.0578 80.1425C82.0578 80.1425 79.5259 79.6212 78.8447 79.9742C78.1635 80.3272 76.8313 80.603 76.6383 80.8016C76.4452 81.0002 75.935 80.854 75.4799 82.0372C75.0248 83.2204 74.9779 84.4312 74.396 84.9855C73.8141 85.5399 73.5162 85.9177 73.4914 86.3204C73.4666 86.7231 73.5659 86.8251 73.3397 86.9492C73.1135 87.0733 72.7881 87.6056 72.8846 87.807C72.9812 88.0083 78.1248 92.4432 78.1248 92.4432C78.1248 92.4432 78.3786 94.1311 78.6047 94.5586C78.8309 94.9861 78.3538 100.883 77.849 101.285C77.3443 101.688 81.2386 101.655 81.2386 101.655C81.2386 101.655 81.4151 97.7937 81.5668 97.5841C81.7185 97.3745 81.4648 93.2513 81.4648 93.2513C81.4648 93.2513 81.44 89.7238 81.7682 88.7916C82.0964 87.8594 82.044 84.7594 82.044 84.7594C82.044 84.7594 82.3336 82.9005 82.6866 82.4675C83.0396 82.0344 82.0578 80.1425 82.0578 80.1425Z" fill="black"/>
<path d="M81.9831 80.0674C81.9831 80.0674 79.4513 79.5462 78.77 79.8964C78.0888 80.2467 76.7539 80.528 76.5636 80.7238C76.3733 80.9197 75.8576 80.7735 75.4053 81.9594C74.9529 83.1454 74.9005 84.3506 74.3214 84.905C73.7422 85.4594 73.4388 85.8372 73.414 86.2399C73.3892 86.6425 73.4912 86.7446 73.2623 86.8715C73.0334 86.9983 72.7107 87.5251 72.81 87.7264C72.9093 87.9278 78.0502 92.3627 78.0502 92.3627C78.0502 92.3627 78.3012 94.0506 78.5301 94.4781C78.759 94.9055 78.2764 100.802 77.7716 101.205C77.2669 101.608 81.175 101.572 81.175 101.572C81.175 101.572 81.3515 97.7104 81.5005 97.5036C81.6494 97.2967 81.4012 93.168 81.4012 93.168C81.4012 93.168 81.3764 89.6433 81.7046 88.7111C82.0328 87.7788 81.9942 84.6788 81.9942 84.6788C81.9942 84.6788 82.2837 82.8199 82.6368 82.3869C82.9898 81.9539 81.9831 80.0674 81.9831 80.0674Z" fill="#3F3D56"/>
<path opacity="0.1" d="M81.7182 77.9362C81.9116 78.4827 82.0105 79.0582 82.0106 79.6379C83.2481 80.0004 84.5712 79.9395 85.7702 79.4649C86.9693 78.9903 87.9756 78.1291 88.6298 77.0178C88.5062 76.3978 88.4233 75.7704 88.3816 75.1396C88.3816 75.1396 80.6343 74.7342 81.7182 77.9362Z" fill="black"/>
<path d="M77.8877 73.9532C77.8867 75.4319 78.4532 76.8546 79.4704 77.9279C80.4875 79.0011 81.8777 79.6431 83.3543 79.7215C84.8309 79.7998 86.2813 79.3086 87.4063 78.349C88.5313 77.3894 89.2452 76.0346 89.4007 74.5641C89.5562 73.0937 89.1415 71.6196 88.2421 70.4459C87.3426 69.2722 86.0271 68.4884 84.5668 68.2562C83.1064 68.024 81.6127 68.361 80.3935 69.1978C79.1744 70.0346 78.3229 71.3073 78.0146 72.7535C77.93 73.1478 77.8875 73.55 77.8877 73.9532Z" fill="#EE8E9E"/>
<path d="M74.1834 87.3135L72.8044 87.741C72.8396 87.8801 72.8321 88.0265 72.7829 88.1613C72.7338 88.2961 72.6451 88.413 72.5286 88.4967C72.4086 88.5804 72.3129 88.6945 72.2514 88.8272C72.1899 88.96 72.1646 89.1067 72.1783 89.2524C72.1783 89.2524 72.0266 89.804 71.6736 89.9336C71.3205 90.0632 71.0944 90.8906 71.0944 90.8906L69.936 92.2255C69.936 92.2255 69.5058 92.5785 69.583 92.755C69.6602 92.9315 69.1279 92.9812 69.1279 92.9812L69.4037 97.4657L71.7977 97.9208L73.2842 97.7691L74.4923 97.3168L75.5513 96.6852L76.0285 95.4524L78.1466 92.2255L74.1834 87.3135Z" fill="#3F3D56"/>
<path d="M69.4729 93.3252C69.4729 93.3252 66.4004 88.893 64.1058 91.2842C61.8111 93.6754 65.038 97.5587 65.7937 97.4318C66.5494 97.305 70.1541 97.1036 70.1541 97.1036L69.4729 93.3252Z" fill="#EE8E9E"/>
<path d="M76.7109 91.4095L63.1386 84.4822C62.9296 84.3755 62.6738 84.4584 62.5672 84.6674L57.2748 95.0364C57.1681 95.2453 57.251 95.5011 57.46 95.6078L71.0323 102.535C71.2412 102.642 71.4971 102.559 71.6037 102.35L76.8961 91.9809C77.0028 91.772 76.9198 91.5162 76.7109 91.4095Z" fill="#3F3D56"/>
<path d="M75.4487 92.0254L63.4043 85.8779L58.7714 94.9548L70.8158 101.102L75.4487 92.0254Z" fill="#1890FF"/>
<path d="M60.6249 90.3964C60.7468 90.3964 60.8456 90.2976 60.8456 90.1757C60.8456 90.0539 60.7468 89.9551 60.6249 89.9551C60.5031 89.9551 60.4043 90.0539 60.4043 90.1757C60.4043 90.2976 60.5031 90.3964 60.6249 90.3964Z" fill="#E6E8EC"/>
<path d="M73.6622 97.2229C73.8648 97.2229 74.029 97.0587 74.029 96.8561C74.029 96.6535 73.8648 96.4893 73.6622 96.4893C73.4596 96.4893 73.2954 96.6535 73.2954 96.8561C73.2954 97.0587 73.4596 97.2229 73.6622 97.2229Z" fill="#E6E8EC"/>
<path d="M67.4845 94.2575C67.4569 97.5836 74.3354 98.2897 74.3354 98.2897L76.0922 98.5655L76.881 98.6896L77.2092 95.4407C77.2092 95.4407 76.8479 95.3855 76.3983 95.2807C75.7309 95.1263 74.8677 94.8587 74.6884 94.4809C74.3988 93.8548 67.5038 90.9313 67.4845 94.2575Z" fill="#EE8E9E"/>
<path opacity="0.1" d="M78.0142 72.7533C78.1723 72.765 78.3215 72.8313 78.4361 72.9409C78.6292 73.1477 78.6402 73.5145 78.894 73.6414C78.9888 73.6814 79.0933 73.6929 79.1946 73.6745C79.8648 73.5807 80.2509 72.825 80.8963 72.6154C81.2715 72.519 81.6683 72.553 82.0216 72.7119C82.1651 72.7584 82.2943 72.8411 82.3966 72.9519C82.6118 73.2277 82.4601 73.6414 82.5594 73.9779C82.6973 74.4467 83.2571 74.6315 83.7398 74.6922C84.2224 74.7529 84.7685 74.7887 85.0912 75.1528C85.198 75.2893 85.2747 75.4469 85.316 75.6152C85.3574 75.7835 85.3625 75.9587 85.3312 76.1291C85.3022 76.2478 85.3022 76.3717 85.3312 76.4904C85.4636 76.8683 86.1172 76.8104 86.2882 76.5125C86.4151 76.2946 86.3765 76.1153 86.6716 76.0547C86.8824 76.0379 87.094 76.0749 87.2866 76.1622C87.8001 76.3384 88.3408 76.4215 88.8835 76.4077C89.2287 75.6715 89.4144 74.8707 89.4284 74.0577C89.4424 73.2447 89.2844 72.438 88.9648 71.6903C88.6452 70.9427 88.1712 70.271 87.5738 69.7194C86.9765 69.1678 86.2693 68.7486 85.4986 68.4894C84.7279 68.2303 83.9111 68.1369 83.1019 68.2155C82.2926 68.2941 81.509 68.5428 80.8026 68.9454C80.0962 69.348 79.4828 69.8954 79.0028 70.5516C78.5227 71.2078 78.1867 71.9581 78.0169 72.7533H78.0142Z" fill="black"/>
<path d="M85.3285 76.3389C85.2997 76.2202 85.2997 76.0963 85.3285 75.9776C85.36 75.8076 85.3549 75.6329 85.3136 75.465C85.2722 75.2971 85.1955 75.14 85.0886 75.0041C84.7659 74.6373 84.2226 74.6042 83.7372 74.5407C83.2518 74.4773 82.6946 74.2953 82.5567 73.8264C82.4574 73.4899 82.6091 73.079 82.394 72.8032C82.2933 72.6904 82.1635 72.6074 82.0189 72.5632C81.6659 72.4036 81.2692 72.3686 80.8937 72.4639C80.2483 72.6736 79.8622 73.4293 79.192 73.523C79.0907 73.5428 78.9859 73.5313 78.8913 73.4899C78.6376 73.3631 78.6155 72.9962 78.4335 72.7894C78.1274 72.4667 77.5454 72.6763 77.1731 72.4364C76.9473 72.2479 76.8014 71.9808 76.7649 71.689C76.5981 71.1481 76.5604 70.5757 76.6546 70.0176C76.8725 69.0826 77.7109 68.44 78.2432 67.6374C78.7424 66.8928 79.0237 65.9495 79.7712 65.4559C80.5186 64.9622 81.4811 65.0725 82.3278 65.3235C82.7171 65.4624 83.1175 65.5676 83.5248 65.6379C84.206 65.7206 84.89 65.5358 85.574 65.5138C86.5435 65.4825 87.4959 65.7734 88.2824 66.3412C88.4597 66.4568 88.6102 66.6092 88.7237 66.788C88.8374 67.0414 88.9046 67.3133 88.9222 67.5905C89.0028 68.1113 89.1836 68.6114 89.4545 69.0633C89.6641 69.4191 89.9317 69.739 90.122 70.1058C90.3347 70.4654 90.4 70.8934 90.304 71.3001C90.2378 71.5069 90.1109 71.6945 90.0613 71.9068C89.951 72.3978 90.2736 72.8694 90.4943 73.3217C90.709 73.7357 90.8108 74.199 90.7894 74.6648C90.7776 74.897 90.7179 75.1242 90.6139 75.3321C90.51 75.54 90.3641 75.7241 90.1854 75.8728C89.8108 76.1327 89.3643 76.2687 88.9084 76.2617C88.3557 76.2786 87.8044 76.1954 87.2812 76.0163C87.0882 75.9303 86.8769 75.8933 86.6662 75.9087C86.3711 75.9694 86.4097 76.1486 86.2828 76.3665C86.1146 76.6589 85.4637 76.7168 85.3285 76.3389Z" fill="#3F3D56"/>
<path opacity="0.1" d="M82.2202 108.87L85.4719 106.327L90.5853 101.288L88.8974 101.211C88.6992 101.39 88.5728 101.635 88.5416 101.9C88.5168 102.515 87.1626 101.942 86.4538 102.295C85.745 102.648 82.2974 107.066 81.6934 107.036C81.0894 107.006 80.6095 106.73 80.3558 107.157L80.3392 107.185C80.2386 107.301 80.1032 107.381 79.9531 107.414L82.2202 108.87Z" fill="black"/>
<path d="M75.6699 108.693L77.3027 113.908L77.5592 114.736L78.3369 114.523L80.0524 114.052L87.6866 111.956C88.6482 111.914 89.5893 111.664 90.4446 111.222C91.8879 110.413 93.5394 110.053 95.1884 110.188C96.1978 110.282 97.3203 109.846 98.2525 108.125C98.2525 108.125 100.368 101.878 95.0284 100.088C89.6889 98.2981 89.4324 101.04 89.4324 101.04L89.3579 101.084C89.1511 101.216 88.5719 101.635 88.5498 102.137C88.525 102.752 87.1708 102.181 86.462 102.532C85.7532 102.882 82.3057 107.303 81.7017 107.273C81.0977 107.242 80.6178 106.967 80.3641 107.397L80.3475 107.424C80.16 107.681 79.6001 107.741 79.2278 107.75C79.112 107.756 78.996 107.756 78.8802 107.75L78.8306 107.764L78.4445 107.879L75.6699 108.693Z" fill="#65617D"/>
<path opacity="0.1" d="M76.0923 98.569L76.8811 98.6931L77.2093 95.4441C77.2093 95.4441 76.848 95.389 76.3984 95.2842C76.517 95.7393 76.2467 97.4906 76.0923 98.569Z" fill="black"/>
<path opacity="0.1" d="M96.6946 83.3825C96.6946 83.3825 99.0361 82.7012 98.4569 89.3536C98.0548 93.4138 96.3289 97.2291 93.5449 100.212C93.5449 100.212 88.5557 102.402 86.3134 102.049C84.0711 101.696 82.4356 101.621 82.4356 101.621C81.7291 101.265 80.9561 101.059 80.1658 101.017C78.9081 100.968 76.2632 100.19 76.2108 99.9333C76.1584 99.6768 76.8672 95.9783 76.5638 95.7025C76.5638 95.7025 80.0913 95.8459 80.4443 96.0997C80.7974 96.3534 81.3021 96.1741 81.6799 96.0997C82.0578 96.0252 83.2161 95.0213 85.5081 95.9039C85.5081 95.9039 86.2886 95.9783 86.5919 95.777C86.8393 95.6617 87.1209 95.644 87.3807 95.7273C87.5768 95.6622 87.7626 95.5693 87.9323 95.4515C88.0068 95.3523 88.6136 95.4515 88.6136 95.4515C88.6497 95.4677 88.6889 95.4759 88.7284 95.4755C88.768 95.4752 88.807 95.4664 88.8428 95.4496C88.8787 95.4329 88.9105 95.4086 88.9361 95.3785C88.9618 95.3484 88.9806 95.3131 88.9914 95.275C89.0712 95.0695 89.1912 94.8819 89.3444 94.7234C89.3444 94.7234 90.0229 90.8953 91.3082 89.4584C91.4108 89.3687 91.4896 89.255 91.5377 89.1275C91.5859 89 91.6017 88.8626 91.584 88.7275C91.4792 88.3193 93.6718 82.5744 96.6946 83.3825Z" fill="black"/>
<path d="M96.631 82.8698C96.631 82.8698 98.9753 82.1913 98.3961 88.8409C97.995 92.9014 96.2689 96.7171 93.4841 99.6992C93.4841 99.6992 88.4949 101.892 86.2526 101.539C84.0103 101.186 82.3721 101.103 82.3721 101.103C81.6667 100.746 80.8945 100.54 80.105 100.499C78.8446 100.447 76.1996 99.6716 76.15 99.4151C76.1003 99.1586 76.8036 95.4601 76.503 95.1816C76.503 95.1816 80.0305 95.3277 80.3835 95.5815C80.7366 95.8352 81.2385 95.6532 81.6164 95.5815C81.9942 95.5098 83.1526 94.5031 85.4472 95.3829C85.4472 95.3829 86.2278 95.4601 86.5284 95.2588C86.7758 95.1445 87.0568 95.1258 87.3172 95.2064C87.5126 95.1397 87.6982 95.047 87.8688 94.9306C87.9433 94.8285 88.5473 94.9306 88.5473 94.9306C88.5834 94.9467 88.6225 94.9549 88.6621 94.9546C88.7016 94.9542 88.7407 94.9454 88.7765 94.9287C88.8124 94.9119 88.8442 94.8877 88.8698 94.8575C88.8954 94.8274 88.9143 94.7921 88.9251 94.7541C89.0049 94.5485 89.1249 94.361 89.2781 94.2025C89.2781 94.2025 89.9594 90.3744 91.2446 88.9374C91.3472 88.8478 91.4261 88.7341 91.4742 88.6066C91.5223 88.4791 91.5382 88.3417 91.5204 88.2066C91.4183 87.8094 93.6082 82.0728 96.631 82.8698Z" fill="#3F3D56"/>
<path opacity="0.1" d="M78.4365 107.866L81.7627 111.892L81.7848 111.87C81.8096 111.793 82.1378 110.938 82.0606 110.886C81.9833 110.833 81.4069 109.576 80.2485 109.046C79.6593 108.759 79.1646 108.309 78.8226 107.75L78.4365 107.866Z" fill="black"/>
<path opacity="0.1" d="M78.4804 114.836L78.8445 115.043C78.8445 115.043 79.6884 114.367 80.5296 113.686C81.3708 113.004 82.1844 112.337 82.1844 112.307C82.1844 112.276 82.5374 111.374 82.4602 111.325C82.383 111.275 82.2479 110.95 81.9279 110.544C79.6719 109.913 81.1005 111.479 81.2991 111.551C81.2991 111.551 78.5549 110.919 78.4032 113.912C78.3901 114.222 78.4161 114.532 78.4804 114.836Z" fill="black"/>
<path d="M81.2635 116.101L81.7434 116.377L86.6058 116.501C87.151 116.833 87.7274 117.11 88.3268 117.328C88.4062 117.352 88.4874 117.37 88.5695 117.381C89.0208 117.418 89.4741 117.426 89.9264 117.406C90.2988 117.406 90.5856 117.381 90.5856 117.381C90.5856 117.381 90.3567 111.25 90.1829 110.604C90.1002 110.296 89.692 110.362 89.2893 110.516C88.9875 110.64 88.696 110.787 88.4178 110.957C88.4178 110.957 86.3548 111.159 86.0266 111.335C85.6984 111.512 84.7662 111.233 84.187 111.335C83.6078 111.437 82.5736 110.654 82.5736 110.654C79.7521 109.722 81.3407 111.459 81.5421 111.537C81.5421 111.537 78.784 110.905 78.6434 113.898C78.5027 116.89 81.2635 116.101 81.2635 116.101Z" fill="#3F3D56"/>
<path d="M88.2935 113.735C88.3459 115.004 89.336 116.579 89.9262 117.412C90.2986 117.412 90.5854 117.387 90.5854 117.387C90.5854 117.387 90.3565 111.256 90.1827 110.611C90.1 110.302 89.6918 110.368 89.2891 110.522C88.801 111.438 88.2494 112.709 88.2935 113.735Z" fill="#565387"/>
<path opacity="0.1" d="M88.2935 113.735C88.3459 115.004 89.336 116.579 89.9262 117.412C90.2986 117.412 90.5854 117.387 90.5854 117.387C90.5854 117.387 90.3565 111.256 90.1827 110.611C90.1 110.302 89.6918 110.368 89.2891 110.522C88.801 111.438 88.2494 112.709 88.2935 113.735Z" fill="black"/>
<path opacity="0.05" d="M87.4604 113.904C87.7968 115.128 87.7913 116.502 88.3264 117.335C88.4058 117.358 88.487 117.376 88.5691 117.387C89.0204 117.424 89.4736 117.432 89.926 117.412C90.2984 117.412 90.5852 117.387 90.5852 117.387C90.5852 117.387 90.3563 111.256 90.1825 110.611C90.0998 110.302 89.6916 110.368 89.2889 110.522C88.9871 110.646 88.6956 110.793 88.4174 110.964C88.4174 110.964 87.0329 112.334 87.4604 113.904Z" fill="black"/>
<path opacity="0.1" d="M70.6865 101.473C70.6865 101.473 73.1025 102.256 75.149 105.042L70.6865 101.473Z" fill="black"/>
<g opacity="0.1">
<path opacity="0.1" d="M90.3127 71.2393C90.3127 71.2586 90.3127 71.2751 90.2989 71.2944C90.2756 71.3663 90.2471 71.4364 90.2134 71.504C90.24 71.4135 90.2732 71.325 90.3127 71.2393Z" fill="black"/>
<path opacity="0.1" d="M76.6493 70.0172C76.6902 69.8409 76.7532 69.6704 76.8368 69.5098C76.8368 69.5511 76.8092 69.5953 76.7982 69.6394C76.7063 70.1978 76.745 70.7698 76.9113 71.3108C76.9478 71.6019 77.0926 71.8687 77.3167 72.0582C77.6918 72.2981 78.2737 72.0885 78.5799 72.4112C78.7729 72.6181 78.784 72.9849 79.0377 73.1117C79.1322 73.1531 79.2371 73.1646 79.3383 73.1448C80.0085 73.0511 80.3946 72.2954 81.04 72.0858C81.4154 71.9891 81.8126 72.0241 82.1653 72.185C82.3099 72.2292 82.4396 72.3122 82.5404 72.425C82.7555 72.7008 82.6038 73.1117 82.7031 73.4482C82.841 73.9171 83.4009 74.1019 83.8835 74.1625C84.3662 74.2232 84.9123 74.2591 85.235 74.6259C85.3419 74.7618 85.4186 74.9189 85.4599 75.0868C85.5013 75.2547 85.5064 75.4295 85.4749 75.5995C85.446 75.7182 85.446 75.8421 85.4749 75.9608C85.6073 76.3386 86.2609 76.2807 86.4319 75.9828C86.5588 75.765 86.5202 75.5857 86.8153 75.525C87.026 75.5096 87.2373 75.5466 87.4303 75.6326C87.9535 75.8117 88.5048 75.8949 89.0576 75.878C89.5134 75.885 89.96 75.749 90.3345 75.4892C90.4983 75.3605 90.632 75.1977 90.7262 75.012C90.641 75.3498 90.4472 75.6502 90.1746 75.867C89.8 76.1269 89.3534 76.2629 88.8976 76.2559C88.3448 76.2727 87.7936 76.1896 87.2704 76.0104C87.0774 75.9244 86.8661 75.8875 86.6553 75.9029C86.3602 75.9635 86.3988 76.1428 86.2747 76.3607C86.101 76.6586 85.4473 76.7165 85.3149 76.3386C85.2874 76.2198 85.2874 76.0962 85.3149 75.9773C85.3464 75.8073 85.3413 75.6325 85.3 75.4647C85.2586 75.2968 85.1819 75.1396 85.075 75.0037C84.7523 74.6369 84.209 74.6038 83.7236 74.5404C83.2382 74.477 82.681 74.2949 82.5431 73.8261C82.4439 73.4896 82.5955 73.0786 82.3804 72.8028C82.2804 72.6905 82.1517 72.6075 82.0081 72.5629C81.6541 72.4033 81.2565 72.3683 80.8801 72.4636C80.2374 72.6732 79.8486 73.4289 79.1784 73.5227C79.0771 73.5425 78.9723 73.5309 78.8777 73.4896C78.624 73.3627 78.6019 72.9959 78.4199 72.789C78.1138 72.4664 77.5346 72.676 77.1595 72.436C76.9337 72.2476 76.7878 71.9804 76.7513 71.6886C76.5873 71.1471 76.5523 70.5747 76.6493 70.0172Z" fill="black"/>
</g>
<path opacity="0.1" d="M90.7038 90.1842C90.2405 90.8075 89.7137 91.3839 89.3055 92.0403C88.8621 92.6874 88.6467 93.4637 88.6932 94.2467C89.1152 93.8137 89.311 93.2125 89.5758 92.6691C90.0281 91.748 90.7011 90.9674 91.272 90.1235C91.3795 89.9608 92.0745 89.0203 91.7243 88.9817C91.4319 88.9403 90.861 89.9718 90.7038 90.1842Z" fill="black"/>
<path d="M93.1861 149.197C93.5198 150.267 93.8563 151.34 94.2728 152.38C95.0231 154.188 95.9673 155.909 97.0887 157.513C97.8117 158.569 98.5887 159.587 99.4165 160.563C100.453 161.785 101.623 163.015 101.976 164.576C102.188 165.478 102.117 166.418 102.205 167.334C102.293 168.25 102.594 169.231 103.341 169.783C103.873 170.177 104.555 170.296 105.208 170.398C105.677 170.472 106.262 170.497 106.505 170.092C106.589 169.926 106.634 169.743 106.634 169.557L106.747 168.208C106.769 167.916 106.874 167.543 107.166 167.53C107.459 167.516 107.605 167.905 107.853 168.081C108.184 168.313 108.681 168.081 108.863 167.731C109.014 167.352 109.024 166.931 108.89 166.545C108.689 165.777 108.328 165.061 107.831 164.443C107.333 163.825 106.71 163.319 106.003 162.96C105.511 162.762 105.04 162.517 104.596 162.229C104.145 161.836 103.771 161.363 103.493 160.833C100.933 156.619 98.3601 152.383 96.5536 147.796C96.1977 146.976 95.9573 146.111 95.8393 145.226C95.7511 144.324 95.8917 143.416 95.9496 142.512C96.0566 140.887 95.9057 139.255 95.5028 137.677C95.4148 137.263 95.2592 136.866 95.0423 136.502C94.2976 135.374 92.56 135.206 91.4568 135.984C91.0506 136.296 90.7138 136.69 90.4679 137.139C90.2219 137.589 90.0722 138.085 90.0282 138.595C89.9482 139.511 90.475 140.46 90.7425 141.312C91.5534 143.943 92.3679 146.572 93.1861 149.197Z" fill="#A1616A"/>
<path opacity="0.05" d="M93.1861 149.197C93.5198 150.267 93.8563 151.34 94.2728 152.38C95.0231 154.188 95.9673 155.909 97.0887 157.513C97.8117 158.569 98.5887 159.587 99.4165 160.563C100.453 161.785 101.623 163.015 101.976 164.576C102.188 165.478 102.117 166.418 102.205 167.334C102.293 168.25 102.594 169.231 103.341 169.783C103.873 170.177 104.555 170.296 105.208 170.398C105.677 170.472 106.262 170.497 106.505 170.092C106.589 169.926 106.634 169.743 106.634 169.557L106.747 168.208C106.769 167.916 106.874 167.543 107.166 167.53C107.459 167.516 107.605 167.905 107.853 168.081C108.184 168.313 108.681 168.081 108.863 167.731C109.014 167.352 109.024 166.931 108.89 166.545C108.689 165.777 108.328 165.061 107.831 164.443C107.333 163.825 106.71 163.319 106.003 162.96C105.511 162.762 105.04 162.517 104.596 162.229C104.145 161.836 103.771 161.363 103.493 160.833C100.933 156.619 98.3601 152.383 96.5536 147.796C96.1977 146.976 95.9573 146.111 95.8393 145.226C95.7511 144.324 95.8917 143.416 95.9496 142.512C96.0566 140.887 95.9057 139.255 95.5028 137.677C95.4148 137.263 95.2592 136.866 95.0423 136.502C94.2976 135.374 92.56 135.206 91.4568 135.984C91.0506 136.296 90.7138 136.69 90.4679 137.139C90.2219 137.589 90.0722 138.085 90.0282 138.595C89.9482 139.511 90.475 140.46 90.7425 141.312C91.5534 143.943 92.3679 146.572 93.1861 149.197Z" fill="black"/>
<path d="M77.1068 194.258C77.6058 194.431 78.1364 194.495 78.6623 194.445C78.701 194.015 79.2801 193.918 79.7104 193.94C79.9185 193.934 80.1248 193.981 80.3089 194.078C80.4164 194.147 80.4992 194.247 80.604 194.318C80.7909 194.421 81.0004 194.475 81.2135 194.476L83.453 194.663C84.4514 194.749 85.4912 194.826 86.4261 194.47C86.6124 194.411 86.7779 194.3 86.9033 194.15C87.157 193.786 86.9033 193.265 86.553 193C86.2027 192.735 85.7504 192.617 85.3974 192.346C84.6196 191.753 84.5121 190.645 84.1011 189.757C83.809 189.197 83.4487 188.675 83.0283 188.204C82.7237 187.799 82.3687 187.435 81.972 187.12C81.0728 186.472 80.0414 186.486 78.985 186.392C78.2404 186.326 77.5398 186.282 77.0048 186.943C76.3429 187.771 76.6076 189.426 76.649 190.391C76.7007 191.69 76.8537 192.983 77.1068 194.258Z" fill="#514E7F"/>
<path opacity="0.05" d="M77.1068 194.258C77.6058 194.431 78.1364 194.495 78.6623 194.445C78.701 194.015 79.2801 193.918 79.7104 193.94C79.9185 193.934 80.1248 193.981 80.3089 194.078C80.4164 194.147 80.4992 194.247 80.604 194.318C80.7909 194.421 81.0004 194.475 81.2135 194.476L83.453 194.663C84.4514 194.749 85.4912 194.826 86.4261 194.47C86.6124 194.411 86.7779 194.3 86.9033 194.15C87.157 193.786 86.9033 193.265 86.553 193C86.2027 192.735 85.7504 192.617 85.3974 192.346C84.6196 191.753 84.5121 190.645 84.1011 189.757C83.809 189.197 83.4487 188.675 83.0283 188.204C82.7237 187.799 82.3687 187.435 81.972 187.12C81.0728 186.472 80.0414 186.486 78.985 186.392C78.2404 186.326 77.5398 186.282 77.0048 186.943C76.3429 187.771 76.6076 189.426 76.649 190.391C76.7007 191.69 76.8537 192.983 77.1068 194.258Z" fill="black"/>
<path d="M78.0114 150.695C77.3274 150.916 77.0296 151.768 77.1564 152.477C77.2833 153.185 77.708 153.798 78.0583 154.427C79.0567 156.211 79.487 158.252 80.3254 160.114C80.9515 161.493 81.7982 162.789 82.416 164.184C83.0338 165.58 83.4171 167.155 83.0421 168.636C82.86 169.356 82.507 170.015 82.2726 170.724C82.0405 171.492 81.8889 172.282 81.8203 173.082C81.5165 175.798 81.4621 178.536 81.6575 181.262C81.6592 181.594 81.7287 181.923 81.8616 182.227C82.0023 182.503 82.245 182.779 82.1374 183.055C82.0905 183.168 81.9885 183.25 81.9388 183.361C81.7954 183.67 82.0823 183.998 82.3443 184.219C82.2975 184.301 82.2346 184.374 82.1593 184.432C82.084 184.491 81.9978 184.533 81.9058 184.558C82.0937 184.677 82.2381 184.854 82.3176 185.063C82.397 185.271 82.4074 185.499 82.347 185.713C82.1154 185.749 82.1016 186.105 82.2477 186.293C82.3939 186.48 82.6256 186.596 82.7304 186.808C82.7921 186.981 82.7854 187.171 82.7115 187.339C82.6377 187.508 82.5024 187.641 82.3332 187.713C81.9887 187.846 81.6128 187.874 81.2521 187.796C80.6405 187.71 80.0365 187.578 79.4456 187.398C79.1367 187.338 78.8601 187.168 78.6665 186.919C78.473 186.671 78.3755 186.361 78.392 186.047C78.2555 184.925 78.2139 183.792 78.2679 182.663C78.3645 177.191 78.2679 171.714 78.0307 166.245C77.9342 164.038 77.2723 161.901 76.4201 159.871C75.949 158.834 75.4252 157.821 74.8507 156.837C73.6207 154.586 72.534 152.093 72.8153 149.542C72.8457 149.266 72.945 148.938 73.218 148.894C73.3247 148.883 73.4325 148.901 73.5297 148.946C74.0962 149.211 74.6445 149.513 75.1707 149.851C76.0354 150.358 77.0102 150.648 78.0114 150.695Z" fill="#464353"/>
<path opacity="0.05" d="M78.0114 150.695C77.3274 150.916 77.0296 151.768 77.1564 152.477C77.2833 153.185 77.708 153.798 78.0583 154.427C79.0567 156.211 79.487 158.252 80.3254 160.114C80.9515 161.493 81.7982 162.789 82.416 164.184C83.0338 165.58 83.4171 167.155 83.0421 168.636C82.86 169.356 82.507 170.015 82.2726 170.724C82.0405 171.492 81.8889 172.282 81.8203 173.082C81.5165 175.798 81.4621 178.536 81.6575 181.262C81.6592 181.594 81.7287 181.923 81.8616 182.227C82.0023 182.503 82.245 182.779 82.1374 183.055C82.0905 183.168 81.9885 183.25 81.9388 183.361C81.7954 183.67 82.0823 183.998 82.3443 184.219C82.2975 184.301 82.2346 184.374 82.1593 184.432C82.084 184.491 81.9978 184.533 81.9058 184.558C82.0937 184.677 82.2381 184.854 82.3176 185.063C82.397 185.271 82.4074 185.499 82.347 185.713C82.1154 185.749 82.1016 186.105 82.2477 186.293C82.3939 186.48 82.6256 186.596 82.7304 186.808C82.7921 186.981 82.7854 187.171 82.7115 187.339C82.6377 187.508 82.5024 187.641 82.3332 187.713C81.9887 187.846 81.6128 187.874 81.2521 187.796C80.6405 187.71 80.0365 187.578 79.4456 187.398C79.1367 187.338 78.8601 187.168 78.6665 186.919C78.473 186.671 78.3755 186.361 78.392 186.047C78.2555 184.925 78.2139 183.792 78.2679 182.663C78.3645 177.191 78.2679 171.714 78.0307 166.245C77.9342 164.038 77.2723 161.901 76.4201 159.871C75.949 158.834 75.4252 157.821 74.8507 156.837C73.6207 154.586 72.534 152.093 72.8153 149.542C72.8457 149.266 72.945 148.938 73.218 148.894C73.3247 148.883 73.4325 148.901 73.5297 148.946C74.0962 149.211 74.6445 149.513 75.1707 149.851C76.0354 150.358 77.0102 150.648 78.0114 150.695Z" fill="black"/>
<path d="M68.7642 144.043C68.4076 143.814 67.9962 143.685 67.5728 143.668C67.0818 143.693 66.6626 144.015 66.2792 144.324C65.825 144.673 65.3938 145.051 64.9885 145.455C64.1491 146.35 63.5643 147.453 63.2946 148.65C63.025 149.847 63.0804 151.094 63.455 152.262C63.8605 153.478 64.6024 154.551 65.336 155.602L66.8253 157.742C69.0979 161.005 71.3705 164.268 73.7507 167.453C73.7512 167.531 73.7766 167.608 73.8232 167.67C73.8698 167.733 73.9352 167.78 74.01 167.803C74.0955 167.825 74.203 167.823 74.2554 167.894C74.2797 167.939 74.2902 167.99 74.2858 168.041C74.2805 168.276 74.2357 168.509 74.1534 168.73C74.1147 168.803 74.1049 168.887 74.1258 168.967C74.203 169.146 74.5285 169.044 74.6333 169.213C74.7022 169.323 74.6167 169.466 74.5257 169.56C74.4347 169.654 74.3216 169.759 74.3382 169.888C74.3547 170.018 74.5809 170.164 74.5726 170.324C74.5726 170.418 74.4899 170.49 74.4319 170.564C74.3509 170.683 74.3139 170.826 74.3275 170.969C74.3411 171.112 74.4044 171.246 74.5064 171.347C74.6636 172.903 73.8169 174.381 73.6487 175.931C73.3729 178.38 74.4899 180.772 74.625 183.229C74.6169 183.505 74.6696 183.78 74.7795 184.034C75.0084 184.459 75.6069 184.715 75.5765 185.198C75.5332 185.396 75.477 185.592 75.4083 185.783C75.3614 186.059 75.4938 186.334 75.4993 186.61C75.5048 186.886 75.2593 187.225 75.0001 187.115C75.195 187.766 75.3688 188.422 75.5214 189.084L80.734 189.514C80.7902 189.046 80.7744 188.572 80.6871 188.108C80.5796 187.603 80.3534 187.134 80.2348 186.635C80.1577 186.389 80.136 186.13 80.1713 185.874C80.2066 185.619 80.298 185.375 80.4389 185.16C80.303 185.161 80.171 185.115 80.066 185.028C79.961 184.942 79.8899 184.821 79.8652 184.688C79.8216 184.419 79.8263 184.144 79.879 183.877C80.0169 182.517 79.446 181.177 79.4626 179.812C79.4791 178.736 79.857 177.702 80.0473 176.646C80.4555 174.384 80.0307 171.932 81.0374 169.866C81.6469 168.622 82.4909 167.243 81.8069 166.038C81.4704 165.442 80.8747 165.034 80.4858 164.472C80.1688 163.94 79.9309 163.365 79.7797 162.764C78.9772 160.282 77.6781 157.977 76.5391 155.616C76.2229 155.024 75.9882 154.392 75.8413 153.737C75.7608 153.163 75.7313 152.582 75.753 152.003C75.753 150.962 75.6895 149.922 75.5627 148.889C75.537 148.436 75.4077 147.996 75.1849 147.601C74.9598 147.302 74.6788 147.05 74.3575 146.859C72.6475 145.687 70.6121 145.017 68.7642 144.043Z" fill="#464353"/>
<path d="M75.0107 196.169C75.5112 196.34 76.0424 196.403 76.569 196.354C76.6076 195.924 77.1841 195.827 77.6143 195.849C77.8224 195.842 78.0287 195.89 78.2128 195.987C78.3204 196.056 78.4031 196.158 78.5107 196.227C78.697 196.331 78.9069 196.385 79.1202 196.384L81.3569 196.572C82.3581 196.657 83.3951 196.737 84.3328 196.379C84.5188 196.321 84.6837 196.21 84.8072 196.059C85.0609 195.695 84.8072 195.176 84.4569 194.912C84.1067 194.647 83.6544 194.525 83.3041 194.255C82.5236 193.662 82.4188 192.556 82.0051 191.668C81.7156 191.106 81.356 190.584 80.935 190.113C80.6293 189.709 80.2734 189.345 79.8759 189.031C78.9795 188.381 77.9453 188.394 76.8917 188.301C76.1443 188.234 75.4438 188.193 74.9115 188.852C74.2495 189.68 74.5143 191.334 74.5529 192.302C74.6047 193.601 74.7578 194.894 75.0107 196.169Z" fill="#514E7F"/>
<path d="M98.1147 135.015C100.966 135.015 103.278 132.704 103.278 129.852C103.278 127.001 100.966 124.689 98.1147 124.689C95.2632 124.689 92.9517 127.001 92.9517 129.852C92.9517 132.704 95.2632 135.015 98.1147 135.015Z" fill="#A1616A"/>
<path d="M93.2441 131.386C92.5049 132.023 91.4431 132.07 90.4723 132.169C88.3963 132.383 86.3757 132.968 84.5067 133.896C84.248 134.007 84.0137 134.169 83.8172 134.37C83.6494 134.589 83.53 134.841 83.4669 135.109C83.2893 135.69 83.2229 136.299 83.2711 136.905C83.3387 137.492 83.5076 138.063 83.7703 138.593C84.4868 140.076 85.5926 141.337 86.9696 142.242C87.2122 142.422 87.4876 142.554 87.7804 142.631C88.4589 142.771 89.1153 142.38 89.7855 142.203C90.3951 142.044 91.0377 142.064 91.6362 142.261C92.1878 142.449 92.7918 142.791 93.3379 142.562C93.6873 142.366 93.959 142.057 94.1073 141.685C94.6348 140.688 95.1053 139.662 95.5167 138.612C95.6645 138.202 95.8348 137.801 96.0269 137.41C96.6254 136.271 97.6597 135.391 98.1754 134.208C98.2278 134.117 98.2594 134.017 98.268 133.913C98.2766 133.809 98.2619 133.704 98.2251 133.606C98.1295 133.474 97.9971 133.374 97.8445 133.317C97.0818 132.88 96.3869 132.335 95.7815 131.698C95.4422 131.372 94.8189 130.493 94.3307 130.415C93.7819 130.322 93.6164 131.066 93.2441 131.386Z" fill="#A1616A"/>
<path d="M93.3656 141.878C92.7671 142.154 92.0611 142.035 91.413 141.9C89.7416 141.55 88.051 141.197 86.5037 140.474C86.0203 140.289 85.6014 139.967 85.2985 139.547C85.1102 139.188 84.9958 138.795 84.962 138.392L84.6862 136.461C84.5869 135.791 84.7579 135.17 84.7744 134.492C84.785 134.417 84.7804 134.34 84.761 134.267C84.7416 134.193 84.7077 134.124 84.6614 134.064C84.567 133.985 84.445 133.946 84.3221 133.957C83.5471 133.971 83.0783 134.784 82.5349 135.336C82.2209 135.654 81.8456 135.906 81.4317 136.075C80.9353 136.279 80.3285 136.422 80.1217 136.919C80.0389 137.126 80.05 137.36 79.9617 137.567C79.6142 138.394 78.1332 138.119 77.7553 138.946C77.6477 139.178 77.656 139.467 77.4795 139.649C77.303 139.831 76.972 139.829 76.699 139.873C75.6206 140.049 75.0993 141.293 74.1782 141.881C73.4032 142.377 72.4048 142.366 71.5691 142.752C71.1057 142.967 70.6948 143.304 70.2039 143.444C69.713 143.585 69.1586 143.511 68.6318 143.524C68.5756 143.519 68.519 143.525 68.4654 143.543C68.4117 143.56 68.3623 143.589 68.3202 143.626C68.2874 143.676 68.2658 143.733 68.2568 143.792C68.2477 143.851 68.2515 143.911 68.2678 143.968C68.5232 145.599 69.199 147.135 70.2286 148.426C71.2582 149.716 72.6061 150.716 74.1396 151.327C74.3176 151.383 74.4866 151.465 74.6415 151.569C75.1104 151.92 75.1931 152.673 75.7254 152.921C75.9175 152.988 76.1246 153.002 76.3237 152.959C76.5228 152.916 76.7061 152.819 76.8534 152.678C77.1471 152.395 77.4234 152.095 77.6808 151.779C78.1669 151.271 78.8048 150.935 79.4984 150.822C80.1382 150.72 80.8525 150.794 81.3711 150.4C81.5831 150.205 81.7804 149.995 81.9613 149.771C82.3454 149.413 82.8014 149.14 83.2989 148.971C84.6583 148.434 86.0951 148.119 87.5545 148.036C88.9142 147.962 90.3125 148.086 91.5977 147.645C91.9315 147.541 92.239 147.367 92.4996 147.135C92.776 146.836 92.9815 146.478 93.1009 146.089C93.5645 144.734 93.656 143.28 93.3656 141.878Z" fill="#1890FF"/>
<path d="M86.7103 134.268C87.0909 134.232 87.4743 134.268 87.8576 134.268C88.3072 134.268 88.7513 134.158 89.2008 134.155C89.9127 134.167 90.6023 134.406 91.1689 134.837C91.7355 135.268 92.1495 135.869 92.3505 136.552C92.3883 136.661 92.395 136.779 92.3698 136.891C92.3549 136.947 92.3206 136.995 92.273 137.028C92.2254 137.06 92.1677 137.074 92.1105 137.068C91.9613 136.66 91.766 136.27 91.5286 135.907C91.1011 135.323 90.4918 134.898 89.7965 134.699C89.1033 134.502 88.373 134.476 87.6673 134.621C87.3722 134.677 87.0854 134.754 86.7986 134.834L85.4196 135.214C85.1658 135.283 84.9093 135.352 84.6639 135.443C84.4736 135.515 84.1481 135.777 83.9606 135.788C83.7068 135.788 83.9109 135.567 84.024 135.418C84.2492 135.111 84.5644 134.882 84.9259 134.762C85.499 134.527 86.098 134.362 86.7103 134.268Z" fill="#1890FF"/>
<path d="M90.1909 149.777C90.5247 150.847 90.8584 151.92 91.2776 152.96C92.0269 154.768 92.9711 156.489 94.0935 158.092C94.8165 159.148 95.5935 160.167 96.4213 161.143C97.4556 162.364 98.6112 163.595 98.9807 165.153C99.1931 166.057 99.1214 166.998 99.2096 167.911C99.2979 168.824 99.5985 169.808 100.343 170.36C100.878 170.752 101.559 170.87 102.213 170.975C102.679 171.049 103.264 171.074 103.509 170.669C103.593 170.503 103.637 170.32 103.639 170.134L103.749 168.785C103.774 168.493 103.879 168.12 104.169 168.107C104.458 168.093 104.61 168.482 104.858 168.658C105.189 168.89 105.685 168.658 105.867 168.308C106.017 167.929 106.027 167.508 105.895 167.122C105.693 166.355 105.332 165.639 104.834 165.021C104.337 164.403 103.714 163.897 103.007 163.537C102.516 163.338 102.044 163.093 101.598 162.806C101.146 162.413 100.772 161.939 100.495 161.407C97.9327 157.196 95.3595 152.96 93.5557 148.37C93.1999 147.551 92.9586 146.687 92.8386 145.803C92.7531 144.901 92.891 143.993 92.9517 143.089C93.0586 141.464 92.9078 139.832 92.5049 138.254C92.417 137.839 92.2604 137.442 92.0416 137.079C91.2997 135.948 89.5594 135.783 88.4561 136.561C88.0495 136.873 87.7123 137.266 87.4659 137.716C87.2195 138.166 87.0693 138.662 87.0247 139.172C86.9448 140.088 87.4743 141.037 87.7391 141.889C88.5536 144.522 89.3709 147.151 90.1909 149.777Z" fill="#A1616A"/>
<path d="M105.625 126.201C105.666 125.771 105.28 125.374 104.842 125.098C104.38 124.861 103.936 124.59 103.515 124.287C103.123 123.948 102.908 123.506 102.517 123.167C102.071 122.828 101.566 122.576 101.027 122.425C99.8813 122.023 98.6782 121.808 97.4639 121.788C96.2366 121.788 94.9817 122.064 94.0578 122.69C93.8298 122.833 93.6329 123.021 93.4786 123.242C93.3329 123.506 93.2393 123.797 93.2028 124.097C92.9827 125.022 92.6846 125.927 92.312 126.802C91.9286 127.776 91.5204 128.785 90.6186 129.538C89.6532 130.341 88.1777 130.804 87.5406 131.775C87.4702 131.861 87.4208 131.963 87.3963 132.071C87.3719 132.18 87.3732 132.293 87.4 132.401C87.491 132.646 87.7833 132.815 88.0536 132.969C89.6202 133.868 90.9716 135.035 91.6666 136.428C92.3616 137.82 92.3423 139.461 91.3522 140.744C90.9881 141.218 90.4862 141.781 90.8419 142.258C91.3936 142.983 93.2387 142.567 93.6689 143.334C93.8041 143.579 93.7241 143.858 93.7241 144.125C93.7241 144.931 94.4991 145.645 95.4396 146.017C96.38 146.39 97.4694 146.478 98.5285 146.525C98.8097 145.893 98.8373 145.177 98.6057 144.525C98.5352 144.385 98.5074 144.226 98.5258 144.07C98.6047 143.897 98.7273 143.746 98.8816 143.634C100.012 142.564 99.7724 140.992 99.0939 139.721C98.4155 138.449 97.3564 137.288 96.962 135.95C96.7662 135.286 96.7662 134.538 97.2929 133.987C97.5953 133.721 97.9212 133.484 98.2665 133.278C98.8835 132.859 99.3586 132.263 99.629 131.568C99.9461 130.688 99.9048 129.637 100.826 129.044C101.711 128.493 102.955 128.653 103.934 128.275C104.687 127.977 105.564 126.832 105.625 126.201Z" fill="#464353"/>
<path d="M159.103 169.417C154.897 167.677 153.661 166.419 153.661 163.901C153.661 161.97 154.511 159.742 158.234 159.742C160.292 159.712 162.314 160.287 164.048 161.397L165.259 158.195C163.855 157.367 161.875 156.598 158.973 156.501V151.812H156.527V156.694C152.078 157.42 149.502 160.464 149.502 164.477C149.502 168.683 151.984 170.909 156.927 172.842C160.507 174.301 162.379 175.945 162.379 178.604C162.379 181.362 160.06 183.342 156.626 183.342C153.92 183.342 150.854 182.424 149.113 181.263L147.952 184.5C149.646 185.711 152.547 186.58 155.349 186.63V191.511H159.511V186.483C164.475 185.656 167.148 182.071 167.148 178.265C167.148 173.962 164.084 171.447 159.103 169.417Z" fill="url(#paint1_linear_1762_87063)"/>
<path d="M155.36 190.407V185.526C152.558 185.476 149.656 184.607 147.963 183.396L149.124 180.159C150.864 181.32 153.931 182.238 156.637 182.238C160.071 182.238 162.379 180.258 162.379 177.5C162.379 174.841 160.495 173.197 156.915 171.747C151.984 169.816 149.491 167.588 149.491 163.382C149.491 159.369 152.067 156.324 156.515 155.598V150.717H158.962V155.405C161.863 155.502 163.844 156.274 165.247 157.099L164.037 160.287C162.303 159.178 160.281 158.602 158.223 158.632C154.499 158.632 153.65 160.858 153.65 162.791C153.65 165.304 154.886 166.562 159.091 168.307C164.072 170.337 167.137 172.853 167.137 177.155C167.137 180.975 164.478 184.552 159.5 185.374V190.407H155.36Z" fill="#1890FF"/>
</g>
<defs>
<linearGradient id="paint0_linear_1762_87063" x1="82.9209" y1="117.232" x2="82.9209" y2="64.5818" gradientUnits="userSpaceOnUse">
<stop stop-color="#808080" stop-opacity="0.25"/>
<stop offset="0.54" stop-color="#808080" stop-opacity="0.12"/>
<stop offset="1" stop-color="#808080" stop-opacity="0.1"/>
</linearGradient>
<linearGradient id="paint1_linear_1762_87063" x1="10758" y1="28331.6" x2="12093.3" y2="28331.6" gradientUnits="userSpaceOnUse">
<stop stop-color="#808080" stop-opacity="0.25"/>
<stop offset="0.54" stop-color="#808080" stop-opacity="0.12"/>
<stop offset="1" stop-color="#808080" stop-opacity="0.1"/>
</linearGradient>
<clipPath id="clip0_1762_87063">
<rect width="324.844" height="200" fill="white" transform="translate(-1.42188)"/>
</clipPath>
</defs>
</svg>
