<svg width="250" height="200" viewBox="0 0 250 200" fill="none" xmlns="http://www.w3.org/2000/svg">
<g clip-path="url(#clip0_1762_86270)">
<path d="M126.474 200C194.21 200 249.12 195.71 249.12 190.419C249.12 185.127 194.21 180.837 126.474 180.837C58.7388 180.837 3.82837 185.127 3.82837 190.419C3.82837 195.71 58.7388 200 126.474 200Z" fill="#3F3D56"/>
<path d="M230.655 172.618L231.805 181.048L223.758 181.814L224.908 171.469L230.655 172.618Z" fill="#A0616A"/>
<path d="M192.721 56.9004C192.721 56.9004 193.487 67.246 193.487 67.6291C193.487 68.0123 188.123 94.4511 188.123 94.4511C188.123 94.4511 180.46 109.012 188.123 108.628C195.786 108.245 193.487 94.8342 193.487 94.8342L201.534 72.6104L198.085 56.9004L192.721 56.9004Z" fill="#A0616A"/>
<path d="M205.366 172.618L204.216 181.048L212.263 181.814L211.113 171.469L205.366 172.618Z" fill="#A0616A"/>
<path d="M196.552 93.6854L194.637 96.3676C194.637 96.3676 193.487 107.863 194.637 111.694C195.786 115.526 198.085 133.152 198.085 134.301C198.085 135.451 198.468 136.217 198.085 136.6C197.702 136.984 196.552 136.984 197.319 137.75C198.085 138.516 198.085 140.815 198.085 140.815V142.731L203.066 171.086C203.066 171.086 200.001 174.534 202.3 174.534C204.599 174.534 213.029 174.534 212.646 170.703L211.879 170.319C211.879 170.319 210.73 145.03 211.113 143.881C211.496 142.731 211.113 140.432 211.113 140.432C211.113 140.432 210.347 139.283 211.113 138.899C211.879 138.516 211.879 135.451 211.879 135.451L215.328 112.078C215.328 112.078 218.393 127.788 220.309 129.32C222.225 130.853 221.842 134.685 221.842 134.685L223.374 168.404C223.374 168.404 221.842 172.235 223.374 173.002C224.907 173.768 231.421 176.45 231.804 172.618C232.187 168.787 234.103 135.451 234.103 133.918C234.103 132.386 233.72 131.619 234.103 130.47C234.486 129.32 233.72 129.32 234.103 129.32C234.486 129.32 233.337 128.171 233.337 127.404V108.629C233.337 108.629 233.72 104.797 234.103 104.031C234.486 103.265 233.72 102.498 234.103 101.349C234.486 100.199 233.337 96.3676 233.337 96.3676L216.094 91.7695L196.552 93.6854Z" fill="#2F2E41"/>
<path d="M209.964 179.515C209.964 179.515 211.879 177.6 209.197 177.6C207.475 177.635 205.779 178.026 204.216 178.749L202.3 185.646C202.3 185.646 194.445 191.968 203.258 191.202C212.071 190.436 210.73 191.011 210.73 191.011C210.73 191.011 213.412 190.244 213.795 189.478C214.178 188.712 213.029 177.6 213.029 177.6C213.029 177.6 211.879 180.665 209.964 179.515Z" fill="#2F2E41"/>
<path d="M226.44 179.515C226.44 179.515 224.524 177.6 227.206 177.6C228.928 177.635 230.624 178.026 232.188 178.749L234.103 185.646C234.103 185.646 241.958 191.968 233.146 191.202C224.333 190.436 224.524 191.011 224.524 191.011C224.524 191.011 221.842 190.244 221.459 189.478C221.076 188.712 223.375 177.6 223.375 177.6C223.375 177.6 224.524 180.665 226.44 179.515Z" fill="#2F2E41"/>
<path d="M201.534 26.6299C207.036 26.6299 211.496 22.1696 211.496 16.6675C211.496 11.1654 207.036 6.70508 201.534 6.70508C196.032 6.70508 191.572 11.1654 191.572 16.6675C191.572 22.1696 196.032 26.6299 201.534 26.6299Z" fill="#A0616A"/>
<path d="M198.085 23.9479C198.085 23.9479 199.618 31.6113 199.618 32.7608C199.618 33.9103 206.132 37.3588 206.132 37.3588L213.412 28.1628C213.412 28.1628 208.814 21.6489 208.814 20.1162L198.085 23.9479Z" fill="#A0616A"/>
<path d="M203.833 33.9107C203.833 33.9107 200.493 33.0218 199.481 31.5504C199.481 31.5504 188.889 41.9573 188.889 43.8731L197.319 58.8168C197.319 58.8168 197.319 64.1811 198.085 64.5643C198.852 64.9475 198.085 64.5643 198.085 66.097C198.085 67.6297 195.786 77.5921 196.553 79.1248C197.319 80.6575 198.085 79.5079 197.319 81.807C196.553 84.106 194.637 96.3674 194.637 96.3674C194.637 96.3674 201.534 94.0684 211.496 97.9001C221.459 101.732 233.337 96.3674 233.337 96.3674C233.337 96.3674 230.272 89.4704 231.038 87.1714C231.804 84.8723 229.122 80.6575 229.122 80.6575L227.206 45.4058C227.206 45.4058 229.889 29.6958 227.973 28.9295L224.141 27.3968L211.87 25.8887C211.87 25.8887 208.814 33.5275 203.833 33.9107Z" fill="#D0CDE1"/>
<path d="M192.721 41.1904L188.889 43.8726C188.889 43.8726 186.973 49.6202 188.889 52.3024C190.805 54.9846 191.572 58.8163 191.572 58.8163L199.235 58.0499L192.721 41.1904Z" fill="#D0CDE1"/>
<path d="M193.928 6.13932L192.199 5.44749C192.199 5.44749 195.813 1.46946 200.84 1.81538L199.426 0.258738C199.426 0.258738 202.882 -1.12491 206.024 2.50719C207.676 4.41651 209.587 6.66082 210.778 9.189H212.629L211.857 10.8898L214.56 12.5905L211.785 12.285C212.048 13.7533 211.958 15.2631 211.523 16.6898L211.597 18.034C211.597 18.034 208.381 13.0576 208.381 12.3658V14.0954C208.381 14.0954 206.653 12.5388 206.653 11.501L205.71 12.7117L205.239 10.8092L199.426 12.7117L200.369 11.1551L196.755 11.674L198.169 9.77144C198.169 9.77144 194.085 12.0199 193.928 13.9225C193.771 15.825 191.728 18.2464 191.728 18.2464L190.786 16.5168C190.786 16.5168 189.372 8.73368 193.928 6.13932Z" fill="#2F2E41"/>
<path d="M196.238 83.3848H43.974V190.346H196.238V83.3848Z" fill="#F2F2F2"/>
<path d="M95.0236 124.195H56.7917V190.935H95.0236V124.195Z" fill="#3F3D56"/>
<path d="M74.1621 128.199H63.8635V137.8H74.1621V128.199Z" fill="#F2F2F2"/>
<path d="M87.9516 128.199H77.653V137.8H87.9516V128.199Z" fill="#F2F2F2"/>
<path d="M74.1621 141.291H63.8635V151.24H74.1621V141.291Z" fill="#F2F2F2"/>
<path d="M87.9516 141.291H77.653V151.24H87.9516V141.291Z" fill="#F2F2F2"/>
<path d="M90.1615 164.49C91.5041 164.49 92.5924 163.401 92.5924 162.059C92.5924 160.716 91.5041 159.628 90.1615 159.628C88.819 159.628 87.7306 160.716 87.7306 162.059C87.7306 163.401 88.819 164.49 90.1615 164.49Z" fill="#1890FF"/>
<path d="M183.421 117.86H107.841V181.285H183.421V117.86Z" fill="#3F3D56"/>
<path d="M212.15 103.522H28.0627L40.3368 77.8598L43.0836 72.114L46.6772 64.6002L49.424 58.8544L52.6084 52.1982H197.646L199.527 58.8544L201.151 64.6002L203.275 72.114L204.899 77.8598L212.15 103.522Z" fill="#3F3D56"/>
<path d="M113.145 144.158H110.493V160.512H113.145V144.158Z" fill="#1890FF"/>
<path d="M113.145 146.589H110.493V148.578H113.145V146.589Z" fill="#F2F2F2"/>
<path d="M113.145 156.092H110.493V158.081H113.145V156.092Z" fill="#F2F2F2"/>
<path d="M120.88 144.158H114.471V160.512H120.88V144.158Z" fill="#1890FF"/>
<path d="M120.88 146.589H114.471V148.578H120.88V146.589Z" fill="#F2F2F2"/>
<path d="M120.88 156.092H114.471V158.081H120.88V156.092Z" fill="#F2F2F2"/>
<path d="M125.078 144.158H122.427V160.512H125.078V144.158Z" fill="#1890FF"/>
<path d="M125.078 146.589H122.427V148.578H125.078V146.589Z" fill="#F2F2F2"/>
<path d="M125.078 156.092H122.427V158.081H125.078V156.092Z" fill="#F2F2F2"/>
<path d="M129.056 144.158H126.404V160.512H129.056V144.158Z" fill="#1890FF"/>
<path d="M129.056 146.589H126.404V148.578H129.056V146.589Z" fill="#F2F2F2"/>
<path d="M129.056 156.092H126.404V158.081H129.056V156.092Z" fill="#F2F2F2"/>
<path d="M131.612 144.216L129.13 145.151L134.898 160.454L137.38 159.518L131.612 144.216Z" fill="#1890FF"/>
<path d="M132.47 146.49L129.988 147.426L130.69 149.287L133.171 148.351L132.47 146.49Z" fill="#F2F2F2"/>
<path d="M135.821 155.383L133.34 156.318L134.041 158.179L136.523 157.244L135.821 155.383Z" fill="#F2F2F2"/>
<path d="M180.99 144.158H174.581V160.512H180.99V144.158Z" fill="#1890FF"/>
<path d="M180.99 146.589H174.581V148.578H180.99V146.589Z" fill="#F2F2F2"/>
<path d="M180.99 156.092H174.581V158.081H180.99V156.092Z" fill="#F2F2F2"/>
<path d="M173.034 144.158H170.382V160.512H173.034V144.158Z" fill="#1890FF"/>
<path d="M173.034 146.589H170.382V148.578H173.034V146.589Z" fill="#F2F2F2"/>
<path d="M173.034 156.092H170.382V158.081H173.034V156.092Z" fill="#F2F2F2"/>
<path d="M169.056 144.158H166.404V160.512H169.056V144.158Z" fill="#1890FF"/>
<path d="M169.056 146.589H166.404V148.578H169.056V146.589Z" fill="#F2F2F2"/>
<path d="M169.056 156.092H166.404V158.081H169.056V156.092Z" fill="#F2F2F2"/>
<path d="M163.849 144.216L158.08 159.519L160.562 160.454L166.33 145.152L163.849 144.216Z" fill="#1890FF"/>
<path d="M162.991 146.49L162.29 148.352L164.771 149.287L165.473 147.426L162.991 146.49Z" fill="#F2F2F2"/>
<path d="M159.639 155.383L158.938 157.244L161.419 158.18L162.121 156.318L159.639 155.383Z" fill="#F2F2F2"/>
<path d="M183.421 160.512H107.841V162.059H183.421V160.512Z" fill="#F2F2F2"/>
<path d="M154.691 144.158H140.769V160.512H154.691V144.158Z" fill="#1890FF"/>
<path d="M151.266 147.694H144.195V150.788H151.266V147.694Z" fill="#F2F2F2"/>
<path d="M146.294 117.86H144.968V132.004H146.294V117.86Z" fill="#F2F2F2"/>
<path d="M145.631 134.214C146.852 134.214 147.841 133.224 147.841 132.004C147.841 130.783 146.852 129.794 145.631 129.794C144.411 129.794 143.421 130.783 143.421 132.004C143.421 133.224 144.411 134.214 145.631 134.214Z" fill="#F2F2F2"/>
<path d="M201.151 64.6003H46.677L49.4239 58.8545H199.527L201.151 64.6003Z" fill="#1890FF"/>
<path d="M204.899 77.86H40.3362L43.083 72.1143H203.275L204.899 77.86Z" fill="#1890FF"/>
<path d="M221.076 44.6396C221.076 44.6396 218.857 50.3453 219.32 55.9906C219.405 57.0013 219.745 57.9739 220.309 58.8169L193.125 71.7225C193.125 71.7225 180.843 72.9942 183.908 78.3586C186.973 83.723 198.085 75.6764 198.085 75.6764C198.085 75.6764 227.206 71.4615 229.505 67.2467C231.804 63.0318 233.337 45.406 233.337 45.406L221.076 44.6396Z" fill="#A0616A"/>
<path d="M222.225 28.9297H227.972C227.972 28.9297 232.187 29.696 233.337 37.3594C234.486 45.0228 235.636 46.9387 234.486 46.9387C233.337 46.9387 219.543 46.5555 219.543 46.1723C219.543 45.7892 222.225 28.9297 222.225 28.9297Z" fill="#D0CDE1"/>
<path d="M30.3623 143.394C46.6448 143.394 59.8445 130.194 59.8445 113.912C59.8445 97.6293 46.6448 84.4297 30.3623 84.4297C14.0797 84.4297 0.880127 97.6293 0.880127 113.912C0.880127 130.194 14.0797 143.394 30.3623 143.394Z" fill="#1890FF"/>
<path opacity="0.1" d="M30.3622 139.267C44.3652 139.267 55.7169 127.915 55.7169 113.912C55.7169 99.9093 44.3652 88.5576 30.3622 88.5576C16.3592 88.5576 5.00757 99.9093 5.00757 113.912C5.00757 127.915 16.3592 139.267 30.3622 139.267Z" fill="black"/>
<path d="M29.1477 128.873V125.183C27.2823 125.147 25.3524 124.489 24.2268 123.575L24.9987 121.128C26.3363 122.13 27.9586 122.68 29.6301 122.698C31.9138 122.698 33.4576 121.2 33.4576 119.118C33.4576 117.108 32.2032 115.866 29.8231 114.77C26.5425 113.308 24.5162 111.628 24.5162 108.449C24.5162 105.416 26.4139 103.114 29.3729 102.566V98.876H31.367V102.42C32.8539 102.44 34.3043 102.884 35.5482 103.699L34.744 106.11C33.551 105.294 32.1373 104.86 30.6915 104.868C28.2151 104.868 27.2823 106.549 27.2823 108.01C27.2823 109.91 28.4723 110.86 31.2705 112.176C34.5832 113.71 36.2558 115.61 36.2558 118.862C36.2558 121.748 34.4868 124.452 31.1739 125.073V128.873H29.1477Z" fill="#F2F2F2"/>
</g>
<defs>
<clipPath id="clip0_1762_86270">
<rect width="248.24" height="200" fill="white" transform="translate(0.880127)"/>
</clipPath>
</defs>
</svg>
