<svg width="260" height="174" viewBox="0 0 260 174" fill="none" xmlns="http://www.w3.org/2000/svg">
<g clip-path="url(#clip0_1858_66496)">
<path d="M174.239 30.3142C179.816 15.3177 192.995 2.3597 208.92 0.818359C199.346 15.3468 195.219 32.7937 197.269 50.0721C198.084 56.7328 199.684 64.0563 196.094 69.7253C193.86 73.2527 189.922 75.4242 185.864 76.4042C181.805 77.3842 177.576 77.3083 173.401 77.2267L172.466 77.6882C169.53 61.9598 168.661 45.3107 174.239 30.3142Z" fill="#F0F0F0"/>
<path d="M208.998 1.14583C198.141 8.73044 189.95 19.543 185.589 32.0478C184.67 34.7325 183.973 37.5358 183.932 40.3866C183.915 43.1657 184.641 45.8989 186.037 48.3022C187.293 50.5692 188.841 52.7426 189.524 55.2755C190.245 57.9453 189.657 60.6462 188.186 62.9528C186.386 65.7751 183.679 67.7821 180.963 69.6529C177.948 71.7299 174.784 73.8396 172.939 77.1026C172.715 77.4979 172.115 77.128 172.338 76.7332C175.548 71.0562 182.284 68.9941 186.404 64.1719C188.327 61.9218 189.584 59.0786 188.989 56.0824C188.469 53.4624 186.875 51.2198 185.583 48.9354C184.227 46.5368 183.341 44.0475 183.237 41.2723C183.132 38.4335 183.721 35.597 184.567 32.9006C186.529 26.8005 189.439 21.047 193.189 15.8507C197.436 9.89659 202.67 4.71281 208.665 0.523685C209.036 0.264555 209.366 0.888365 208.998 1.1458V1.14583Z" fill="white"/>
<path d="M186.756 27.9382C184.757 26.9216 183.185 25.2276 182.32 23.1588C181.455 21.09 181.354 18.7811 182.034 16.6444C182.173 16.2125 182.851 16.4084 182.711 16.8409C182.074 18.8294 182.169 20.9802 182.978 22.905C183.788 24.8298 185.259 26.4019 187.125 27.3374C187.531 27.5412 187.159 28.1408 186.756 27.9382Z" fill="white"/>
<path d="M185.249 47.2364C189.62 45.8559 193.31 42.8786 195.583 38.8982C195.808 38.5037 196.408 38.8735 196.184 39.2676C193.81 43.4052 189.964 46.4957 185.412 47.9223C184.978 48.058 184.817 47.3713 185.249 47.2364V47.2364Z" fill="white"/>
<path d="M197.919 10.6971C198.61 11.2515 199.428 11.6256 200.3 11.7857C201.172 11.9458 202.07 11.8869 202.913 11.6143C203.345 11.4732 203.506 12.16 203.077 12.3002C202.143 12.5971 201.152 12.661 200.188 12.4862C199.225 12.3115 198.319 11.9035 197.549 11.2978C197.472 11.2468 197.417 11.1683 197.396 11.0782C197.374 10.9881 197.388 10.8932 197.434 10.8128C197.483 10.7335 197.562 10.6768 197.653 10.6552C197.743 10.6335 197.839 10.6486 197.919 10.6971V10.6971Z" fill="white"/>
<path d="M247.306 39.045C247.039 39.1408 246.772 39.2365 246.503 39.3381C242.917 40.6444 239.443 42.24 236.115 44.109C235.855 44.2494 235.594 44.3956 235.339 44.5432C227.37 49.1315 220.321 55.1595 214.552 62.3209C212.259 65.1726 210.186 68.1947 208.352 71.361C205.819 75.7339 203.42 80.6767 199.699 83.8635C199.315 84.2004 198.91 84.5131 198.487 84.7998L173.102 78.793C173.051 78.7504 172.998 78.7135 172.947 78.6708L171.923 78.4773C172.006 78.3074 172.096 78.133 172.179 77.9631C172.227 77.8643 172.281 77.7669 172.328 77.6682C172.362 77.6027 172.396 77.5374 172.423 77.4764C172.434 77.4546 172.445 77.4328 172.455 77.4168C172.482 77.3558 172.513 77.302 172.538 77.2469C173.038 76.2705 173.546 75.2959 174.062 74.3231C174.063 74.3173 174.063 74.3173 174.07 74.3128C178.018 66.9108 182.618 59.7732 188.155 53.5608C188.321 53.374 188.489 53.1812 188.667 52.9971C191.179 50.2107 193.914 47.6342 196.845 45.2934C198.454 44.0167 200.127 42.8224 201.857 41.7149C206.332 38.862 211.228 36.7307 216.366 35.3993C226.608 32.7466 237.585 33.3991 246.62 38.6379C246.851 38.7721 247.077 38.905 247.306 39.045Z" fill="#F0F0F0"/>
<path d="M247.174 39.354C233.939 38.8734 220.889 42.5753 209.878 49.9337C207.528 51.5245 205.283 53.3427 203.535 55.5947C201.847 57.8029 200.782 60.4228 200.449 63.1819C200.088 65.7484 200.015 68.4155 199.036 70.8493C198.003 73.4147 195.908 75.2177 193.345 76.1735C190.208 77.343 186.838 77.3157 183.544 77.1744C179.886 77.0176 176.089 76.7968 172.651 78.2914C172.235 78.4725 171.978 77.8156 172.394 77.6348C178.375 75.0344 184.995 77.4436 191.188 76.0743C194.078 75.4354 196.793 73.9217 198.122 71.1715C199.285 68.7665 199.362 66.0162 199.706 63.4145C200.067 60.6826 200.858 58.1615 202.447 55.8834C204.071 53.5531 206.25 51.6433 208.548 49.9994C213.788 46.3105 219.575 43.4685 225.698 41.5773C232.674 39.3802 239.974 38.3926 247.283 38.6572C247.735 38.6738 247.623 39.3705 247.174 39.354L247.174 39.354Z" fill="white"/>
<path d="M213.284 47.3556C212.3 45.3406 212.064 43.0415 212.619 40.8689C213.174 38.6962 214.483 36.7916 216.313 35.4951C216.684 35.234 217.107 35.7984 216.735 36.0598C215.029 37.264 213.81 39.0383 213.298 41.0625C212.785 43.0867 213.013 45.2275 213.94 47.0984C214.141 47.5052 213.483 47.7601 213.284 47.3557V47.3556Z" fill="white"/>
<path d="M200.461 61.857C204.782 63.3864 209.521 63.2308 213.733 61.4214C214.15 61.2418 214.407 61.8986 213.99 62.078C209.604 63.9527 204.672 64.1046 200.179 62.5032C199.751 62.3502 200.035 61.7049 200.461 61.857Z" fill="white"/>
<path d="M232.577 40.3103C232.795 41.1693 233.223 41.9607 233.823 42.6133C234.423 43.2659 235.175 43.7594 236.012 44.0495C236.442 44.1969 236.157 44.8421 235.73 44.6957C234.806 44.3709 233.976 43.8249 233.312 43.1053C232.648 42.3857 232.17 41.5144 231.92 40.5676C231.889 40.4803 231.893 40.3845 231.93 40.2997C231.967 40.2148 232.035 40.1472 232.12 40.1107C232.207 40.0771 232.304 40.0792 232.39 40.1166C232.475 40.1539 232.543 40.2236 232.577 40.3104V40.3103Z" fill="white"/>
<path d="M27.1554 167.775C12.623 161.08 0.697106 146.961 0.362793 130.965C14.1267 141.609 31.2121 147.042 48.5961 146.302C55.2993 145.992 62.7227 144.95 68.1043 148.958C71.453 151.452 73.321 155.543 73.9917 159.664C74.6624 163.785 74.2673 167.996 73.8708 172.153L74.2604 173.119C58.3551 174.859 41.6879 174.469 27.1554 167.775Z" fill="#F0F0F0"/>
<path d="M0.694302 130.913C7.43742 142.312 17.6006 151.296 29.7403 156.589C32.348 157.707 35.0906 158.615 37.9303 158.87C40.7001 159.098 43.4804 158.58 45.9822 157.37C48.3376 156.288 50.6216 154.909 53.1989 154.419C55.9155 153.902 58.5643 154.692 60.7532 156.333C63.4315 158.341 65.2284 161.192 66.8887 164.041C68.7321 167.204 70.5968 170.519 73.7112 172.605C74.0885 172.858 73.6743 173.429 73.2975 173.176C67.8791 169.547 66.3315 162.675 61.8343 158.201C59.7358 156.114 56.9956 154.647 53.9631 155.013C51.3113 155.334 48.9547 156.754 46.5793 157.87C44.0851 159.041 41.536 159.737 38.7609 159.63C35.9222 159.521 33.1383 158.719 30.5135 157.673C24.579 155.255 19.0617 151.919 14.1634 147.787C8.547 143.103 3.77329 137.492 0.0488356 131.198C-0.181538 130.808 0.465414 130.526 0.694266 130.913H0.694302Z" fill="white"/>
<path d="M25.7312 155.114C24.5666 157.031 22.7587 158.47 20.6305 159.177C18.5023 159.883 16.1923 159.81 14.1131 158.97C13.6929 158.799 13.9394 158.138 14.3601 158.31C16.2949 159.095 18.4466 159.163 20.4271 158.501C22.4075 157.839 24.0862 156.491 25.1601 154.701C25.3939 154.312 25.9637 154.728 25.7312 155.114Z" fill="white"/>
<path d="M44.8602 158.075C43.8137 153.612 41.1236 149.708 37.3262 147.141C36.9498 146.886 37.3639 146.316 37.7399 146.569C41.6865 149.249 44.4777 153.317 45.5566 157.964C45.6591 158.407 44.9622 158.516 44.8602 158.075Z" fill="white"/>
<path d="M9.38177 142.682C9.98688 142.035 10.4217 141.247 10.6471 140.39C10.8726 139.533 10.8817 138.633 10.6735 137.772C10.5654 137.33 11.2624 137.222 11.3698 137.66C11.5954 138.613 11.5842 139.607 11.3372 140.554C11.0902 141.502 10.6149 142.374 9.95288 143.096C9.89617 143.169 9.81371 143.218 9.72225 143.233C9.63079 143.247 9.53721 143.226 9.4605 143.175C9.38515 143.119 9.33462 143.037 9.31988 142.945C9.30513 142.852 9.32738 142.758 9.38177 142.682Z" fill="white"/>
<path d="M41.3783 95.5762C41.4536 95.8499 41.529 96.1236 41.6099 96.3994C42.6417 100.074 43.9703 103.659 45.5827 107.118C45.7031 107.388 45.8292 107.659 45.9571 107.925C49.9305 116.218 55.409 123.701 62.1143 129.995C64.7848 132.497 67.6417 134.792 70.6604 136.86C74.8295 139.716 79.5771 142.481 82.4738 146.432C82.7807 146.841 83.0619 147.268 83.3159 147.712L75.4092 172.571C75.3629 172.618 75.3221 172.668 75.2757 172.715L75.0054 173.722C74.8423 173.626 74.6752 173.524 74.512 173.428C74.4172 173.373 74.3241 173.312 74.2292 173.257C74.1665 173.218 74.1039 173.179 74.0451 173.148C74.0242 173.135 74.0034 173.122 73.9881 173.111C73.9293 173.08 73.878 173.045 73.825 173.016C72.8891 172.443 71.9556 171.863 71.0246 171.276C71.0189 171.274 71.0189 171.274 71.015 171.266C63.9322 166.771 57.1624 161.646 51.3858 155.655C51.2121 155.475 51.0326 155.293 50.8625 155.101C48.2736 152.387 45.911 149.465 43.7982 146.365C42.6468 144.664 41.5821 142.906 40.6085 141.098C38.1016 136.42 36.3462 131.377 35.4066 126.153C33.5349 115.74 35.0144 104.844 40.9206 96.2299C41.0719 96.0096 41.2214 95.7946 41.3783 95.5762Z" fill="#F0F0F0"/>
<path d="M41.6761 95.7326C40.1975 108.893 42.9032 122.186 49.4091 133.721C50.818 136.184 52.4615 138.56 54.575 140.473C56.6495 142.323 59.1814 143.583 61.9076 144.123C64.4394 144.677 67.0934 144.951 69.4463 146.112C71.9264 147.335 73.566 149.56 74.3255 152.188C75.2548 155.404 74.9731 158.762 74.5834 162.037C74.1508 165.672 73.6439 169.442 74.8747 172.982C75.0238 173.411 74.3494 173.618 74.2005 173.189C72.0592 167.029 74.9614 160.61 74.0637 154.331C73.6449 151.401 72.3405 148.58 69.6985 147.046C67.3882 145.706 64.6517 145.421 62.0833 144.881C59.3865 144.315 56.9323 143.336 54.7807 141.58C52.5798 139.784 50.8399 137.467 49.3743 135.051C46.0916 129.548 43.6947 123.563 42.2713 117.315C40.6073 110.193 40.1738 102.839 40.9895 95.5711C41.0402 95.1212 41.7264 95.2857 41.6761 95.7326V95.7326Z" fill="white"/>
<path d="M47.0957 130.129C45.0121 130.958 42.7017 131.019 40.5772 130.301C38.4527 129.584 36.6524 128.135 35.4977 126.213C35.2654 125.823 35.8601 125.444 36.0927 125.834C37.1646 127.626 38.8418 128.976 40.8215 129.64C42.8012 130.304 44.9531 130.238 46.8887 129.455C47.3095 129.285 47.5141 129.96 47.0957 130.129Z" fill="white"/>
<path d="M60.5868 144.011C62.4381 139.817 62.6409 135.08 61.1547 130.744C61.0071 130.315 61.6814 130.108 61.8289 130.537C63.367 135.052 63.146 139.982 61.2098 144.341C61.025 144.757 60.403 144.424 60.5868 144.011Z" fill="white"/>
<path d="M41.5275 110.359C42.4005 110.206 43.2219 109.839 43.9179 109.29C44.614 108.742 45.1629 108.029 45.5153 107.216C45.6948 106.798 46.3167 107.131 46.1384 107.546C45.7448 108.443 45.1376 109.229 44.37 109.837C43.6023 110.445 42.6974 110.855 41.7344 111.033C41.6451 111.057 41.5498 111.047 41.468 111.003C41.3861 110.96 41.3239 110.887 41.2939 110.799C41.2669 110.71 41.2764 110.613 41.3201 110.531C41.3638 110.448 41.4384 110.387 41.5275 110.359Z" fill="white"/>
<path d="M60.6165 79.3752C47.7752 66.7338 42.3516 53.5456 45.3444 42.2405C49.1852 27.7326 66.2479 17.7017 92.1574 14.7197L92.253 15.5519C66.7042 18.4922 49.9018 28.298 46.1541 42.4547C43.2414 53.4569 48.5863 66.357 61.2042 78.7785L60.6165 79.3752Z" fill="#F0F0F0"/>
<path d="M184.514 124.248C168.487 124.248 151.071 121.866 133.772 117.286C112.38 111.623 92.7651 103.075 77.0488 92.5652L77.5142 91.8691C93.1548 102.328 112.683 110.837 133.987 116.477C153.239 121.574 172.635 123.935 190.072 123.312L190.102 124.149C188.261 124.215 186.398 124.248 184.514 124.248Z" fill="#F0F0F0"/>
<path d="M221.282 118.981L221.013 118.188C235.347 113.341 244.312 105.534 246.94 95.6103C250.28 82.9943 243.024 68.3542 226.509 54.3868C209.909 40.3484 185.973 28.7001 159.107 21.588L159.322 20.7783C186.304 27.9217 210.358 39.6303 227.049 53.7474C243.825 67.9352 251.177 82.8785 247.75 95.8246C245.047 106.033 235.894 114.041 221.282 118.981Z" fill="#F0F0F0"/>
<path d="M89.6638 124.598C58.172 110.631 33.9052 92.5109 21.334 73.5747L22.0316 73.1113C34.516 91.9165 58.6554 109.93 90.0032 123.833L89.6638 124.598Z" fill="#F0F0F0"/>
<path d="M200.386 148.794C197.138 148.794 193.834 148.722 190.475 148.577L190.511 147.74C215.58 148.825 237.698 145.825 254.479 139.062L254.793 139.839C240.154 145.738 221.495 148.794 200.386 148.794Z" fill="#F0F0F0"/>
<path d="M182.114 15.4706C176.909 13.776 171.555 12.1981 166.201 10.7807C135.392 2.62436 105.106 -0.271548 78.6165 2.40763L78.5322 1.57421C105.121 -1.11376 135.51 1.78909 166.416 9.97099C171.785 11.3925 177.154 12.9749 182.373 14.6744L182.114 15.4706Z" fill="#F0F0F0"/>
<path d="M40.9349 80.6311C28.0935 67.9897 22.6699 54.8015 25.6628 43.4963C29.5035 28.9885 46.5662 18.9576 72.4757 15.9756L72.5714 16.8078C47.0226 19.7481 30.2202 29.5539 26.4725 43.7106C23.5598 54.7128 28.9046 67.6128 41.5225 80.0344L40.9349 80.6311Z" fill="#F0F0F0"/>
<path d="M164.832 125.504C148.806 125.504 131.39 123.122 114.091 118.542C92.6981 112.879 73.0834 104.33 57.3672 93.821L57.8326 93.125C73.4732 103.583 93.0009 112.093 114.305 117.732C133.557 122.829 152.954 125.191 170.39 124.568L170.421 125.405C168.579 125.471 166.716 125.504 164.832 125.504Z" fill="#F0F0F0"/>
<path d="M201.6 120.237L201.332 119.444C215.666 114.597 224.631 106.79 227.258 96.8662C230.598 84.2501 223.342 69.61 206.827 55.6426C190.228 41.6043 166.291 29.956 139.426 22.8439L139.64 22.0342C166.623 29.1776 190.676 40.8862 207.368 55.0032C224.144 69.191 231.495 84.1344 228.068 97.0804C225.365 107.289 216.213 115.297 201.6 120.237Z" fill="#F0F0F0"/>
<path d="M69.9821 125.854C38.4904 111.887 14.2236 93.7667 1.65234 74.8305L2.35 74.3672C14.8344 93.1724 38.9738 111.185 70.3216 125.089L69.9821 125.854Z" fill="#F0F0F0"/>
<path d="M180.705 150.05C177.456 150.05 174.153 149.977 170.793 149.832L170.829 148.996C195.898 150.081 218.016 147.081 234.798 140.318L235.111 141.095C220.472 146.994 201.814 150.05 180.705 150.05Z" fill="#F0F0F0"/>
<path d="M162.433 16.7265C157.228 15.0318 151.874 13.4539 146.52 12.0366C115.71 3.88022 85.4244 0.984309 58.9348 3.66349L58.8506 2.83007C85.4389 0.142094 115.829 3.04495 146.734 11.2269C152.103 12.6483 157.472 14.2307 162.692 15.9303L162.433 16.7265Z" fill="#F0F0F0"/>
<path d="M79.2312 78.9141C77.5104 78.916 75.8605 79.6005 74.6437 80.8173C73.4269 82.0341 72.7424 83.6839 72.7405 85.4048C70.2727 103.575 69.4486 121.93 70.278 140.248C70.3273 141.418 70.3819 142.487 70.4453 143.519C70.5373 145.224 70.6543 147.023 70.7927 148.868C70.8722 149.957 70.9561 151.049 71.0479 152.137C71.2016 153.909 71.3705 155.71 71.5503 157.49C71.6631 158.577 71.7803 159.669 71.9056 160.757C72.1463 162.893 72.4186 165.084 72.7386 167.453C72.7354 169.178 73.4176 170.834 74.6351 172.057C75.8527 173.279 77.5059 173.968 79.2312 173.972H188.108C189.829 173.97 191.478 173.285 192.695 172.068C193.912 170.852 194.597 169.202 194.598 167.481L194.603 167.436C195.088 165.226 195.54 162.975 195.946 160.743C196.163 159.567 196.351 158.498 196.519 157.477C196.825 155.617 197.096 153.817 197.326 152.126C197.484 150.992 197.626 149.893 197.749 148.859C197.952 147.167 198.135 145.419 198.309 143.513C198.405 142.477 198.492 141.407 198.577 140.243V140.242C199.908 121.882 198.57 103.426 194.603 85.4498L194.598 85.4048C194.596 83.6839 193.912 82.0341 192.695 80.8173C191.478 79.6004 189.829 78.916 188.108 78.9141L79.2312 78.9141Z" fill="#3F3D56"/>
<path d="M137.897 106.702C114.306 106.702 89.308 104.558 56.5914 100.27H56.5879C54.8919 100.267 53.2563 99.6389 51.9949 98.5051C50.7335 97.3713 49.9349 95.8118 49.7523 94.1256C49.7225 93.872 49.7081 93.6169 49.7091 93.3617V73.6802C49.7084 73.6381 49.7103 73.596 49.7149 73.5542C49.7517 71.7458 50.4946 70.0237 51.7848 68.756C53.0749 67.4883 54.8099 66.7757 56.6186 66.7707C113.538 59.0315 148.115 59.0323 210.747 66.7723H210.749C212.557 66.7842 214.288 67.5027 215.573 68.7741C216.858 70.0456 217.595 71.7692 217.626 73.5767C217.63 73.6111 217.631 73.6456 217.63 73.6802V93.3617C217.631 93.6176 217.617 93.8734 217.587 94.1276C217.402 95.8182 216.598 97.3806 215.331 98.5146C214.063 99.6487 212.421 100.274 210.721 100.271C183.661 104.558 161.482 106.702 137.897 106.702Z" fill="#1890FF"/>
<path d="M141.681 120.371H127.368C125.546 120.369 123.799 119.644 122.511 118.356C121.223 117.068 120.498 115.321 120.496 113.499V61.4974C120.498 59.6756 121.223 57.9291 122.511 56.6409C123.799 55.3527 125.546 54.6281 127.368 54.626H141.681C143.503 54.628 145.25 55.3526 146.538 56.6408C147.826 57.929 148.551 59.6756 148.553 61.4974V113.499C148.551 115.321 147.826 117.068 146.538 118.356C145.25 119.644 143.503 120.369 141.681 120.371Z" fill="#3F3D56"/>
<path d="M174.178 44.675C174.074 43.7001 173.891 42.7352 173.632 41.7898C173.352 40.8425 172.997 39.919 172.571 39.0277C171.044 35.7511 168.469 33.0769 165.252 31.4279C161.259 29.4624 156.692 29.3016 152.399 30.2485C148.791 31.0568 145.402 32.6432 142.471 34.897C140.951 36.0422 139.562 37.352 138.33 38.8025C137.058 40.3286 134.692 44.5215 134.521 44.9097C133.183 41.8726 131.264 39.1269 128.871 36.8274C126.09 34.1873 122.769 32.1808 119.139 30.9457C117.209 30.2954 115.205 29.8881 113.174 29.7332C111.025 29.5546 108.861 29.7434 106.775 30.2915C103.029 31.3407 99.7885 33.7095 97.6518 36.9608C95.6158 39.9826 94.6159 43.5837 94.8023 47.2226C94.9054 49.0599 95.3016 50.8688 95.9759 52.5809C96.3374 53.5078 96.766 54.4069 97.2584 55.2713C97.768 56.1251 98.3378 56.9414 98.9634 57.7142C101.418 60.7268 104.725 62.9287 108.451 64.0321C112.429 65.2616 116.649 65.3017 120.74 64.7245C124.941 64.1317 128.984 62.7719 132.941 61.2826C133.469 61.0839 133.994 60.8795 134.521 60.677C138.038 62.0301 141.585 63.3352 145.267 64.1635C149.409 65.1638 153.708 65.3362 157.917 64.6708C161.84 64.0268 165.488 62.2451 168.407 59.5466C171.109 57.0045 172.999 53.7215 173.842 50.1092C174.258 48.3295 174.371 46.4924 174.178 44.675ZM119.647 60.679C117.377 60.9699 115.08 60.9834 112.806 60.7191C111.176 60.4829 109.58 60.0579 108.048 59.4528C104.439 57.9496 101.561 55.0927 100.032 51.4939C99.5753 50.3594 99.2498 49.1763 99.0622 47.9676C98.942 46.8923 98.9416 45.807 99.0612 44.7316C99.2394 43.6003 99.5445 42.4926 99.9709 41.4297C100.432 40.3958 101.005 39.4154 101.679 38.5058C102.332 37.692 103.071 36.9502 103.882 36.293C104.651 35.7244 105.478 35.2396 106.35 34.8469C107.39 34.4405 108.473 34.151 109.577 33.9836C111.073 33.818 112.584 33.8298 114.077 34.0187C115.854 34.2931 117.593 34.7725 119.26 35.4473C121.032 36.2167 122.708 37.1934 124.25 38.3571C125.678 39.488 126.972 40.778 128.107 42.202C129.231 43.697 130.174 45.3202 130.915 47.0375C131.636 48.8291 132.142 50.6997 132.423 52.6102L132.426 52.6381C132.316 53.598 132.262 54.5634 132.262 55.5296C132.262 55.9018 132.279 56.2735 132.297 56.645C132.121 56.8153 131.973 57.0137 131.861 57.2322C128.944 58.3766 125.954 59.3248 122.911 60.0706C121.832 60.3196 120.744 60.5224 119.647 60.679ZM169.988 47.9675C169.801 49.1763 169.475 50.3596 169.018 51.4943C167.496 55.0979 164.617 57.9571 161.002 59.4528C159.471 60.0579 157.874 60.4829 156.245 60.7191C153.967 60.9838 151.665 60.9699 149.391 60.6776C145.351 60.0998 141.453 58.8246 137.641 57.4014C137.484 57.3428 137.328 57.281 137.172 57.222C137.065 57.0068 136.924 56.8106 136.754 56.6412C136.821 55.2929 136.78 53.9413 136.629 52.5997C136.911 50.6928 137.416 48.8258 138.135 47.0375C138.877 45.3203 139.819 43.6972 140.943 42.2022C142.079 40.7781 143.373 39.488 144.8 38.3571C146.343 37.1934 148.018 36.2167 149.791 35.4473C151.457 34.7725 153.197 34.2931 154.974 34.0187C156.467 33.8298 157.977 33.818 159.473 33.9836C160.578 34.151 161.66 34.4405 162.701 34.8469C163.573 35.2396 164.4 35.7245 165.169 36.2931C165.98 36.9503 166.718 37.6921 167.372 38.506C168.046 39.4155 168.618 40.3959 169.08 41.4297C169.506 42.4926 169.811 43.6003 169.989 44.7316C170.109 45.807 170.109 46.8923 169.988 47.9675Z" fill="#3F3D56"/>
<path d="M90.9564 122.674C92.344 122.674 93.4689 121.549 93.4689 120.161C93.4689 118.773 92.344 117.648 90.9564 117.648C89.5687 117.648 88.4438 118.773 88.4438 120.161C88.4438 121.549 89.5687 122.674 90.9564 122.674Z" fill="#1890FF"/>
<path d="M108.963 116.392C110.35 116.392 111.475 115.267 111.475 113.88C111.475 112.492 110.35 111.367 108.963 111.367C107.575 111.367 106.45 112.492 106.45 113.88C106.45 115.267 107.575 116.392 108.963 116.392Z" fill="#1890FF"/>
<path d="M101.007 136.074C102.394 136.074 103.519 134.949 103.519 133.561C103.519 132.174 102.394 131.049 101.007 131.049C99.619 131.049 98.4941 132.174 98.4941 133.561C98.4941 134.949 99.619 136.074 101.007 136.074Z" fill="#1890FF"/>
<path d="M175.545 122.674C176.933 122.674 178.058 121.549 178.058 120.161C178.058 118.773 176.933 117.648 175.545 117.648C174.158 117.648 173.033 118.773 173.033 120.161C173.033 121.549 174.158 122.674 175.545 122.674Z" fill="#1890FF"/>
<path d="M157.539 116.392C158.927 116.392 160.051 115.267 160.051 113.88C160.051 112.492 158.927 111.367 157.539 111.367C156.151 111.367 155.026 112.492 155.026 113.88C155.026 115.267 156.151 116.392 157.539 116.392Z" fill="#1890FF"/>
<path d="M165.495 136.074C166.883 136.074 168.007 134.949 168.007 133.561C168.007 132.174 166.883 131.049 165.495 131.049C164.107 131.049 162.982 132.174 162.982 133.561C162.982 134.949 164.107 136.074 165.495 136.074Z" fill="#1890FF"/>
<path d="M177.639 166.642C179.027 166.642 180.152 165.517 180.152 164.13C180.152 162.742 179.027 161.617 177.639 161.617C176.251 161.617 175.126 162.742 175.126 164.13C175.126 165.517 176.251 166.642 177.639 166.642Z" fill="#1890FF"/>
<path d="M183.92 148.636C185.308 148.636 186.433 147.511 186.433 146.124C186.433 144.736 185.308 143.611 183.92 143.611C182.533 143.611 181.408 144.736 181.408 146.124C181.408 147.511 182.533 148.636 183.92 148.636Z" fill="#1890FF"/>
<path d="M164.239 156.593C165.627 156.593 166.752 155.469 166.752 154.081C166.752 152.693 165.627 151.568 164.239 151.568C162.851 151.568 161.727 152.693 161.727 154.081C161.727 155.469 162.851 156.593 164.239 156.593Z" fill="#1890FF"/>
<path d="M105.613 166.642C107.001 166.642 108.126 165.517 108.126 164.13C108.126 162.742 107.001 161.617 105.613 161.617C104.225 161.617 103.101 162.742 103.101 164.13C103.101 165.517 104.225 166.642 105.613 166.642Z" fill="#1890FF"/>
<path d="M111.894 148.636C113.282 148.636 114.407 147.511 114.407 146.124C114.407 144.736 113.282 143.611 111.894 143.611C110.507 143.611 109.382 144.736 109.382 146.124C109.382 147.511 110.507 148.636 111.894 148.636Z" fill="#1890FF"/>
<path d="M92.2127 156.593C93.6004 156.593 94.7253 155.469 94.7253 154.081C94.7253 152.693 93.6004 151.568 92.2127 151.568C90.8251 151.568 89.7002 152.693 89.7002 154.081C89.7002 155.469 90.8251 156.593 92.2127 156.593Z" fill="#1890FF"/>
<path d="M38.4708 31.191C39.4222 31.5882 40.4599 31.7336 41.4838 31.6133C42.5077 31.493 43.4834 31.1111 44.3169 30.5042C46.4418 28.9195 47.2383 26.1532 47.9055 23.5882L49.8764 16L46.5476 18.021C44.1536 19.4742 41.7047 20.9754 39.9767 23.1815C38.2487 25.3876 37.3745 28.4791 38.5133 31.0391" fill="#F2F2F2"/>
<path d="M75.3731 54.01C76.0156 53.2037 76.4397 52.2456 76.6044 51.2278C76.7692 50.2101 76.669 49.1671 76.3137 48.1993C75.3715 45.7216 72.9291 44.1979 70.645 42.8537L63.8867 38.8799L64.9188 42.6349C65.6606 45.3353 66.4338 48.1018 68.0822 50.3679C69.7307 52.6341 72.4645 54.3216 75.2386 53.9275" fill="#F2F2F2"/>
<path d="M234.082 170.843C234.724 170.037 235.148 169.079 235.313 168.061C235.478 167.043 235.378 166 235.022 165.032C234.08 162.555 231.638 161.031 229.353 159.687L222.595 155.713L223.627 159.468C224.369 162.168 225.142 164.935 226.791 167.201C228.439 169.467 231.173 171.155 233.947 170.76" fill="#F2F2F2"/>
<path d="M79.3501 7.7001C81.2002 7.7001 82.7001 6.20023 82.7001 4.35005C82.7001 2.49987 81.2002 1 79.3501 1C77.4999 1 76 2.49987 76 4.35005C76 6.20023 77.4999 7.7001 79.3501 7.7001Z" fill="#FD6584"/>
<path d="M17.2553 121.417C19.1055 121.417 20.6054 119.917 20.6054 118.067C20.6054 116.217 19.1055 114.717 17.2553 114.717C15.4051 114.717 13.9053 116.217 13.9053 118.067C13.9053 119.917 15.4051 121.417 17.2553 121.417Z" fill="#FD6584"/>
<path d="M247.571 94.1981C249.421 94.1981 250.921 92.6983 250.921 90.8481C250.921 88.9979 249.421 87.498 247.571 87.498C245.721 87.498 244.221 88.9979 244.221 90.8481C244.221 92.6983 245.721 94.1981 247.571 94.1981Z" fill="#FD6584"/>
<path d="M13.9057 37.248C15.7559 37.248 17.2558 35.7481 17.2558 33.8979C17.2558 32.0477 15.7559 30.5479 13.9057 30.5479C12.0555 30.5479 10.5557 32.0477 10.5557 33.8979C10.5557 35.7481 12.0555 37.248 13.9057 37.248Z" fill="#E6E6E6"/>
<path d="M221.19 132.724C223.04 132.724 224.54 131.224 224.54 129.373C224.54 127.523 223.04 126.023 221.19 126.023C219.34 126.023 217.84 127.523 217.84 129.373C217.84 131.224 219.34 132.724 221.19 132.724Z" fill="#E6E6E6"/>
<path d="M227.89 30.9667C229.74 30.9667 231.24 29.4668 231.24 27.6167C231.24 25.7665 229.74 24.2666 227.89 24.2666C226.039 24.2666 224.54 25.7665 224.54 27.6167C224.54 29.4668 226.039 30.9667 227.89 30.9667Z" fill="#E6E6E6"/>
<path d="M81.0016 84.2477C80.712 84.7058 80.0099 84.6392 79.6156 84.3529C79.0683 83.9553 79.2455 83.1896 79.6224 82.7371C80.8203 81.2991 82.8015 82.8173 83.0687 84.2454C83.1681 84.9418 83.0609 85.652 82.7603 86.2879C82.4598 86.9239 81.9793 87.4576 81.3782 87.823C80.0115 88.6329 78.2362 88.2267 77.0611 87.2574C74.6098 85.2353 75.2772 81.1867 78 79.7239C79.7376 78.7903 81.9343 79.2 83.6461 79.9821C85.5729 80.8624 87.2298 82.2117 89.0117 83.3365C92.9215 85.7839 97.3442 87.2941 101.934 87.7491C102.738 87.831 102.732 86.5742 101.934 86.4928C99.3907 86.2299 96.8936 85.6286 94.5091 84.7049C92.1498 83.7486 89.9105 82.5196 87.8369 81.0428C85.7388 79.6047 83.5469 78.2077 80.9504 77.97C79.9026 77.8476 78.8411 78.0049 77.8738 78.4258C76.9065 78.8467 76.0679 79.5162 75.4433 80.3663C74.8877 81.127 74.5157 82.006 74.3567 82.9345C74.1976 83.863 74.2557 84.8157 74.5264 85.718C74.8527 86.6614 75.4231 87.5016 76.1797 88.153C76.9362 88.8043 77.8518 89.2436 78.8333 89.4261C79.7782 89.6046 80.7552 89.4838 81.6281 89.0805C82.501 88.6772 83.2263 88.0115 83.7028 87.1763C84.6584 85.5235 84.6273 83.3033 83.1839 81.9329C82.7701 81.5123 82.2522 81.2091 81.6828 81.0543C81.1135 80.8995 80.5133 80.8986 79.9436 81.0516C79.4186 81.229 78.9567 81.5555 78.6143 81.9912C78.272 82.4269 78.0641 82.9529 78.016 83.5049C77.8767 85.6504 80.9222 86.7233 82.0863 84.8818C82.5196 84.1965 81.4329 83.5654 81.0016 84.2478L81.0016 84.2477Z" fill="#3F3D56"/>
<path d="M188.432 84.2477C188.721 84.7058 189.423 84.6392 189.818 84.3529C190.365 83.9553 190.188 83.1896 189.811 82.7371C188.613 81.2991 186.632 82.8173 186.365 84.2454C186.265 84.9418 186.372 85.652 186.673 86.2879C186.973 86.9239 187.454 87.4576 188.055 87.823C189.422 88.6329 191.197 88.2267 192.372 87.2574C194.823 85.2353 194.156 81.1867 191.433 79.7239C189.696 78.7903 187.499 79.2 185.787 79.9821C183.86 80.8624 182.203 82.2117 180.422 83.3365C176.512 85.7839 172.089 87.2941 167.499 87.7491C166.695 87.831 166.701 86.5742 167.499 86.4928C170.043 86.2299 172.54 85.6286 174.924 84.7049C177.284 83.7487 179.523 82.5196 181.596 81.0428C183.694 79.6047 185.886 78.2077 188.483 77.97C189.531 77.8476 190.592 78.0049 191.559 78.4258C192.527 78.8467 193.365 79.5162 193.99 80.3663C194.546 81.127 194.918 82.006 195.077 82.9345C195.236 83.863 195.178 84.8157 194.907 85.718C194.581 86.6614 194.01 87.5016 193.254 88.153C192.497 88.8043 191.581 89.2436 190.6 89.4261C189.655 89.6046 188.678 89.4838 187.805 89.0805C186.932 88.6772 186.207 88.0115 185.731 87.1763C184.775 85.5235 184.806 83.3033 186.249 81.9329C186.663 81.5123 187.181 81.2091 187.75 81.0543C188.32 80.8995 188.92 80.8986 189.49 81.0516C190.015 81.229 190.477 81.5555 190.819 81.9912C191.161 82.4269 191.369 82.9529 191.417 83.5049C191.557 85.6504 188.511 86.7233 187.347 84.8818C186.914 84.1965 188 83.5654 188.432 84.2478L188.432 84.2477Z" fill="#3F3D56"/>
<path d="M43.4073 -1.82812L44.8728 0.359071L38.7077 3.42556L37.2422 1.23875L43.4073 -1.82812Z" fill="#E4E4E4"/>
<path d="M244.568 117.366L242.909 119.448L237.04 115.976L238.7 113.895L244.568 117.366Z" fill="#E4E4E4"/>
<path d="M250.691 126.311L252.157 128.498L245.992 131.564L244.526 129.377L250.691 126.311Z" fill="#E4E4E4"/>
<path d="M257.073 116.803L260.002 116.906L259.71 123.034L256.781 122.931L257.073 116.803Z" fill="#E4E4E4"/>
</g>
<defs>
<clipPath id="clip0_1858_66496">
<rect width="260" height="174" fill="white"/>
</clipPath>
</defs>
</svg>
