<svg width="168" height="200" viewBox="0 0 168 200" fill="none" xmlns="http://www.w3.org/2000/svg">
<g clip-path="url(#clip0_1762_86759)">
<path d="M2.1814 95.6572C2.79138 96.6759 3.61731 97.5485 4.601 98.2135C5.58468 98.8784 6.70222 99.3196 7.87487 99.506C9.04752 99.6924 10.2468 99.6193 11.3881 99.2921C12.5295 98.9648 13.5853 98.3913 14.481 97.6119L39.5178 111.971L38.5847 97.0021L14.9524 85.6609C13.5433 84.2429 11.663 83.3911 9.66774 83.2668C7.67253 83.1425 5.70104 83.7544 4.12685 84.9866C2.55266 86.2188 1.48515 87.9856 1.12659 89.9522C0.768028 91.9189 1.14334 93.9488 2.1814 95.6572Z" fill="#FFB8B8"/>
<path d="M74.6653 153.181C67.2386 163.576 67.5043 180.967 69.5763 200H104.69L106.217 196.438L108.253 200H141.331C141.331 200 138.786 151.655 134.206 150.128C129.626 148.601 74.6653 153.181 74.6653 153.181Z" fill="#2F2E41"/>
<path d="M104.69 44.5789C114.527 44.5789 122.502 36.6045 122.502 26.7675C122.502 16.9305 114.527 8.95605 104.69 8.95605C94.8534 8.95605 86.8789 16.9305 86.8789 26.7675C86.8789 36.6045 94.8534 44.5789 104.69 44.5789Z" fill="#FFB8B8"/>
<path d="M117.564 49.2002L121.047 55.8762L145.138 66.6158L138.806 127.9L136.14 134.246L137.58 139.757L134.109 143.825C137.594 146.978 138.036 150.279 136.14 153.694L125.046 156.235C125.046 156.235 63.3598 161.72 68.5585 152.164C74.2388 141.722 75.6853 110.885 63.1455 94.4057C52.4995 80.4155 60.6728 62.2619 60.6728 62.2619L85.9254 54.7151L95.2137 49.2002L117.564 49.2002Z" fill="#3F3D56"/>
<path d="M112.598 0.676341C112.682 0.499249 112.816 0.351216 112.985 0.251254C113.153 0.151292 113.348 0.103963 113.543 0.11535C105.389 -0.372423 96.7997 0.577995 89.9777 5.07162C88.325 6.16028 86.7668 7.4588 84.9683 8.24854C84.8834 8.28668 84.8098 8.34613 84.7547 8.42111C84.6996 8.49609 84.6648 8.58404 84.6537 8.67644C84.6426 8.76883 84.6556 8.86253 84.6914 8.94842C84.7272 9.03431 84.7847 9.10948 84.8581 9.16663L85.0556 9.32153C85.1336 9.38265 85.1932 9.46397 85.2282 9.55664C85.2631 9.64932 85.272 9.7498 85.2538 9.84716C85.2356 9.94452 85.1911 10.035 85.1251 10.1088C85.0591 10.1827 84.9741 10.237 84.8793 10.2658C84.7806 10.296 84.6925 10.3537 84.6254 10.4322C84.5583 10.5107 84.5151 10.6067 84.5008 10.7089C84.4865 10.8112 84.5018 10.9154 84.5447 11.0093C84.5877 11.1032 84.6565 11.1828 84.7433 11.2389L86.257 12.2172C86.3333 12.2656 86.3961 12.3324 86.4398 12.4115C86.4836 12.4905 86.5067 12.5792 86.5072 12.6695C86.5077 12.7598 86.4855 12.8488 86.4427 12.9283C86.3998 13.0078 86.3377 13.0753 86.262 13.1245C86.1338 13.2037 85.9991 13.272 85.8594 13.3286C85.7725 13.3613 85.6955 13.4157 85.6358 13.4868C85.5761 13.5579 85.5356 13.6431 85.5184 13.7343C85.5012 13.8256 85.5078 13.9197 85.5375 14.0076C85.5673 14.0956 85.6191 14.1744 85.6882 14.2364C86.3437 14.82 86.8465 15.5551 87.1528 16.3775C87.6574 17.6895 87.748 19.1182 87.8332 20.5212C88.3547 18.4969 90.564 17.3052 92.6509 17.1841C94.7378 17.0631 96.7732 17.7516 98.8042 18.2466C103.228 19.3216 107.822 19.4983 112.315 18.7664C110.789 21.8283 112.076 25.4804 113.372 28.6468L117.564 26.8499C123.321 23.5999 119.311 37.3479 117.158 39.2353C121.553 40.759 133.057 23.8475 129.356 17.4326C127.431 14.0957 128.797 9.79183 125.013 6.62698C123.158 4.67436 119.455 5.54223 117.564 3.91937C116.82 3.28064 117.954 1.57181 116.931 1.19939C116.591 1.0757 112.654 0.551675 112.598 0.676341Z" fill="#2F2E41"/>
<path d="M82.4283 56.4385C79.16 70.9486 70.7772 104.828 62.2726 111.913C61.7333 112.422 61.0866 112.804 60.3801 113.03C30.4863 120.313 20.9077 101.736 20.9077 101.736C20.9077 101.736 28.9189 97.8324 29.1221 90.2015L45.2779 95.2143L59.3613 63.5208L61.4338 61.5877L61.4454 61.5761L82.4283 56.4385Z" fill="#3F3D56"/>
<path d="M146.166 190.432C147.022 189.61 147.687 188.609 148.115 187.501C148.542 186.394 148.722 185.206 148.64 184.021C148.559 182.836 148.219 181.684 147.644 180.645C147.069 179.606 146.274 178.706 145.313 178.008L153.694 150.389L139.315 154.654L133.561 180.228C132.495 181.919 132.086 183.943 132.413 185.915C132.739 187.887 133.777 189.671 135.331 190.929C136.885 192.187 138.846 192.831 140.843 192.74C142.84 192.648 144.734 191.827 146.166 190.432Z" fill="#FFB8B8"/>
<path d="M138.497 65.0703L145.139 66.6154C145.139 66.6154 172.593 120.031 165.977 130.209C159.361 140.387 151.257 174.084 151.257 174.084C151.257 174.084 139.269 171.701 134.689 165.594L143.077 125.629L134.425 92.042L138.497 65.0703Z" fill="#3F3D56"/>
<path d="M12.4829 144.392L12.7214 58.3619C12.7282 56.6207 13.4254 54.9533 14.6601 53.7254C15.8947 52.4976 17.566 51.8096 19.3073 51.8125L84.2788 51.9926C86.02 51.9994 87.6874 52.6966 88.9152 53.9313C90.1431 55.166 90.831 56.8372 90.8281 58.5785L90.5896 144.608C90.5828 146.349 89.8856 148.017 88.651 149.245C87.4163 150.472 85.7451 151.16 84.0038 151.158L19.0323 150.977C17.2911 150.971 15.6237 150.273 14.3958 149.039C13.168 147.804 12.4801 146.133 12.4829 144.392Z" fill="#E6E6E6"/>
<path d="M17.5386 118.421L17.6919 63.1132C17.6983 61.4825 18.3512 59.9209 19.5075 58.771C20.6638 57.6211 22.229 56.9768 23.8598 56.9795L79.6973 57.1343C81.3281 57.1406 82.8897 57.7936 84.0397 58.9498C85.1897 60.1061 85.834 61.6714 85.8314 63.3021L85.6191 139.857C85.6127 141.488 84.9597 143.049 83.8034 144.199C82.647 145.349 81.0818 145.993 79.451 145.991L44.8608 145.895C37.5969 145.866 30.6409 142.958 25.5188 137.807C20.3966 132.657 17.5267 125.685 17.5386 118.421Z" fill="white"/>
<path d="M73.2993 81.2735H29.7603C29.0675 81.2735 28.403 80.9983 27.9131 80.5084C27.4232 80.0185 27.1479 79.354 27.1479 78.6612C27.1479 77.9683 27.4232 77.3039 27.9131 76.814C28.403 76.3241 29.0675 76.0488 29.7603 76.0488H73.2993C73.9921 76.0488 74.6566 76.3241 75.1465 76.814C75.6364 77.3039 75.9116 77.9683 75.9116 78.6612C75.9116 79.354 75.6364 80.0185 75.1465 80.5084C74.6566 80.9983 73.9921 81.2735 73.2993 81.2735Z" fill="#1890FF"/>
<path d="M39.3389 69.2276H29.7603C29.0675 69.2276 28.403 68.9524 27.9131 68.4625C27.4232 67.9726 27.1479 67.3081 27.1479 66.6153C27.1479 65.9224 27.4232 65.258 27.9131 64.7681C28.403 64.2782 29.0675 64.0029 29.7603 64.0029H39.3389C40.0317 64.0029 40.6961 64.2782 41.186 64.7681C41.676 65.258 41.9512 65.9224 41.9512 66.6153C41.9512 67.3081 41.676 67.9726 41.186 68.4625C40.6961 68.9524 40.0317 69.2276 39.3389 69.2276Z" fill="#1890FF"/>
<path d="M73.2993 93.3194H29.7603C29.0675 93.3194 28.403 93.0442 27.9131 92.5543C27.4232 92.0644 27.1479 91.3999 27.1479 90.7071C27.1479 90.0142 27.4232 89.3498 27.9131 88.8599C28.403 88.37 29.0675 88.0947 29.7603 88.0947H73.2993C73.9921 88.0947 74.6566 88.37 75.1465 88.8599C75.6364 89.3498 75.9116 90.0142 75.9116 90.7071C75.9116 91.3999 75.6364 92.0644 75.1465 92.5543C74.6566 93.0442 73.9921 93.3194 73.2993 93.3194Z" fill="#1890FF"/>
<path d="M73.2993 105.365H29.7603C29.0675 105.365 28.403 105.09 27.9131 104.6C27.4232 104.11 27.1479 103.446 27.1479 102.753C27.1479 102.06 27.4232 101.396 27.9131 100.906C28.403 100.416 29.0675 100.141 29.7603 100.141H73.2993C73.9921 100.141 74.6566 100.416 75.1465 100.906C75.6364 101.396 75.9116 102.06 75.9116 102.753C75.9116 103.446 75.6364 104.11 75.1465 104.6C74.6566 105.09 73.9921 105.365 73.2993 105.365Z" fill="#1890FF"/>
<path d="M69.7763 137.105C75.5171 137.105 80.1708 132.452 80.1708 126.711C80.1708 120.97 75.5171 116.316 69.7763 116.316C64.0356 116.316 59.3818 120.97 59.3818 126.711C59.3818 132.452 64.0356 137.105 69.7763 137.105Z" fill="#1890FF"/>
<path d="M68.3585 132.121C68.179 132.121 68.0019 132.079 67.8414 131.999C67.6809 131.918 67.5412 131.802 67.4336 131.658L64.5978 127.877C64.5065 127.756 64.44 127.617 64.4021 127.47C64.3643 127.323 64.3558 127.17 64.3773 127.019C64.3987 126.869 64.4495 126.724 64.5269 126.593C64.6043 126.463 64.7067 126.348 64.8282 126.257C64.9498 126.166 65.0881 126.1 65.2354 126.062C65.3826 126.024 65.5358 126.016 65.6862 126.038C65.8366 126.059 65.9813 126.11 66.112 126.188C66.2426 126.265 66.3568 126.368 66.4478 126.49L68.303 128.963L73.068 121.816C73.152 121.689 73.2602 121.58 73.3865 121.495C73.5127 121.41 73.6544 121.351 73.8036 121.321C73.9527 121.291 74.1063 121.29 74.2556 121.32C74.4049 121.349 74.5469 121.408 74.6735 121.492C74.8001 121.576 74.9088 121.685 74.9933 121.811C75.0779 121.938 75.1367 122.08 75.1663 122.229C75.1959 122.378 75.1957 122.532 75.1659 122.681C75.136 122.83 75.0769 122.972 74.9922 123.099L69.3206 131.606C69.218 131.76 69.0801 131.887 68.9182 131.976C68.7564 132.066 68.5755 132.115 68.3906 132.12C68.3799 132.121 68.3692 132.121 68.3585 132.121Z" fill="white"/>
<path d="M47.6112 31.7839C50.3364 31.7839 52.5456 29.5747 52.5456 26.8495C52.5456 24.1243 50.3364 21.915 47.6112 21.915C44.886 21.915 42.6768 24.1243 42.6768 26.8495C42.6768 29.5747 44.886 31.7839 47.6112 31.7839Z" fill="#F2F2F2"/>
<path d="M29.6151 173.721C32.3403 173.721 34.5495 171.512 34.5495 168.787C34.5495 166.062 32.3403 163.853 29.6151 163.853C26.8899 163.853 24.6807 166.062 24.6807 168.787C24.6807 171.512 26.8899 173.721 29.6151 173.721Z" fill="#F2F2F2"/>
<path d="M143.107 50.9411C145.832 50.9411 148.041 48.7319 148.041 46.0067C148.041 43.2815 145.832 41.0723 143.107 41.0723C140.382 41.0723 138.172 43.2815 138.172 46.0067C138.172 48.7319 140.382 50.9411 143.107 50.9411Z" fill="#F2F2F2"/>
</g>
<defs>
<clipPath id="clip0_1762_86759">
<rect width="166.011" height="200" fill="white" transform="translate(0.994629)"/>
</clipPath>
</defs>
</svg>
