<svg width="276" height="200" viewBox="0 0 276 200" fill="none" xmlns="http://www.w3.org/2000/svg">
<g clip-path="url(#clip0_1762_87673)">
<path d="M248.856 199.409L240.045 172.822C240.045 172.822 249.736 182.512 249.736 190.464L247.997 172.076C247.997 172.076 252.966 178.785 252.469 188.973C251.972 199.16 248.856 199.409 248.856 199.409Z" fill="#E6E6E6"/>
<path d="M59.658 175.2L51.0596 149.252C51.0596 149.252 60.5173 158.71 60.5173 166.47L58.8197 148.524C58.8197 148.524 63.6698 155.072 63.1848 165.015C62.6998 174.957 59.658 175.2 59.658 175.2Z" fill="#E6E6E6"/>
<path d="M193.863 187.173C193.878 204.242 160.024 198.992 118.578 199.028C77.1321 199.064 43.7896 204.372 43.7749 187.303C43.7602 170.234 77.6023 166.492 119.048 166.456C160.494 166.421 193.849 170.104 193.863 187.173Z" fill="#E6E6E6"/>
<path d="M275.5 199H0.5V200H275.5V199Z" fill="#CACACA"/>
<path d="M164.816 164.121H159.398L156.819 143.222H164.816V164.121Z" fill="#A0616A"/>
<path d="M154.926 162.573H165.978V169.153H148.948V168.551C148.948 166.966 149.578 165.445 150.699 164.324C151.82 163.203 153.341 162.573 154.926 162.573Z" fill="#2F2E41"/>
<path d="M204.644 194.968H199.226L196.647 174.068H204.644V194.968Z" fill="#A0616A"/>
<path d="M194.754 193.42H205.805V200H188.776V199.398C188.776 197.812 189.406 196.292 190.527 195.171C191.648 194.05 193.168 193.42 194.754 193.42Z" fill="#2F2E41"/>
<path d="M229.637 132.88C230.012 132.425 230.283 131.894 230.43 131.324C230.577 130.754 230.598 130.158 230.49 129.579C230.382 129.001 230.148 128.452 229.806 127.973C229.463 127.494 229.02 127.096 228.507 126.807L215.922 75.542L207.875 79.004L222.844 128.573C222.416 129.467 222.33 130.488 222.604 131.441C222.877 132.394 223.491 133.213 224.328 133.744C225.165 134.275 226.168 134.48 227.147 134.321C228.126 134.161 229.012 133.649 229.637 132.88Z" fill="#A0616A"/>
<path d="M219.822 29.2707C219.373 28.8012 218.827 28.4358 218.221 28.2004C217.616 27.965 216.966 27.8652 216.317 27.9081C215.669 27.951 215.038 28.1356 214.469 28.4487C213.9 28.7619 213.406 29.1961 213.022 29.7207L193.544 31.9569L196.507 39.47L214.222 36.1546C215.146 36.7402 216.252 36.9665 217.332 36.7906C218.412 36.6148 219.389 36.049 220.08 35.2004C220.77 34.3519 221.125 33.2796 221.078 32.1867C221.03 31.0938 220.584 30.0563 219.822 29.2707Z" fill="#A0616A"/>
<path d="M187.723 127.563L196.223 191.355L206.802 189.177C206.802 189.177 205.246 142.719 210.536 137.118C215.825 131.517 203.732 121.706 203.732 121.706L187.723 127.563Z" fill="#2F2E41"/>
<path d="M191.237 109.992L187.332 115.849C187.332 115.849 157.267 103.354 157.267 123.268C157.267 143.181 155.546 156.695 154.924 157.629C154.301 158.562 162.123 160.984 165.857 160.362C165.857 160.362 170.463 128.258 170.152 126.391C170.152 126.391 199.645 140.852 205.246 139.607C210.847 138.362 212.17 133.957 213.103 131.467C214.037 128.978 212.713 109.211 212.713 109.211L194.045 103.514L191.237 109.992Z" fill="#2F2E41"/>
<path d="M191.764 74.8261L190.651 73.4906C190.651 73.4906 178.186 45.4441 183.083 37.876C187.98 30.3079 209.349 29.195 210.016 29.6402C210.684 30.0853 208.421 35.8653 209.98 38.5364C209.98 38.5364 193.426 42.1252 192.313 42.5704C191.2 43.0156 200.89 59.4673 200.89 59.4673L199.777 69.4839L191.764 74.8261Z" fill="#CCCCCC"/>
<path d="M213.578 61.0259C213.578 61.0259 202.003 62.3615 201.558 62.3615C201.113 62.3615 200.89 59.4678 200.89 59.4678L190.651 73.491C190.651 73.491 185.606 114.174 186.942 113.506C188.277 112.839 212.91 116.674 213.133 114.893C213.355 113.112 212.91 104.209 213.578 103.763C214.245 103.318 225.152 75.7169 225.152 75.7169C225.152 75.7169 224.039 69.9296 220.255 67.9262C216.471 65.9229 213.578 61.0259 213.578 61.0259Z" fill="#CCCCCC"/>
<path d="M221.591 71.9326L225.153 75.7167C225.153 75.7167 230.444 119.199 227.551 120.534C224.657 121.87 218.96 121.706 218.96 121.706L213.355 101.092L221.591 71.9326Z" fill="#CCCCCC"/>
<path d="M202.455 58.272C208.114 58.272 212.701 53.685 212.701 48.0266C212.701 42.3683 208.114 37.7812 202.455 37.7812C196.797 37.7812 192.21 42.3683 192.21 48.0266C192.21 53.685 196.797 58.272 202.455 58.272Z" fill="#A0616A"/>
<path d="M200.051 49.6252C199.913 47.4993 197.231 47.4264 195.101 47.4063C192.97 47.3862 190.424 47.4622 189.218 45.7057C188.422 44.5448 188.574 42.9332 189.232 41.6886C189.89 40.444 190.972 39.4868 192.037 38.5659C194.787 36.1884 197.62 33.8298 200.921 32.3081C204.222 30.7863 208.09 30.1714 211.514 31.393C215.719 32.8936 221.404 40.6181 221.895 45.0561C222.386 49.4941 220.612 54.0183 217.623 57.3347C214.633 60.651 207.79 59.3129 203.484 60.4927C206.102 56.7874 204.376 50.0546 200.182 48.3242L200.051 49.6252Z" fill="#2F2E41"/>
<path d="M108.74 182.15C122.324 182.15 133.335 171.139 133.335 157.555C133.335 143.972 122.324 132.96 108.74 132.96C95.1567 132.96 84.145 143.972 84.145 157.555C84.145 171.139 95.1567 182.15 108.74 182.15Z" fill="#1890FF"/>
<path d="M92.3152 131.212C88.9065 131.213 85.5708 130.225 82.7118 128.368C79.8528 126.512 77.5932 123.867 76.2064 120.753L37.1784 32.8625C35.8856 29.9511 35.2018 26.806 35.1692 23.6207C35.1366 20.4353 35.7557 17.2769 36.9886 14.3397C38.2215 11.4024 40.042 8.7483 42.3384 6.54051C44.6347 4.33272 47.3583 2.61788 50.3418 1.50141C53.3253 0.384929 56.5055 -0.1096 59.6871 0.0482211C62.8688 0.206042 65.9845 1.01288 68.8428 2.41913C71.7011 3.82538 74.2417 5.80135 76.3082 8.22556C78.3748 10.6498 79.9238 13.471 80.8599 16.5159L109.121 108.436C109.93 111.067 110.111 113.852 109.649 116.565C109.186 119.279 108.094 121.846 106.46 124.061C104.826 126.276 102.695 128.077 100.238 129.319C97.7815 130.561 95.0679 131.209 92.3152 131.212H92.3152Z" fill="#1890FF"/>
</g>
<defs>
<clipPath id="clip0_1762_87673">
<rect width="275" height="200" fill="white" transform="translate(0.5)"/>
</clipPath>
</defs>
</svg>
