<svg width="318" height="200" viewBox="0 0 318 200" fill="none" xmlns="http://www.w3.org/2000/svg">
<g clip-path="url(#clip0_1683_73261)">
<path d="M69.2102 133.523C68.63 137.798 65.7241 141.656 61.9866 144.175C61.0962 144.777 60.1564 145.303 59.1775 145.746C58.1012 146.232 56.991 146.64 55.8558 146.965C53.1021 147.727 50.2726 148.183 47.4187 148.324H47.4139C45.0302 148.478 42.632 148.498 40.258 148.512L28.5669 148.585C27.1696 148.594 25.7772 148.604 24.3798 148.614C20.2072 148.638 15.8992 148.638 12.0457 147.037C11.988 147.016 11.9316 146.992 11.8764 146.965C8.09061 145.331 4.86564 141.738 4.95748 137.628C4.99442 136.181 5.40408 134.767 6.14689 133.523C6.6386 132.688 7.22953 131.915 7.90684 131.222C10.0052 129.046 12.9159 127.339 15.6429 125.966C18.7131 124.424 22.059 122.567 24.2879 120.068C24.5587 119.763 24.8101 119.454 25.0422 119.134C25.7143 118.232 26.2202 117.217 26.5362 116.137C26.6751 115.648 26.7689 115.148 26.8166 114.643C27.1261 111.452 25.574 108.517 23.5965 105.891C23.4031 105.63 23.2 105.369 22.9921 105.108C22.5473 104.552 22.088 104.006 21.6335 103.483C21.4401 103.261 21.2467 103.034 21.0485 102.807C20.5069 102.178 19.9606 101.535 19.4384 100.877C19.1966 100.568 18.9597 100.258 18.7276 99.9442C17.7772 98.7063 16.9997 97.3449 16.4165 95.8973C16.0023 94.8385 15.7717 93.7168 15.7347 92.5804C15.6284 88.4755 20.2168 84.3415 23.6884 86.2804C25.0035 86.1547 26.3235 86.0241 27.6386 85.8888C27.948 85.8597 28.2526 85.8259 28.5621 85.7969C28.6394 85.7872 28.7168 85.7824 28.7942 85.7727C30.8829 85.5648 32.962 85.3569 35.0459 85.1442H35.0507C35.5197 85.1055 35.979 85.0571 36.4384 85.0088H36.4432C39.7842 84.6752 43.122 84.3416 46.4566 84.0079C46.766 83.9789 47.0754 83.9451 47.3849 83.9161C48.0714 83.8435 48.7532 83.7758 49.4398 83.7081C51.3641 83.5196 53.6269 83.4471 54.8792 84.9266C56.2426 86.5415 55.5367 89.0944 54.1878 90.7238C52.8388 92.3484 50.9676 93.4991 49.7009 95.1817C48.6772 96.5678 48.0822 98.2235 47.9893 99.9442C47.9699 100.249 47.9603 100.563 47.9699 100.877C47.977 101.524 48.0368 102.169 48.1488 102.807C48.2847 103.59 48.4885 104.36 48.758 105.108C49.2314 106.444 49.8871 107.708 50.7065 108.865C53.5495 112.849 57.7608 115.595 61.4983 118.752C61.6482 118.878 61.7933 119.004 61.9383 119.134C62.2913 119.434 62.6346 119.748 62.9778 120.068C66.1206 123.002 68.8089 126.576 69.2537 130.792C69.2682 130.932 69.2827 131.077 69.2876 131.222C69.3419 131.99 69.3159 132.761 69.2102 133.523Z" fill="#F2F2F2"/>
<path d="M37.8904 60.8936C38.6978 59.9072 39.5004 58.9112 40.3079 57.92C39.3336 55.4994 37.9682 53.2552 36.2664 51.2772C36.0563 51.0407 35.7823 50.87 35.4774 50.7856C35.1726 50.7012 34.8498 50.7068 34.548 50.8015C34.2462 50.8963 33.9782 51.0763 33.7763 51.3198C33.5744 51.5633 33.4471 51.86 33.4099 52.1741C32.7044 57.3772 28.8735 62.3596 28.2058 67.7835C28.0158 69.3328 28.0959 70.9033 28.4427 72.4251V72.4273C24.3797 63.5828 22.7914 53.8019 23.8469 44.1262C25.0065 33.913 29.0271 24.2348 35.4456 16.2062C38.0603 14.7791 40.1742 12.5843 41.5022 9.91785C41.6822 9.5503 41.8473 9.17202 41.9922 8.78609C42.0695 8.57575 42.0951 8.34992 42.0668 8.12763C42.0385 7.90534 41.9573 7.69311 41.8298 7.5088C41.7023 7.3245 41.5324 7.17353 41.3344 7.06862C41.1364 6.96372 40.9161 6.90793 40.692 6.90599C39.7555 6.91358 38.8195 6.85854 37.8904 6.74123C38.3866 6.13508 39.5986 4.64515 40.5108 3.52263C40.6889 3.30881 40.8192 3.05935 40.8928 2.79101C40.9665 2.52267 40.9819 2.24167 40.938 1.96689C40.894 1.69211 40.7918 1.42992 40.6381 1.19793C40.4844 0.965948 40.2829 0.769552 40.047 0.621935L40.0274 0.610418C37.7985 -0.69504 34.7234 0.209109 33.1134 2.22532C31.4985 4.24152 31.1939 7.07002 31.7547 9.58907C32.3062 11.7326 33.2186 13.7665 34.4527 15.6039L34.4545 15.6067C34.3318 15.7603 34.2041 15.9098 34.0832 16.0648C30.7535 20.3457 28.069 25.0914 26.1152 30.1507C26.0376 30.3507 25.9689 30.554 25.8937 30.7549L25.8947 30.7423L26.2041 26.7099C27.2375 24.8682 27.8428 22.8174 27.975 20.7098C28.1073 18.6021 27.7631 16.4917 26.968 14.5353C25.6568 11.3724 23.1972 8.70946 21.0342 5.97489C18.4411 2.69652 13.1311 4.14373 12.6741 8.29861C12.6697 8.33872 12.6654 8.37884 12.6612 8.419C14.4748 9.43949 16.0635 10.816 17.3318 12.4659C15.7653 12.7077 14.1939 12.9543 12.6273 13.196C12.7416 14.3524 12.9436 15.4983 13.2317 16.6241C14.0933 19.869 15.6374 22.8928 17.761 25.4933C19.8845 28.0939 22.5386 30.2113 25.5459 31.7041C23.92 36.3008 22.9032 41.0906 22.5215 45.9514C22.3019 48.8174 22.3145 51.6966 22.5593 54.5606C22.5529 54.5266 22.5507 54.492 22.544 54.4581C21.9251 51.2727 20.2258 48.3984 17.7332 46.3208C13.8413 43.1238 8.26056 42.0499 4.20275 39.3286C3.83844 39.0885 3.41337 38.957 2.97713 38.9494C2.5409 38.9418 2.11149 39.0584 1.73903 39.2856C1.36657 39.5128 1.06641 39.8413 0.873582 40.2327C0.680751 40.6241 0.603202 41.0622 0.64998 41.496C0.684831 41.7963 0.725455 42.0959 0.771859 42.3947C3.3032 43.4245 5.51449 45.1101 7.17827 47.2781C5.61172 47.5199 4.04033 47.7664 2.47378 48.0082C2.43994 48.013 2.41094 48.0179 2.37709 48.0227C3.39442 50.4517 4.82227 52.6875 6.59809 54.6322C8.79182 56.9861 11.4432 58.8672 14.3898 60.16C17.3363 61.4529 20.5158 62.1303 23.7334 62.1506C23.7356 62.1507 23.7377 62.1505 23.7398 62.1505C24.9028 67.2077 26.7621 72.079 29.2643 76.625C30.567 78.991 32.0414 81.2583 33.6754 83.4088L33.9354 84.1452C33.9934 84.092 34.0562 84.0388 34.1142 83.9857L34.1219 83.9785C35.5673 85.8362 37.1316 87.5981 38.8051 89.2532C39.3337 89.7744 40.1484 88.9599 39.6197 88.4386C37.9562 86.794 36.4028 85.0416 34.9698 83.1928C37.9044 80.2995 40.0313 76.6892 41.1396 72.72C39.8909 72.7985 38.6374 72.7238 37.4069 72.4976C38.4078 71.2695 39.4086 70.0318 40.4095 68.8036C40.4318 68.7807 40.4528 68.7565 40.4723 68.7311C40.98 68.1026 41.4925 67.4789 42.0002 66.8503C42.005 66.6085 42.005 66.3716 42.0002 66.1299C41.9681 64.4441 41.7476 62.7672 41.3426 61.1304C40.1866 61.1823 39.0285 61.1029 37.8904 60.8936ZM22.7906 57.4172C22.7954 57.2286 22.7954 57.04 22.7906 56.8466C22.7899 56.7932 22.7826 56.7396 22.7813 56.6861C22.8228 57.0201 22.863 57.3543 22.9107 57.6875L22.9066 57.6783L22.7906 57.4172Z" fill="#F2F2F2"/>
<path d="M109.377 116.278L103.778 140.915L100.2 144.835H97.6182L108.257 100.04L108.783 107.65V107.655L109.377 116.278Z" fill="#3F3D56"/>
<path d="M136.324 141.456L103.475 141.249L100.56 141.229L98.4805 141.215L96.0581 141.2H96.0388C95.6874 141.201 95.3505 141.34 95.1008 141.587L91.0103 145.677C90.9198 145.767 90.8461 145.871 90.7928 145.987C90.7673 146.019 90.7461 146.055 90.7299 146.093C90.6414 146.299 90.6048 146.523 90.6234 146.746C90.6419 146.97 90.7151 147.185 90.8365 147.373C90.9578 147.561 91.1236 147.717 91.3191 147.826C91.5147 147.935 91.7341 147.994 91.958 147.998H134.511C134.766 147.997 135.016 147.924 135.232 147.787C135.448 147.65 135.62 147.455 135.73 147.225L136.063 146.499L136.75 145.025L137.528 143.361C137.611 143.184 137.654 142.991 137.654 142.796C137.652 142.443 137.512 142.105 137.263 141.854C137.014 141.604 136.677 141.461 136.324 141.456Z" fill="#3F3D56"/>
<path opacity="0.17" d="M136.063 146.499L135.727 147.227C135.618 147.457 135.446 147.651 135.231 147.788C135.016 147.925 134.767 147.998 134.512 147.999H91.9574C91.7336 147.995 91.5142 147.936 91.3187 147.827C91.1232 147.718 90.9575 147.563 90.8363 147.375C90.7151 147.187 90.6421 146.971 90.6237 146.748C90.6054 146.525 90.6423 146.301 90.7311 146.096C90.7461 146.057 90.7669 146.021 90.7927 145.989L136.063 146.499Z" fill="black"/>
<path opacity="0.17" d="M108.783 107.65V107.655L99.6731 144.835H97.6182L108.257 100.04L108.783 107.65Z" fill="black"/>
<path d="M119.963 114.463L107.068 16.3554C107.02 15.9877 106.829 15.6538 106.536 15.4271L97.6587 4.31616L96.8609 3.70212C96.5654 3.47837 96.1939 3.37942 95.8262 3.42652L94.4917 3.60541C94.1237 3.65286 93.7896 3.84457 93.5629 4.13835C93.3362 4.43214 93.2355 4.80394 93.283 5.17197L106.647 106.824V106.828L107.464 113.046L108.436 120.429V120.439L109.944 131.927C109.968 132.124 110.035 132.313 110.139 132.482C110.244 132.65 110.383 132.794 110.549 132.904C110.711 133.016 110.896 133.092 111.09 133.127C111.285 133.162 111.484 133.155 111.675 133.107L112.522 132.894C112.846 132.811 113.13 132.615 113.324 132.343L113.701 131.806L113.875 131.555L119.716 115.454C119.921 115.167 120.009 114.813 119.963 114.463Z" fill="#3F3D56"/>
<path opacity="0.17" d="M97.6568 4.31672L113.877 131.557L113.701 131.806L113.325 132.341C113.131 132.614 112.847 132.81 112.522 132.893L111.675 133.106C111.483 133.153 111.283 133.16 111.089 133.125C110.894 133.09 110.709 133.015 110.546 132.903C110.383 132.792 110.245 132.648 110.141 132.479C110.037 132.311 109.97 132.123 109.944 131.927L93.2853 5.17361C93.2371 4.80554 93.337 4.43338 93.563 4.13893C93.789 3.84447 94.1228 3.65181 94.4908 3.60331L95.8287 3.42747C96.0102 3.40294 96.1948 3.41479 96.3717 3.46233C96.5486 3.50986 96.7143 3.59213 96.859 3.70434L97.6568 4.31672Z" fill="black"/>
<path d="M98.1343 7.95508L106.742 20.2414L116.973 98.0858L111.426 109.09L98.1343 7.95508Z" fill="#1890FF"/>
<path d="M128.327 116.124L125.159 119.608C125.012 119.731 124.833 119.81 124.643 119.835C124.453 119.859 124.259 119.829 124.086 119.747C123.56 119.561 123.093 119.24 122.73 118.818C120.467 116.248 117.925 113.938 115.153 111.929C114.697 111.607 114.334 111.172 114.099 110.667C114.004 110.505 113.956 110.319 113.96 110.13C113.964 109.942 114.02 109.758 114.123 109.6C114.154 107.694 115.228 106.513 117.315 106.09C117.68 105.709 118.507 105.853 119.248 106.431C122.295 108.808 125.158 111.412 127.814 114.22C128.466 114.909 128.687 115.728 128.327 116.124Z" fill="#1890FF"/>
<path d="M120.186 108.625L117.52 111.557C117.428 111.658 117.206 111.606 117.024 111.441C116.842 111.276 116.77 111.06 116.862 110.959L119.528 108.026C119.62 107.925 119.841 107.977 120.023 108.142C120.205 108.308 120.278 108.523 120.186 108.625Z" fill="white"/>
<path d="M122.819 111.019L120.153 113.951C120.061 114.053 119.839 114.001 119.657 113.835C119.475 113.67 119.402 113.454 119.494 113.353L122.16 110.421C122.252 110.32 122.474 110.372 122.656 110.537C122.838 110.702 122.911 110.918 122.819 111.019Z" fill="white"/>
<path d="M125.451 113.412L122.785 116.344C122.693 116.445 122.472 116.393 122.29 116.228C122.108 116.063 122.035 115.847 122.127 115.746L124.793 112.813C124.885 112.712 125.107 112.764 125.289 112.929C125.471 113.095 125.543 113.311 125.451 113.412Z" fill="white"/>
<path d="M317.509 148.377C317.509 148.453 317.495 148.528 317.466 148.598C317.437 148.667 317.395 148.731 317.341 148.784C317.288 148.838 317.224 148.88 317.154 148.909C317.084 148.938 317.009 148.953 316.934 148.952H1.06609C0.913495 148.952 0.767146 148.892 0.659243 148.784C0.551341 148.676 0.490723 148.53 0.490723 148.377C0.490723 148.225 0.551341 148.078 0.659243 147.97C0.767146 147.862 0.913495 147.802 1.06609 147.802H316.934C317.009 147.802 317.084 147.816 317.154 147.845C317.224 147.874 317.288 147.916 317.341 147.97C317.395 148.023 317.437 148.087 317.466 148.157C317.495 148.227 317.509 148.302 317.509 148.377Z" fill="#CCCCCC"/>
<path d="M61.953 120.068H63.0022V119.134H47.3851V100.877H47.9701C47.9604 100.563 47.9701 100.249 47.9895 99.9441H47.3851V83.916C47.0756 83.945 46.7662 83.9789 46.4568 84.0079V99.9441H28.5623V85.7968C28.2529 85.8259 27.9483 85.8597 27.6388 85.8887V99.9441H18.7279C18.9599 100.258 19.1969 100.568 19.4386 100.877H27.6388V119.134H25.0424C24.8103 119.453 24.5589 119.763 24.2881 120.068H27.6388V134.631H16.3394C16.4747 134.945 16.6198 135.254 16.7745 135.559H27.6388V147.801H28.5623V135.559H46.4568V147.801H47.3851V135.559H63.0023V134.631H47.3851C47.3865 130.768 48.9219 127.064 51.6537 124.333C54.3856 121.602 58.0902 120.068 61.9531 120.068H61.953ZM46.4567 134.631H28.5623V120.068H46.4567V134.631ZM28.5623 119.134V118.767C28.5633 114.022 30.4491 109.471 33.8049 106.116C37.1606 102.762 41.7116 100.877 46.4567 100.877V119.134H28.5623Z" fill="#E6E6E6"/>
<path d="M75.1546 121.037C69.828 113.613 59.7745 109.777 52.6995 112.468C45.6245 115.16 44.2072 123.36 49.5338 130.783C54.8604 138.207 70.5399 149.884 77.615 147.193C84.69 144.502 80.4812 128.461 75.1546 121.037ZM75.1874 143.87C74.3165 145.147 72.1798 145.206 70.415 144.003C68.6502 142.799 67.9255 140.788 68.7964 139.511C69.6673 138.234 71.804 138.175 73.5688 139.379C75.3336 140.583 76.0583 142.594 75.1874 143.87Z" fill="#3F3D56"/>
<path d="M69.1414 128.298C68.478 128.834 67.8146 129.371 67.1513 129.907C66.3371 130.658 65.3732 131.227 64.3229 131.579C62.8809 131.912 61.3734 131.822 59.9812 131.32C57.9515 130.665 56.1726 129.4 54.8859 127.699L56.3198 128.019C55.559 127.139 54.9405 126.144 54.4865 125.073C54.1502 124.079 54.3379 123.069 55.2455 122.797C56.2845 122.485 57.9572 123.186 58.8296 122.682C60.3381 121.811 57.8581 118.566 59.2328 117.565C60.0338 116.982 61.6364 117.559 62.9724 118.131C64.6341 118.764 66.209 119.605 67.6594 120.634C70.0324 122.467 71.3463 125.355 70.3773 127.027C70.0459 127.522 69.6271 127.953 69.1414 128.298Z" fill="#1890FF"/>
<path d="M68.653 133.865C67.4929 134.024 66.1508 133.132 65.0314 132.309L64.7464 131.936C64.5133 131.222 64.4152 130.471 64.4572 129.721C64.4837 129.374 64.6274 129.045 64.8648 128.79C65.1023 128.535 65.4193 128.368 65.764 128.317C66.4444 128.227 67.3526 128.521 67.802 128.127C68.671 127.366 66.6557 125.268 67.5772 124.555C68.0943 124.156 69.1932 124.668 69.667 125.355C70.0539 125.996 70.2325 126.741 70.1782 127.487C70.1935 128.584 70.2089 129.68 70.2243 130.776C70.2733 131.423 70.2077 132.074 70.0307 132.698C69.9335 133.002 69.7528 133.273 69.5092 133.479C69.2656 133.685 68.9689 133.819 68.653 133.865Z" fill="#2F2E41"/>
<path d="M68.9436 137.518C67.3357 137.043 64.8836 135.386 62.795 133.922L62.1732 133.381C61.522 132.643 60.9702 131.822 60.5316 130.941C60.2906 130.281 60.6008 129.895 61.6685 130.214C62.6136 130.496 64.1022 131.298 64.5423 131.14C65.3934 130.834 61.2936 127.564 62.2481 127.338C62.7838 127.211 64.6718 128.343 65.7424 129.312C66.5307 130.011 67.182 130.851 67.6627 131.789C68.2884 132.926 68.9141 134.064 69.5398 135.201C69.9177 135.769 70.181 136.405 70.315 137.074C70.3278 137.558 69.9193 137.806 68.9436 137.518Z" fill="#FF6584"/>
<path d="M45.8633 141.874L75.715 145.844C75.8778 145.865 76.026 145.949 76.1292 146.076C76.2324 146.204 76.2826 146.366 76.2696 146.53C76.2566 146.694 76.1813 146.846 76.0592 146.956C75.9371 147.066 75.7776 147.125 75.6135 147.12L46.498 146.351L45.8633 141.874Z" fill="#3F3D56"/>
<path d="M37.3052 145.306C37.9533 144.354 38.7117 143.481 39.5646 142.707C39.9999 142.314 40.4586 141.951 40.9213 141.601C41.081 141.474 41.2467 141.351 41.4078 141.229C41.7916 140.937 42.1754 140.645 42.5638 140.352C42.8893 140.102 43.2194 139.851 43.5462 139.606C44.0248 139.241 44.5638 138.859 45.1617 138.943C45.435 139.007 45.6909 139.13 45.9108 139.304C46.1307 139.478 46.3092 139.699 46.4335 139.95C46.699 140.472 46.8915 141.028 47.0055 141.602C47.3296 142.917 47.6491 144.234 47.9733 145.55L48.4541 146.065C47.7679 146.743 46.9685 147.295 46.0919 147.698C45.723 147.848 45.3275 147.921 44.9294 147.914C44.5313 147.907 44.1387 147.819 43.7753 147.657C43.6166 147.58 43.4665 147.486 43.3276 147.378C42.7213 146.899 42.3482 146.146 41.8147 145.57C41.7022 145.451 41.5826 145.34 41.4565 145.236C41.0883 144.924 40.6558 144.698 40.1901 144.573C39.7244 144.449 39.2368 144.428 38.7623 144.513C38.2122 144.637 37.7076 144.911 37.3052 145.306Z" fill="#CCCCCC"/>
<path d="M37.3052 145.306C37.9533 144.353 38.7117 143.481 39.5646 142.706C39.9999 142.314 40.4586 141.95 40.9213 141.6C41.081 141.474 41.2467 141.35 41.4078 141.229C41.7916 140.937 42.1754 140.645 42.5638 140.352C42.6896 140.562 42.8044 140.78 42.9075 141.002C43.8738 143.079 43.9442 145.398 43.7753 147.656C43.6166 147.579 43.4665 147.486 43.3276 147.378C42.7213 146.898 42.3482 146.145 41.8147 145.57C41.7022 145.451 41.5826 145.339 41.4565 145.235C41.0883 144.924 40.6558 144.698 40.1901 144.573C39.7244 144.448 39.2368 144.428 38.7623 144.513C38.2122 144.636 37.7076 144.911 37.3052 145.306Z" fill="#1890FF"/>
<path d="M275.365 55.6842C274.251 53.2896 276.018 50.6165 276.649 48.0387C277.825 43.2287 274.51 38.021 270.017 36.3543C265.523 34.6876 260.359 36.0807 256.499 38.9971C252.716 41.8562 250.055 43.2031 247.449 47.2427C246.575 48.5973 245.649 52.8032 245.484 54.4256C245.319 56.0481 246.158 57.9072 247.688 58.263C247.07 59.5748 248.141 61.0869 249.522 60.8202C252.451 60.2545 257.831 61.8098 257.831 61.8098C262.847 62.0969 267.862 62.3841 272.878 62.6712C274.164 62.7448 275.497 62.8116 276.652 62.1016C276.972 61.9145 277.247 61.6605 277.459 61.3571C277.671 61.0537 277.815 60.7079 277.88 60.3436C278.174 58.4437 276.132 57.3351 275.365 55.6842Z" fill="#2F2E41"/>
<path d="M272.287 141.746C263.375 150.145 253.911 149.638 243.951 140.992C238.455 140.846 234.087 136.872 234.213 132.133C234.339 127.394 238.912 123.658 244.408 123.804L272.744 124.558C278.239 124.704 282.608 128.678 282.482 133.417C282.356 138.156 277.782 141.892 272.287 141.746Z" fill="#2F2E41"/>
<path d="M279.152 76.6345L278.054 83.9402L276.314 95.5153L276.019 99.8039L273.853 131.236C273.853 131.236 257.114 129.863 252.666 131.236C248.217 132.614 237.406 126.943 237.406 126.943C241.289 123.123 240.24 109.087 240.24 109.087L240.196 74.3185L250.016 71.0162L253.251 64.6484H264.855L267.756 71.4175L273.021 73.8253L275.419 74.9277L279.152 76.6345Z" fill="#3F3D56"/>
<path d="M232.919 191.452L227.3 192.37L221.084 171.133L229.378 169.778L232.919 191.452Z" fill="#FFB6B6"/>
<path d="M230.687 147.17C241.163 149.746 248.899 146.845 255.271 147.221C258.893 141.109 270.455 133.346 264.146 130.079C260.633 128.259 224.921 124.064 220.232 128.905C208.177 141.355 223.145 180.672 223.145 180.672L231.47 180.565L234.13 176.768L231.987 172.631L234.014 169.248L231.694 165.763L230.687 147.17Z" fill="#2F2E41"/>
<path d="M284.703 191.452L290.322 192.37L296.537 171.133L288.244 169.778L284.703 191.452Z" fill="#FFB6B6"/>
<path d="M286.935 136.533C281.137 145.035 271.889 146.426 262.351 147.221C258.729 141.109 247.167 133.346 253.476 130.078C256.989 128.259 292.701 113.427 297.39 118.268C309.445 130.718 294.477 180.672 294.477 180.672L286.152 180.564L283.492 176.768L285.635 172.63L283.608 169.248L285.928 165.763L286.935 136.533Z" fill="#2F2E41"/>
<path d="M285.195 183.562L293.527 185.269L292.586 188.783L298.942 196.255C299.256 196.624 299.443 197.084 299.478 197.568C299.512 198.051 299.39 198.532 299.132 198.942C298.873 199.351 298.49 199.667 298.038 199.844C297.587 200.02 297.091 200.048 296.623 199.922L286.859 197.308L286.107 193.382L284.519 196.682L280.838 195.696L285.195 183.562Z" fill="#2F2E41"/>
<path d="M236.784 195.696L233.103 196.682L231.515 193.382L230.763 197.308L220.999 199.922C220.531 200.048 220.035 200.02 219.584 199.844C219.132 199.667 218.749 199.351 218.49 198.942C218.231 198.532 218.11 198.051 218.144 197.568C218.178 197.084 218.366 196.624 218.68 196.255L225.035 188.783L224.095 185.269L232.427 183.562L236.784 195.696Z" fill="#2F2E41"/>
<path d="M259.532 61.3833C264.951 61.3833 269.343 56.9906 269.343 51.572C269.343 46.1534 264.951 41.7607 259.532 41.7607C254.113 41.7607 249.721 46.1534 249.721 51.572C249.721 56.9906 254.113 61.3833 259.532 61.3833Z" fill="#FFB6B6"/>
<path d="M253.926 48.494C251.334 48.4982 248.804 47.7 246.684 46.2091L246.613 46.1595C246.613 43.6285 247.619 41.2011 249.408 39.4114C251.198 37.6217 253.626 36.6162 256.157 36.6162H260.052C261.297 36.6176 262.53 36.8646 263.679 37.3429C264.828 37.8213 265.872 38.5216 266.751 39.4039C267.629 40.2862 268.325 41.333 268.798 42.4846C269.271 43.6361 269.513 44.8696 269.509 46.1146C269.501 46.6829 269.271 47.2256 268.869 47.6271C268.467 48.0287 267.924 48.2573 267.355 48.2644L254.15 48.492C254.076 48.4933 254.001 48.494 253.926 48.494Z" fill="#2F2E41"/>
<path d="M276.673 157.921H247.13C246.339 157.92 245.58 157.605 245.02 157.046C244.46 156.486 244.145 155.727 244.144 154.935V127.905C244.145 127.113 244.46 126.354 245.02 125.795C245.58 125.235 246.339 124.92 247.13 124.919H276.673C277.464 124.92 278.223 125.235 278.783 125.795C279.343 126.354 279.658 127.113 279.659 127.905V154.935C279.658 155.727 279.343 156.486 278.783 157.046C278.223 157.605 277.464 157.92 276.673 157.921Z" fill="#E6E6E6"/>
<path d="M274.596 155.432H249.207C248.504 155.431 247.83 155.151 247.333 154.654C246.836 154.157 246.556 153.483 246.555 152.78V130.059C246.556 129.356 246.836 128.682 247.333 128.185C247.83 127.688 248.504 127.408 249.207 127.407H274.596C275.299 127.408 275.973 127.688 276.47 128.185C276.967 128.682 277.246 129.356 277.247 130.059V152.78C277.246 153.483 276.967 154.157 276.47 154.654C275.973 155.151 275.299 155.431 274.596 155.432Z" fill="white"/>
<path d="M272.063 134.023H251.739C251.564 134.023 251.395 133.953 251.271 133.829C251.146 133.704 251.077 133.536 251.077 133.36C251.077 133.184 251.146 133.016 251.271 132.891C251.395 132.767 251.564 132.697 251.739 132.697H272.063C272.239 132.697 272.407 132.767 272.532 132.891C272.656 133.016 272.726 133.184 272.726 133.36C272.726 133.536 272.656 133.704 272.532 133.829C272.407 133.953 272.239 134.023 272.063 134.023Z" fill="#1890FF"/>
<path d="M272.063 136.642H251.739C251.564 136.642 251.395 136.572 251.271 136.448C251.146 136.324 251.077 136.155 251.077 135.979C251.077 135.803 251.146 135.635 251.271 135.511C251.395 135.386 251.564 135.316 251.739 135.316H272.063C272.239 135.316 272.408 135.386 272.532 135.511C272.656 135.635 272.726 135.803 272.726 135.979C272.726 136.155 272.656 136.324 272.532 136.448C272.408 136.572 272.239 136.642 272.063 136.642Z" fill="#1890FF"/>
<path d="M260.549 139.261H251.739C251.564 139.261 251.395 139.191 251.271 139.067C251.146 138.943 251.077 138.774 251.077 138.598C251.077 138.423 251.146 138.254 251.271 138.13C251.395 138.005 251.564 137.936 251.739 137.936H260.549C260.725 137.936 260.894 138.005 261.018 138.13C261.142 138.254 261.212 138.423 261.212 138.598C261.212 138.774 261.142 138.943 261.018 139.067C260.894 139.191 260.725 139.261 260.549 139.261Z" fill="#1890FF"/>
<path d="M272.063 144.747H251.739C251.564 144.747 251.395 144.677 251.271 144.552C251.146 144.428 251.077 144.259 251.077 144.084C251.077 143.908 251.146 143.739 251.271 143.615C251.395 143.491 251.564 143.421 251.739 143.421H272.063C272.239 143.421 272.407 143.491 272.532 143.615C272.656 143.739 272.726 143.908 272.726 144.084C272.726 144.259 272.656 144.428 272.532 144.552C272.407 144.677 272.239 144.747 272.063 144.747Z" fill="#E4E4E4"/>
<path d="M272.063 147.366H251.739C251.564 147.366 251.395 147.296 251.271 147.172C251.146 147.047 251.077 146.879 251.077 146.703C251.077 146.527 251.146 146.359 251.271 146.234C251.395 146.11 251.564 146.04 251.739 146.04H272.063C272.239 146.04 272.408 146.11 272.532 146.234C272.656 146.359 272.726 146.527 272.726 146.703C272.726 146.879 272.656 147.047 272.532 147.172C272.408 147.296 272.239 147.366 272.063 147.366Z" fill="#E4E4E4"/>
<path d="M260.549 149.985H251.739C251.564 149.985 251.395 149.915 251.271 149.791C251.146 149.666 251.077 149.498 251.077 149.322C251.077 149.146 251.146 148.978 251.271 148.853C251.395 148.729 251.564 148.659 251.739 148.659H260.549C260.725 148.659 260.894 148.729 261.018 148.853C261.142 148.978 261.212 149.146 261.212 149.322C261.212 149.498 261.142 149.666 261.018 149.791C260.894 149.915 260.725 149.985 260.549 149.985Z" fill="#E4E4E4"/>
<path d="M281.294 96.5596L272.407 96.6323L271.754 112.45L264.533 121.291C263.655 121.439 262.834 121.826 262.162 122.411C261.49 122.996 260.993 123.755 260.726 124.605C260.458 125.455 260.431 126.362 260.647 127.226C260.862 128.09 261.313 128.878 261.948 129.503C262.584 130.127 263.379 130.564 264.247 130.764C265.115 130.965 266.021 130.922 266.866 130.639C267.711 130.357 268.462 129.847 269.035 129.165C269.608 128.483 269.981 127.656 270.114 126.775L280.061 112.986L281.294 96.5596Z" fill="#FFB6B6"/>
<path d="M235.786 97.2782L226.676 93.0195L216.728 105.335L205.662 108.134C204.868 107.73 203.978 107.552 203.09 107.622C202.202 107.691 201.351 108.005 200.63 108.528C199.909 109.051 199.346 109.763 199.005 110.586C198.663 111.409 198.556 112.31 198.694 113.19C198.832 114.07 199.211 114.894 199.789 115.573C200.366 116.251 201.12 116.756 201.967 117.033C202.814 117.309 203.72 117.347 204.587 117.14C205.453 116.934 206.246 116.492 206.877 115.864L223.082 110.714L235.786 97.2782Z" fill="#FFB6B6"/>
<path d="M264.441 60.6261L267.838 56.3884C268.205 56.017 268.443 55.5384 268.519 55.022C268.537 54.504 268.049 53.9494 267.557 54.1117C267.1 54.2624 264.467 47.6665 263.986 47.6678C263.488 47.6692 263.325 47.0045 263.319 46.5059C263.295 44.6166 264.83 46.6453 265.338 44.8254C265.846 43.0054 267.825 44.5702 269.531 43.7574C271.236 42.9446 273.554 43.3138 274.608 44.8816C275.39 46.0441 275.361 47.5545 275.257 48.9516C275.017 52.1936 274.529 55.4125 273.798 58.5803C273.619 59.3585 273.352 60.228 272.634 60.5794C272.24 60.7358 271.814 60.7993 271.391 60.7652L266.161 60.7394" fill="#2F2E41"/>
<path d="M272.591 42.4074C275.261 42.4074 277.426 40.2426 277.426 37.5723C277.426 34.902 275.261 32.7373 272.591 32.7373C269.921 32.7373 267.756 34.902 267.756 37.5723C267.756 40.2426 269.921 42.4074 272.591 42.4074Z" fill="#2F2E41"/>
<path d="M283.465 96.6517C282.943 97.5606 281.831 97.9233 280.815 98.2037C279.442 98.5857 279.041 98.9725 277.668 99.3544C277.121 99.5092 276.57 99.6639 276.019 99.8041C275.114 100.048 274.196 100.237 273.268 100.37C272.489 100.481 271.571 100.481 271.063 99.8766C270.726 99.3576 270.591 98.7336 270.681 98.1215C270.879 90.6949 271.079 83.2683 271.281 75.8417L271.701 75.9867C271.891 75.8618 272.088 75.7488 272.291 75.6483C273.259 75.1552 274.333 74.9078 275.42 74.9279C276.041 74.9329 276.658 75.029 277.252 75.2132C278.174 75.5057 279.02 75.9954 279.733 76.6484C280.446 77.3014 281.009 78.1018 281.381 78.9941C281.863 80.3411 282.093 81.7655 282.058 83.1958C282.063 83.4134 282.063 83.6309 282.068 83.8485C282.097 85.7052 281.154 87.5618 281.183 89.4185C281.161 89.9412 281.233 90.4636 281.396 90.9608C281.589 91.454 281.966 91.865 282.111 92.3775C282.256 92.8852 282.019 93.5814 281.492 93.6201C281.865 93.5804 282.241 93.6445 282.579 93.8052C282.917 93.966 283.204 94.2172 283.408 94.531C283.612 94.8448 283.726 95.2091 283.736 95.5833C283.746 95.9576 283.652 96.3274 283.465 96.6517L283.465 96.6517Z" fill="#3F3D56"/>
<path d="M240.237 74.3613C241.203 74.4195 242.145 74.6904 242.996 75.1547C243.846 75.6189 244.583 76.2651 245.154 77.0471C245.726 77.8291 246.118 78.7276 246.302 79.6786C246.486 80.6295 246.459 81.6094 246.22 82.5483C245.816 84.1418 244.837 85.5183 243.878 86.8534L240.628 91.3763C240.299 91.7817 240.045 92.2435 239.88 92.7392C239.743 93.2521 239.797 93.808 239.61 94.3047C239.423 94.8013 238.819 95.2179 238.372 94.9331C238.694 95.1231 238.958 95.3985 239.134 95.729C239.31 96.0595 239.391 96.4321 239.368 96.8058C239.346 97.1795 239.22 97.5397 239.006 97.8466C238.791 98.1535 238.496 98.3952 238.153 98.5449C237.189 98.9657 236.081 98.5903 235.099 98.2142L231.108 96.687C229.689 96.1805 228.306 95.5777 226.968 94.8828C226.278 94.5035 225.54 93.9575 225.491 93.171C225.453 92.5588 225.971 92.0885 226.23 91.5328C229.48 84.5743 234.26 79.0374 240.196 74.3193L240.237 74.3613Z" fill="#3F3D56"/>
<path d="M247.909 165.484C251.698 165.484 254.77 162.412 254.77 158.623C254.77 154.834 251.698 151.763 247.909 151.763C244.12 151.763 241.049 154.834 241.049 158.623C241.049 162.412 244.12 165.484 247.909 165.484Z" fill="white"/>
<path d="M247.91 165.568C246.536 165.568 245.194 165.161 244.052 164.398C242.91 163.635 242.02 162.55 241.494 161.281C240.968 160.012 240.831 158.616 241.099 157.269C241.367 155.922 242.028 154.685 242.999 153.714C243.97 152.742 245.208 152.081 246.555 151.813C247.902 151.545 249.298 151.683 250.567 152.208C251.836 152.734 252.92 153.624 253.683 154.766C254.446 155.908 254.854 157.25 254.854 158.624C254.852 160.465 254.119 162.23 252.817 163.532C251.516 164.834 249.751 165.566 247.91 165.568Z" fill="#1890FF"/>
<path d="M247.396 161.365C247.381 161.365 247.366 161.365 247.352 161.364C247.223 161.358 247.096 161.323 246.981 161.264C246.867 161.204 246.766 161.12 246.687 161.018L245.54 159.544C245.468 159.451 245.415 159.345 245.383 159.231C245.352 159.118 245.343 158.999 245.358 158.882C245.373 158.765 245.41 158.652 245.468 158.549C245.527 158.447 245.605 158.357 245.698 158.285L245.739 158.252C245.832 158.18 245.938 158.127 246.052 158.095C246.166 158.064 246.284 158.055 246.401 158.07C246.518 158.085 246.631 158.122 246.734 158.181C246.836 158.239 246.926 158.317 246.999 158.41C247.057 158.484 247.13 158.545 247.214 158.589C247.297 158.632 247.389 158.657 247.483 158.662C247.578 158.666 247.672 158.65 247.759 158.615C247.847 158.58 247.925 158.527 247.99 158.458L250.318 156.001C250.482 155.828 250.708 155.727 250.945 155.721C251.183 155.715 251.414 155.803 251.587 155.966L251.625 156.003C251.711 156.084 251.78 156.181 251.828 156.288C251.876 156.396 251.902 156.512 251.905 156.63C251.908 156.748 251.888 156.865 251.846 156.975C251.804 157.085 251.741 157.186 251.66 157.271L248.047 161.085C247.963 161.173 247.862 161.244 247.75 161.292C247.638 161.34 247.518 161.365 247.396 161.365Z" fill="white"/>
<path d="M198.993 120.749L181.91 99.8314C181.326 99.1151 181.05 98.1965 181.143 97.2771C181.236 96.3578 181.69 95.5128 182.405 94.9275L186.964 91.2042C187.68 90.6205 188.598 90.3448 189.518 90.4376C190.437 90.5303 191.282 90.984 191.867 91.699L208.951 112.617C209.535 113.333 209.81 114.252 209.718 115.171C209.625 116.091 209.171 116.936 208.456 117.521L203.897 121.244C203.181 121.828 202.262 122.104 201.343 122.011C200.424 121.918 199.579 121.464 198.993 120.749Z" fill="#3F3D56"/>
<path d="M208.096 113.018L203.522 107.42L201.139 104.504L191.009 92.1022C190.854 91.9111 190.662 91.7527 190.445 91.6359C190.228 91.5191 189.99 91.4462 189.745 91.4215C189.499 91.3968 189.252 91.4208 189.016 91.4919C188.78 91.5631 188.56 91.6801 188.369 91.8362L183.81 95.5592C183.619 95.7149 183.461 95.9068 183.344 96.1238C183.227 96.3409 183.154 96.5788 183.13 96.824C183.105 97.0692 183.129 97.3169 183.2 97.5529C183.271 97.7888 183.388 98.0084 183.544 98.1991L183.554 98.2136L192.107 108.686L200.626 119.12C200.942 119.505 201.398 119.749 201.894 119.799C202.389 119.849 202.885 119.701 203.271 119.386L207.826 115.663C208.211 115.348 208.456 114.892 208.507 114.397C208.557 113.901 208.41 113.406 208.096 113.018Z" fill="#1890FF"/>
<path d="M194.747 103.329C194.748 104.364 194.51 105.386 194.052 106.315C193.594 107.244 192.929 108.056 192.107 108.686L183.554 98.2131C184.534 97.3633 185.737 96.8132 187.021 96.6285C188.305 96.4438 189.615 96.6323 190.795 97.1715C191.975 97.7107 192.975 98.5778 193.676 99.6695C194.376 100.761 194.748 102.031 194.747 103.329Z" fill="#3F3D56"/>
<path d="M196.01 99.8487C196.242 100.681 195.643 101.679 194.325 102.66C194.062 102.856 193.687 102.95 193.468 103.233C193.006 103.875 192.376 104.377 191.647 104.684C190.919 104.991 190.12 105.092 189.338 104.975C189.246 104.916 189.154 104.856 189.063 104.793C189.08 104.789 189.097 104.784 189.114 104.779C190.675 104.364 192.168 103.728 193.549 102.89C193.77 102.75 194.114 102.697 194.177 102.46C194.684 100.559 195.822 100.421 195.77 99.9153C195.696 99.1761 194.595 98.7049 193.092 98.5577C192.943 98.5431 192.791 98.532 192.636 98.5244C192.574 98.4369 192.511 98.3512 192.445 98.2676C192.676 98.2748 192.9 98.2889 193.116 98.3099C194.751 98.4699 195.779 99.0165 196.01 99.8487Z" fill="white"/>
<path d="M188.913 101.09C189.835 101.09 190.584 100.342 190.584 99.419C190.584 98.4961 189.835 97.748 188.913 97.748C187.99 97.748 187.242 98.4961 187.242 99.419C187.242 100.342 187.99 101.09 188.913 101.09Z" fill="white"/>
<path d="M197.702 110.469C197.945 110.469 198.141 110.272 198.141 110.03C198.141 109.787 197.945 109.591 197.702 109.591C197.46 109.591 197.263 109.787 197.263 110.03C197.263 110.272 197.46 110.469 197.702 110.469Z" fill="white"/>
<path d="M204.955 112.403C205.197 112.403 205.393 112.207 205.393 111.964C205.393 111.722 205.197 111.525 204.955 111.525C204.712 111.525 204.516 111.722 204.516 111.964C204.516 112.207 204.712 112.403 204.955 112.403Z" fill="white"/>
<path d="M188.999 94.5136C189.241 94.5136 189.438 94.3171 189.438 94.0747C189.438 93.8323 189.241 93.6357 188.999 93.6357C188.757 93.6357 188.56 93.8323 188.56 94.0747C188.56 94.3171 188.757 94.5136 188.999 94.5136Z" fill="white"/>
<path d="M201.57 115.304C201.812 115.304 202.009 115.107 202.009 114.865C202.009 114.622 201.812 114.426 201.57 114.426C201.327 114.426 201.131 114.622 201.131 114.865C201.131 115.107 201.327 115.304 201.57 115.304Z" fill="white"/>
<path d="M191.015 101.402C191.109 101.402 191.186 101.325 191.186 101.23C191.186 101.136 191.109 101.059 191.015 101.059C190.92 101.059 190.843 101.136 190.843 101.23C190.843 101.325 190.92 101.402 191.015 101.402Z" fill="#F0F0F0"/>
<path d="M193.915 104.787C194.01 104.787 194.087 104.71 194.087 104.615C194.087 104.52 194.01 104.443 193.915 104.443C193.821 104.443 193.744 104.52 193.744 104.615C193.744 104.71 193.821 104.787 193.915 104.787Z" fill="#F0F0F0"/>
<path d="M185.213 98.9853C185.308 98.9853 185.385 98.9083 185.385 98.8134C185.385 98.7185 185.308 98.6416 185.213 98.6416C185.118 98.6416 185.041 98.7185 185.041 98.8134C185.041 98.9083 185.118 98.9853 185.213 98.9853Z" fill="#F0F0F0"/>
<path d="M203.523 107.419C203.344 107.649 203.117 107.835 202.857 107.964C202.597 108.093 202.311 108.162 202.021 108.166C201.731 108.169 201.444 108.108 201.18 107.985C200.917 107.862 200.685 107.682 200.502 107.457C200.318 107.232 200.187 106.969 200.119 106.687C200.051 106.405 200.048 106.111 200.109 105.827C200.17 105.543 200.294 105.277 200.473 105.048C200.651 104.819 200.879 104.633 201.139 104.504L203.523 107.419Z" fill="#FF6584"/>
</g>
<defs>
<clipPath id="clip0_1683_73261">
<rect width="317.018" height="200" fill="white" transform="translate(0.490723)"/>
</clipPath>
</defs>
</svg>
