<svg width="180" height="153" viewBox="0 0 180 153" fill="none" xmlns="http://www.w3.org/2000/svg">
<g clip-path="url(#clip0_3733_84270)">
<path d="M60.1188 152.873C92.3323 152.873 118.447 147.782 118.447 141.502C118.447 135.222 92.3323 130.132 60.1188 130.132C27.9052 130.132 1.79102 135.222 1.79102 141.502C1.79102 147.782 27.9052 152.873 60.1188 152.873Z" fill="#3F3D56"/>
<path d="M13.4288 138.765C13.4288 138.765 2.6139 135.857 0.573483 136.072C-1.46694 136.287 3.66464 126.099 7.08219 127.342C10.4997 128.584 15.0565 131.852 17.6612 127.236C20.2659 122.621 21.7273 120.136 24.9006 120.384C28.0739 120.633 32.4684 118.399 35.6396 120.384C38.8108 122.37 41.0386 124.819 45.4185 124.714C49.7983 124.608 53.9507 114.672 57.362 118.647C60.7732 122.623 64.8646 126.259 68.0715 124.937C71.2785 123.614 74.9382 125.602 77.8672 127.838C80.7963 130.075 85.9236 129.081 87.8756 127.342C89.8276 125.602 91.2952 124.36 95.4435 124.604C99.5917 124.848 112.775 127.834 117.659 131.553C122.542 135.272 111.312 140.001 105.94 140.001C100.569 140.001 99.5938 141.492 94.955 143.728C90.3161 145.964 82.7419 142.486 77.3787 146.213C72.0155 149.94 65.1657 144.225 55.9006 146.213C46.6356 148.201 48.577 150.932 43.2054 148.95C37.8338 146.969 39.7878 146.213 31.9757 145.72C24.1636 145.227 15.6208 146.962 14.888 143.732C14.1552 140.502 9.27843 139.757 6.3473 138.763C3.41617 137.769 13.4288 138.765 13.4288 138.765Z" fill="#3F3D56"/>
<path d="M148.135 111.964L148.556 111.694L148.68 111.614C147.758 111.458 146.917 110.992 146.295 110.293C145.673 109.595 145.307 108.705 145.258 107.771C145.209 106.837 145.48 105.915 146.025 105.155C146.571 104.395 147.358 103.844 148.259 103.592L148.238 105.289L149.171 103.442C149.711 103.417 150.251 103.498 150.76 103.682C151.269 103.865 151.737 104.147 152.136 104.512C152.536 104.876 152.861 105.315 153.091 105.805C153.321 106.295 153.452 106.825 153.477 107.365C153.477 107.445 153.477 107.521 153.477 107.599C153.806 107.241 154.08 106.837 154.29 106.398C154.686 105.516 154.692 104.52 154.663 103.307C154.599 100.907 154.496 98.4873 154.361 96.0742C153.388 95.9665 152.484 95.5147 151.814 94.8002C151.143 94.0857 150.75 93.1553 150.704 92.1766C150.697 92.0524 150.697 91.928 150.704 91.8039C150.704 91.7723 150.704 91.7407 150.704 91.7112C150.704 91.5912 150.723 91.4733 150.742 91.3553C150.741 91.3364 150.741 91.3174 150.742 91.2985C150.756 91.1995 150.777 91.1027 150.801 91.0058C150.801 90.97 150.82 90.9342 150.828 90.8984C150.858 90.7931 150.889 90.6878 150.927 90.5868C150.94 90.5531 150.952 90.5215 150.967 90.4878C150.997 90.412 151.028 90.3383 151.062 90.2646C151.079 90.2267 151.095 90.1867 151.114 90.1488L151.129 90.1193C151.565 89.2598 152.288 88.5802 153.173 88.1985C154.058 87.8169 155.048 87.7574 155.972 88.0304L155.945 90.2393L156.867 88.4158C157.465 88.76 157.966 89.249 158.325 89.8377C158.684 90.4265 158.89 91.0961 158.922 91.7849C158.939 92.1418 158.909 92.4994 158.832 92.8483V92.8483C158.832 92.8778 158.815 92.9051 158.809 92.9346C158.802 92.9641 158.781 93.0441 158.767 93.0968C158.752 93.1494 158.727 93.2336 158.703 93.3073C158.68 93.381 158.67 93.4084 158.651 93.4589C158.632 93.5095 158.59 93.6021 158.558 93.6695C158.539 93.7095 158.522 93.7516 158.503 93.7937C158.451 93.899 158.394 94.0043 158.333 94.1054C158.312 94.1412 158.286 94.1749 158.265 94.2086C158.221 94.2759 158.177 94.3454 158.128 94.4191C158.08 94.4928 158.067 94.4991 158.036 94.5371C158.004 94.575 157.945 94.6508 157.897 94.7055C157.848 94.7603 157.827 94.7813 157.792 94.8192C157.756 94.8571 157.691 94.9245 157.636 94.975L157.528 95.0761L157.341 95.2319L157.244 95.3077C157.145 95.3793 157.046 95.4467 156.941 95.5183L156.882 95.552C156.795 95.605 156.706 95.6535 156.614 95.6973L156.497 95.7499C156.423 95.7836 156.347 95.8173 156.269 95.8447L156.134 95.8931C156.059 95.9205 155.983 95.9436 155.905 95.9647L155.766 96.0005C155.682 96.0216 155.595 96.0384 155.509 96.0531H155.492C155.548 97.0723 155.599 98.0908 155.644 99.1085C155.889 98.6042 156.235 98.1554 156.66 97.7896C157.085 97.4238 157.58 97.1488 158.115 96.9814C158.651 96.8139 159.214 96.7577 159.772 96.8161C160.33 96.8744 160.87 97.0462 161.359 97.3208L160.632 99.317L162.129 97.8788C162.932 98.6126 163.411 99.635 163.46 100.721C163.479 101.103 163.443 101.485 163.355 101.856C163.168 102.662 162.744 103.393 162.136 103.954C161.528 104.515 160.765 104.88 159.947 105.001C159.129 105.122 158.293 104.994 157.549 104.633C156.805 104.273 156.186 103.696 155.774 102.979C155.774 103.082 155.774 103.189 155.774 103.288C155.802 104.358 155.835 105.689 155.303 106.868C154.922 107.634 154.408 108.327 153.787 108.915C153.412 109.296 153.024 109.664 152.628 110.022C152.237 110.546 151.727 110.97 151.14 111.258C150.487 111.761 149.812 112.232 149.114 112.671L148.75 112.937C148.358 113.181 147.956 113.429 147.562 113.688L147.773 113.671C148.645 113.631 149.508 113.868 150.237 114.35C150.965 114.832 151.522 115.533 151.826 116.352L149.253 118.458L152.085 117.801C152.083 118.496 151.904 119.179 151.567 119.786C151.23 120.394 150.745 120.907 150.157 121.277C149.569 121.647 148.897 121.862 148.203 121.903C147.51 121.944 146.817 121.809 146.189 121.511C146.254 121.589 146.318 121.669 146.381 121.749L146.756 122.216C148.44 124.339 148.897 126.352 148.067 127.887L147.059 127.342C147.865 125.847 146.652 123.935 145.856 122.92C145.736 122.766 145.612 122.612 145.488 122.459C144.418 121.13 143.205 119.622 143.235 117.773C143.256 114.985 145.962 113.309 148.135 111.964Z" fill="#F1F1F1"/>
<path d="M127.783 109.157L127.137 108.753C127.074 108.715 127.013 108.675 126.952 108.635C128.331 108.398 129.589 107.7 130.519 106.654C131.449 105.608 131.995 104.277 132.069 102.88C132.142 101.482 131.738 100.101 130.923 98.9635C130.108 97.826 128.93 96.9994 127.583 96.6196L127.615 99.1612L126.219 96.3964H126.202C125.393 96.3588 124.584 96.4809 123.822 96.7558C123.06 97.0306 122.36 97.4529 121.761 97.9984C121.163 98.544 120.677 99.2021 120.333 99.9353C119.988 100.668 119.792 101.462 119.754 102.271C119.754 102.389 119.754 102.505 119.754 102.621C119.261 102.084 118.85 101.478 118.535 100.821C117.943 99.5023 117.933 98.0094 117.979 96.188C118.072 92.5915 118.228 88.9676 118.43 85.3563C119.887 85.1941 121.239 84.5175 122.243 83.448C123.246 82.3785 123.835 80.9863 123.905 79.5214C123.905 79.3319 123.905 79.1466 123.905 78.9613V78.8223C123.892 78.6433 123.875 78.4665 123.848 78.2917C123.848 78.2622 123.848 78.2348 123.833 78.2054C123.808 78.058 123.776 77.9127 123.74 77.7674C123.728 77.7126 123.715 77.66 123.7 77.6052C123.656 77.4473 123.61 77.2936 123.553 77.1399C123.536 77.0893 123.515 77.0409 123.494 76.9904C123.45 76.8767 123.403 76.7672 123.353 76.6577C123.326 76.5987 123.3 76.5419 123.273 76.485C123.265 76.4707 123.258 76.4559 123.252 76.4408C122.759 75.4685 122.017 74.6443 121.101 74.0524C120.185 73.4606 119.129 73.1221 118.04 73.0717C117.355 73.0408 116.669 73.1234 116.01 73.3159L116.05 76.624L114.671 73.8866C113.535 74.5348 112.636 75.5294 112.106 76.7251C111.575 77.9208 111.441 79.2548 111.723 80.5321V80.5321C111.723 80.5743 111.746 80.6164 111.757 80.6606C111.776 80.7427 111.797 80.8227 111.818 80.9027C111.839 80.9828 111.881 81.1133 111.915 81.2081C111.948 81.3028 111.965 81.3597 111.995 81.4334C112.035 81.5429 112.083 81.644 112.132 81.7556C112.159 81.8187 112.184 81.8819 112.214 81.943C112.292 82.1009 112.376 82.2567 112.469 82.4083C112.5 82.4631 112.536 82.5136 112.57 82.5641C112.637 82.6673 112.702 82.7747 112.78 82.8674C112.824 82.9284 112.873 82.9853 112.919 83.0442C112.965 83.1032 113.056 83.2148 113.13 83.2969L113.286 83.4675C113.361 83.5475 113.439 83.6254 113.519 83.7012L113.681 83.8507C113.772 83.9307 113.867 84.0086 113.964 84.0823C114.012 84.1202 114.058 84.1603 114.109 84.1982C114.254 84.3055 114.404 84.4087 114.559 84.5014C114.589 84.5203 114.621 84.5351 114.65 84.5519C114.781 84.6277 114.913 84.7014 115.048 84.7625L115.227 84.8425C115.339 84.893 115.45 84.9415 115.566 84.9836C115.633 85.011 115.701 85.0341 115.777 85.0573C115.89 85.0952 116.006 85.131 116.122 85.1626L116.332 85.2173C116.461 85.2468 116.589 85.2721 116.718 85.2952H116.743C116.656 86.8198 116.58 88.3443 116.516 89.8688C116.148 89.1139 115.63 88.442 114.993 87.8946C114.356 87.3471 113.614 86.9355 112.813 86.6851C112.011 86.4347 111.167 86.3507 110.332 86.4383C109.497 86.5259 108.688 86.7833 107.956 87.1946L109.047 90.1804L106.804 88.0284C106.209 88.5723 105.726 89.2283 105.384 89.9589C105.042 90.6895 104.848 91.4803 104.812 92.2861C104.784 92.8571 104.836 93.4292 104.968 93.9854C105.249 95.1893 105.885 96.2809 106.794 97.1186C107.702 97.9563 108.842 98.5014 110.065 98.683C111.288 98.8647 112.537 98.6745 113.65 98.1372C114.763 97.5999 115.689 96.7403 116.307 95.67C116.307 95.8258 116.307 95.9816 116.292 96.1353C116.252 97.7378 116.2 99.7298 116.998 101.509C117.539 102.716 118.411 103.693 119.27 104.571C119.831 105.144 120.41 105.697 121.005 106.23C121.589 107.016 122.352 107.651 123.231 108.083C124.213 108.834 125.226 109.536 126.267 110.189L126.92 110.593C127.505 110.957 128.108 111.332 128.697 111.72C128.594 111.72 128.487 111.699 128.385 111.694C127.079 111.633 125.786 111.988 124.695 112.71C123.603 113.431 122.77 114.481 122.315 115.708L126.166 118.843L121.927 117.862C121.929 118.905 122.195 119.93 122.701 120.842C123.206 121.754 123.934 122.524 124.817 123.078C125.7 123.633 126.71 123.955 127.751 124.014C128.792 124.073 129.831 123.868 130.771 123.417C130.674 123.535 130.58 123.653 130.485 123.773C130.295 124.008 130.106 124.242 129.923 124.474C127.415 127.651 126.718 130.665 127.958 132.964L129.47 132.149C128.261 129.911 130.078 127.047 131.27 125.539C131.449 125.31 131.635 125.08 131.822 124.849C133.424 122.859 135.24 120.601 135.191 117.835C135.088 113.684 131.039 111.181 127.783 109.157Z" fill="#F1F1F1"/>
<path d="M96.5448 140.989C96.5448 140.989 89.257 139.06 87.884 139.201C86.5111 139.342 89.9666 132.602 92.2681 133.423C94.5696 134.244 97.6418 136.409 99.3959 133.353C101.15 130.298 102.133 128.653 104.275 128.818C106.416 128.982 109.373 127.502 111.51 128.818C113.647 130.134 115.146 131.753 118.099 131.684C121.051 131.614 123.845 125.036 126.147 127.666C128.448 130.296 131.2 132.707 133.361 131.831C135.521 130.955 137.993 132.271 139.962 133.751C141.931 135.232 145.388 134.575 146.7 133.423C148.012 132.271 149.004 131.45 151.8 131.614C154.597 131.778 163.476 133.751 166.765 136.219C170.055 138.687 162.489 141.81 158.871 141.81C155.254 141.81 154.595 142.797 151.47 144.278C148.345 145.758 143.247 143.454 139.629 145.922C136.012 148.39 131.407 144.606 125.157 145.922C118.907 147.238 120.223 149.047 116.604 147.731C112.984 146.415 114.302 145.922 109.04 145.594C103.778 145.265 98.0209 146.415 97.526 144.278C97.0312 142.14 93.7358 141.646 91.7711 140.989C89.8065 140.332 96.5448 140.989 96.5448 140.989Z" fill="#3F3D56"/>
<path d="M156.902 118.251L154.081 126.899L153.959 127.276L149.236 141.755L141.15 147.219L101.885 130.709L105.606 115.661L105.803 114.87L107.795 106.815L107.8 106.796L119.886 105.284L156.902 118.251Z" fill="#F8CE6D"/>
<path opacity="0.1" d="M156.903 118.251L149.236 141.755L141.15 147.219L148.573 121.57L107.796 106.815L107.8 106.796L119.887 105.284L156.903 118.251Z" fill="#0A0B0C"/>
<path opacity="0.1" d="M116.606 108.428L115.955 108.032L122.479 107.348L150.425 117.228L149.638 117.641L122.068 107.919L116.606 108.428Z" fill="#0A0B0C"/>
<path opacity="0.1" d="M154.081 126.9L145.919 130.738L105.803 114.87L105.605 115.661L145.757 131.303L153.959 127.276" fill="#0A0B0C"/>
<path d="M110.648 112.496C110.878 111.756 110.416 110.954 109.617 110.706C108.817 110.457 107.982 110.857 107.752 111.597C107.522 112.338 107.984 113.14 108.784 113.388C109.584 113.637 110.418 113.237 110.648 112.496Z" fill="#3F3D56"/>
<path d="M146.006 126.186C146.236 125.445 145.774 124.644 144.974 124.395C144.175 124.147 143.34 124.546 143.11 125.287C142.88 126.028 143.342 126.83 144.141 127.078C144.941 127.326 145.776 126.927 146.006 126.186Z" fill="#3F3D56"/>
<path d="M140.418 143.189C140.648 142.448 140.186 141.646 139.386 141.398C138.587 141.15 137.752 141.549 137.522 142.29C137.292 143.031 137.754 143.832 138.553 144.081C139.353 144.329 140.188 143.93 140.418 143.189Z" fill="#3F3D56"/>
<path d="M106.323 128.923C106.553 128.183 106.091 127.381 105.292 127.133C104.492 126.884 103.657 127.284 103.427 128.024C103.197 128.765 103.659 129.567 104.459 129.815C105.258 130.064 106.093 129.664 106.323 128.923Z" fill="#3F3D56"/>
<path d="M112.578 107.681C112.494 107.954 111.818 107.681 110.959 107.411C110.099 107.142 109.43 106.847 109.514 106.569C109.598 106.291 110.407 106.148 111.266 106.415C112.125 106.683 112.664 107.407 112.578 107.681Z" fill="#3F3D56"/>
<path d="M116.903 106.694C116.988 106.421 116.424 106.003 115.645 105.761C114.865 105.519 114.164 105.544 114.079 105.818C113.995 106.091 114.558 106.509 115.337 106.751C116.117 106.993 116.818 106.968 116.903 106.694Z" fill="#3F3D56"/>
<path d="M130.763 114.339C130.679 114.613 129.834 114.36 129.015 114.105C128.196 113.85 127.558 113.566 127.642 113.292C127.726 113.019 128.503 112.871 129.327 113.118C130.15 113.364 130.851 114.061 130.763 114.339Z" fill="#3F3D56"/>
<path d="M148.231 120.612C148.137 120.919 147.24 120.652 146.37 120.382C145.5 120.112 144.824 119.803 144.919 119.495C145.014 119.188 145.846 119.001 146.715 119.27C147.585 119.54 148.328 120.304 148.231 120.612Z" fill="#3F3D56"/>
<path d="M153.34 119.875C153.243 120.182 152.348 119.915 151.479 119.645C150.609 119.376 149.931 119.066 150.028 118.759C150.125 118.451 150.954 118.264 151.824 118.534C152.694 118.803 153.435 119.567 153.34 119.875Z" fill="#3F3D56"/>
<path d="M155.858 118.374C155.761 118.681 155.016 118.462 154.304 118.239C153.592 118.016 153.041 117.746 153.127 117.439C153.213 117.131 153.931 116.904 154.65 117.127C155.368 117.35 155.953 118.066 155.858 118.374Z" fill="#3F3D56"/>
<path d="M138.99 112.22C138.914 112.465 138.147 112.239 137.419 112.01C136.69 111.78 136.107 111.523 136.185 111.279C136.263 111.035 136.958 110.894 137.695 111.121C138.432 111.349 139.063 111.974 138.99 112.22Z" fill="#3F3D56"/>
<path d="M122.595 106.448C122.68 106.175 122.203 105.784 121.53 105.575C120.857 105.366 120.242 105.418 120.158 105.691C120.073 105.964 120.55 106.355 121.223 106.564C121.896 106.773 122.51 106.721 122.595 106.448Z" fill="#3F3D56"/>
<path opacity="0.1" d="M130.219 122.604C130.308 122.315 130.297 122.003 130.186 121.722C130.075 121.44 129.871 121.204 129.608 121.054C129.733 120.912 129.827 120.744 129.884 120.563C129.952 120.344 129.962 120.11 129.913 119.885C129.864 119.66 129.758 119.452 129.604 119.28C129.451 119.109 129.255 118.98 129.037 118.907C128.819 118.834 128.585 118.818 128.359 118.862C128.448 118.556 128.424 118.229 128.293 117.939C128.161 117.65 127.929 117.417 127.64 117.283C127.352 117.149 127.024 117.124 126.718 117.21C126.412 117.297 126.147 117.491 125.972 117.756C125.8 117.633 125.602 117.551 125.393 117.519C125.184 117.487 124.971 117.506 124.77 117.572C124.57 117.639 124.388 117.753 124.241 117.904C124.093 118.055 123.983 118.239 123.921 118.441C123.921 118.47 123.906 118.498 123.9 118.525L123.853 118.548C123.705 118.415 123.53 118.317 123.339 118.261C123.148 118.204 122.947 118.192 122.751 118.223C122.554 118.255 122.367 118.33 122.204 118.444C122.041 118.557 121.905 118.706 121.806 118.879C121.708 119.051 121.649 119.244 121.635 119.443C121.621 119.641 121.652 119.84 121.725 120.025C121.798 120.21 121.911 120.377 122.057 120.512C122.202 120.647 122.377 120.748 122.567 120.808C122.635 120.829 122.706 120.845 122.777 120.854L122.794 121.342L129.166 123.947L129.124 123.526C129.375 123.492 129.611 123.387 129.805 123.224C129.999 123.061 130.143 122.846 130.219 122.604V122.604Z" fill="#0A0B0C"/>
<path opacity="0.1" d="M128.731 126.786C128.594 127.056 128.37 127.272 128.094 127.398C127.819 127.524 127.508 127.553 127.215 127.478C127.208 127.668 127.159 127.853 127.073 128.022C126.995 128.178 126.887 128.317 126.754 128.432C126.622 128.546 126.468 128.633 126.302 128.688C126.136 128.743 125.961 128.765 125.787 128.752C125.612 128.739 125.442 128.692 125.286 128.613C125.091 128.515 124.922 128.37 124.795 128.192C124.646 128.473 124.402 128.69 124.107 128.806C123.811 128.922 123.484 128.929 123.184 128.825C122.884 128.721 122.631 128.514 122.471 128.24C122.311 127.966 122.254 127.643 122.31 127.331C122.164 127.311 122.022 127.267 121.889 127.201C121.574 127.042 121.335 126.765 121.224 126.43C121.113 126.095 121.139 125.73 121.298 125.415L121.34 125.337L121.323 125.289C121.13 125.283 120.941 125.234 120.769 125.147C120.453 124.987 120.213 124.708 120.103 124.371C119.992 124.034 120.02 123.667 120.18 123.35C120.341 123.034 120.62 122.794 120.957 122.684C121.294 122.573 121.661 122.601 121.978 122.762C122.04 122.793 122.1 122.829 122.157 122.869L122.506 122.53L128.916 125.093L128.594 125.366C128.749 125.566 128.844 125.805 128.868 126.056C128.893 126.308 128.845 126.561 128.731 126.786Z" fill="#0A0B0C"/>
<path opacity="0.1" d="M124.818 119.738L123.27 124.754C123.156 125.121 123.187 125.519 123.356 125.865C123.526 126.21 123.821 126.478 124.182 126.613V126.613C124.374 126.684 124.578 126.716 124.782 126.705C124.987 126.695 125.187 126.643 125.371 126.553C125.554 126.463 125.718 126.336 125.851 126.18C125.984 126.025 126.084 125.844 126.144 125.649L127.692 120.631C127.751 120.436 127.77 120.231 127.748 120.029C127.726 119.827 127.663 119.631 127.563 119.454C127.463 119.277 127.328 119.122 127.166 118.998C127.005 118.875 126.819 118.785 126.622 118.736C126.25 118.641 125.856 118.692 125.521 118.878C125.185 119.064 124.934 119.372 124.818 119.738V119.738Z" fill="#0A0B0C"/>
<path d="M124.886 120.044L123.481 124.541C123.378 124.871 123.406 125.228 123.558 125.538C123.711 125.848 123.976 126.087 124.3 126.207C124.472 126.271 124.655 126.299 124.839 126.289C125.022 126.28 125.201 126.233 125.366 126.152C125.53 126.071 125.676 125.958 125.796 125.818C125.915 125.679 126.004 125.517 126.059 125.341L127.455 120.842C127.509 120.666 127.527 120.482 127.507 120.299C127.488 120.117 127.432 119.94 127.342 119.78C127.252 119.62 127.13 119.48 126.985 119.369C126.839 119.257 126.672 119.177 126.494 119.132V119.132C126.161 119.051 125.809 119.1 125.51 119.27C125.211 119.439 124.988 119.716 124.886 120.044V120.044Z" fill="#3F3D56"/>
<path d="M106.576 143.29C106.576 143.29 99.2882 141.361 97.9153 141.505C96.5424 141.648 99.9978 134.903 102.299 135.726C104.601 136.55 107.673 138.71 109.427 135.655C111.181 132.6 112.165 130.957 114.306 131.121C116.448 131.286 119.404 129.805 121.541 131.121C123.678 132.437 125.178 134.055 128.13 133.985C131.082 133.916 133.876 127.337 136.18 129.97C138.484 132.602 141.234 135.008 143.394 134.135C145.555 133.261 148.027 134.575 149.993 136.055C151.96 137.535 155.422 136.876 156.732 135.726C158.041 134.577 159.033 133.751 161.829 133.916C164.626 134.08 173.506 136.055 176.795 138.521C180.084 140.987 172.52 144.113 168.9 144.113C165.281 144.113 164.626 145.099 161.501 146.579C158.376 148.06 153.276 145.758 149.659 148.224C146.041 150.69 141.436 146.91 135.186 148.224C128.936 149.538 130.252 151.349 126.635 150.035C123.017 148.721 124.331 148.224 119.069 147.895C113.807 147.567 108.05 148.719 107.557 146.579C107.065 144.44 103.778 143.949 101.802 143.29C99.8273 142.631 106.576 143.29 106.576 143.29Z" fill="#3F3D56"/>
<path d="M168.436 137.748C169.068 136.588 168.352 135.165 167.535 134.131C166.718 133.097 165.72 132.025 165.741 130.7C165.772 128.805 167.783 127.687 169.39 126.681C170.583 125.936 171.683 125.052 172.666 124.046C173.079 123.661 173.42 123.204 173.673 122.699C174.005 121.958 173.997 121.115 173.976 120.305C173.907 117.601 173.773 114.899 173.574 112.2" stroke="#3F3D56" stroke-width="0.842278" stroke-miterlimit="10"/>
<path d="M176.628 112.052C176.606 111.557 176.459 111.076 176.202 110.653C175.944 110.23 175.584 109.878 175.154 109.631L174.493 110.941L174.514 109.355C174.198 109.262 173.869 109.222 173.539 109.237C172.958 109.266 172.398 109.466 171.93 109.813C171.462 110.16 171.107 110.638 170.911 111.186C170.714 111.734 170.684 112.328 170.824 112.893C170.965 113.458 171.27 113.969 171.7 114.361C172.131 114.753 172.668 115.009 173.244 115.096C173.819 115.183 174.408 115.098 174.935 114.851C175.463 114.604 175.905 114.207 176.207 113.709C176.509 113.21 176.656 112.634 176.63 112.052H176.628Z" fill="#57B793"/>
<path d="M171.358 132.054C171.048 132.655 170.541 133.131 169.922 133.403C169.302 133.674 168.609 133.724 167.957 133.545C167.305 133.366 166.734 132.968 166.341 132.418C165.947 131.869 165.755 131.2 165.795 130.525C165.836 129.851 166.107 129.21 166.564 128.712C167.021 128.213 167.635 127.887 168.303 127.787C168.972 127.687 169.655 127.82 170.237 128.164C170.819 128.508 171.265 129.041 171.501 129.675L169.654 131.185L171.686 130.715C171.684 131.181 171.572 131.64 171.358 132.054V132.054Z" fill="#57B793"/>
<path d="M169.899 126.316C169.165 126.367 168.438 126.142 167.862 125.685C167.285 125.227 166.901 124.571 166.784 123.845C166.667 123.118 166.825 122.374 167.229 121.759C167.632 121.144 168.251 120.701 168.964 120.519L168.949 121.736L169.617 120.412C170.005 120.392 170.393 120.449 170.759 120.58C171.125 120.711 171.462 120.913 171.75 121.174C172.037 121.436 172.271 121.752 172.436 122.104C172.601 122.455 172.695 122.837 172.712 123.225C172.729 123.566 172.687 123.907 172.586 124.234C172.408 124.816 172.054 125.328 171.573 125.701C171.092 126.074 170.507 126.289 169.899 126.316V126.316Z" fill="#57B793"/>
<path d="M177.073 121.542C176.619 121.559 176.168 121.471 175.754 121.284C175.34 121.098 174.975 120.819 174.687 120.468C174.399 120.117 174.195 119.704 174.093 119.262C173.99 118.82 173.991 118.36 174.096 117.918C174.2 117.477 174.405 117.065 174.695 116.715C174.984 116.366 175.351 116.088 175.766 115.903C176.18 115.719 176.632 115.632 177.086 115.651C177.539 115.67 177.982 115.793 178.38 116.011L177.858 117.443L178.932 116.411C179.508 116.938 179.851 117.672 179.886 118.451C179.9 118.725 179.875 118.999 179.812 119.266C179.666 119.892 179.32 120.454 178.825 120.865C178.331 121.276 177.715 121.514 177.073 121.542V121.542Z" fill="#57B793"/>
<path opacity="0.1" d="M176.231 112.84C175.549 112.913 174.886 113.126 174.201 113.168C173.517 113.21 172.765 113.048 172.333 112.515C172.1 112.229 171.982 111.867 171.786 111.553C171.599 111.262 171.343 111.021 171.041 110.852C170.862 111.225 170.764 111.631 170.753 112.044C170.742 112.457 170.817 112.868 170.975 113.249C171.133 113.631 171.369 113.976 171.669 114.26C171.968 114.545 172.324 114.764 172.713 114.902C173.103 115.04 173.517 115.095 173.929 115.063C174.341 115.031 174.741 114.913 175.104 114.716C175.468 114.519 175.786 114.248 176.037 113.921C176.289 113.593 176.469 113.216 176.566 112.814C176.455 112.819 176.343 112.827 176.231 112.84Z" fill="#0A0B0C"/>
<path opacity="0.1" d="M177.073 121.542C176.565 121.565 176.059 121.456 175.604 121.226C175.15 120.996 174.763 120.653 174.48 120.229C174.198 119.806 174.029 119.316 173.991 118.809C173.953 118.301 174.046 117.792 174.262 117.331C174.498 117.486 174.701 117.686 174.86 117.918C175.071 118.236 175.199 118.605 175.448 118.895C175.907 119.437 176.692 119.614 177.406 119.582C178.12 119.55 178.808 119.346 179.512 119.281C179.611 119.281 179.722 119.266 179.811 119.264C179.665 119.89 179.319 120.452 178.825 120.863C178.331 121.275 177.716 121.513 177.073 121.542Z" fill="#0A0B0C"/>
<path opacity="0.1" d="M169.898 126.316C169.394 126.341 168.891 126.236 168.439 126.011C167.987 125.785 167.6 125.448 167.316 125.03C167.032 124.612 166.86 124.129 166.817 123.625C166.773 123.122 166.86 122.616 167.068 122.156C167.314 122.315 167.528 122.519 167.7 122.756C167.93 123.08 168.073 123.455 168.332 123.754C168.831 124.308 169.669 124.503 170.425 124.487C171.181 124.47 171.861 124.291 172.587 124.234C172.409 124.816 172.055 125.329 171.573 125.702C171.092 126.075 170.507 126.29 169.898 126.316V126.316Z" fill="#0A0B0C"/>
<path opacity="0.1" d="M171.358 132.054C171.038 132.768 170.448 133.326 169.716 133.605C168.985 133.884 168.173 133.861 167.459 133.542C166.745 133.222 166.187 132.631 165.908 131.9C165.629 131.169 165.652 130.357 165.971 129.643C166.214 129.803 166.432 129.998 166.618 130.222C166.9 130.563 167.085 130.953 167.41 131.275C168.014 131.869 168.989 132.117 169.858 132.136C170.359 132.138 170.86 132.111 171.358 132.054V132.054Z" fill="#0A0B0C"/>
<path d="M163.978 136.411C163.978 136.411 166.311 136.339 167.014 135.838C167.717 135.337 170.594 134.741 170.777 135.543C170.96 136.346 174.281 139.544 171.649 139.557C169.016 139.569 165.529 139.148 164.828 138.715C164.127 138.281 163.978 136.411 163.978 136.411Z" fill="#656380"/>
<path opacity="0.2" d="M171.702 139.279C169.068 139.3 165.583 138.858 164.881 138.437C164.347 138.11 164.134 136.944 164.062 136.405H163.984C163.984 136.405 164.132 138.287 164.827 138.721C165.522 139.155 169.013 139.578 171.647 139.563C172.407 139.563 172.668 139.287 172.656 138.887C172.544 139.123 172.262 139.273 171.702 139.279Z" fill="#0A0B0C"/>
<path d="M43.3193 37.7297C43.3042 37.5764 43.3266 37.4217 43.3846 37.279C43.5551 36.9758 44.0015 37.0579 44.3384 37.1443C45.6945 37.4854 47.1222 37.1759 48.5161 37.2559C49.9101 37.3359 51.4831 38.0329 51.7631 39.4016C52.776 38.684 53.6489 37.7869 54.3384 36.7547C54.7258 36.1756 55.0627 35.5124 55.0101 34.8175C54.9343 33.8152 54.0941 33.0655 53.315 32.4296L50.9988 30.5345C50.6942 30.2539 50.3419 30.03 49.9585 29.8733C49.4237 29.6901 48.8383 29.7764 48.274 29.7764C46.5894 29.7764 44.7848 29.01 43.2814 29.7764C42.6497 30.0986 42.1822 30.6503 41.7274 31.1894L39.6554 33.6425C39.4989 33.7985 39.385 33.9921 39.3248 34.2047C39.2658 34.5037 39.4195 34.7985 39.4722 35.0996C39.5711 35.6471 39.3332 36.2304 39.5164 36.7568C39.8175 37.6307 40.8767 37.7549 41.5252 38.254C41.7674 38.4414 42.1464 39.0731 42.4328 39.0668C42.9466 39.0605 43.3045 38.1318 43.3193 37.7297Z" fill="#3F3D56"/>
<path d="M43.66 43.5879C43.6368 44.2701 43.2388 44.8766 42.8556 45.443C42.3439 46.1969 41.8027 46.9802 40.9941 47.4013C45.0579 49.547 49.7917 50.0462 54.2137 48.7953C54.9233 48.5847 55.7614 48.1467 55.7193 47.4076C54.877 47.1781 54.0052 46.9402 53.2893 46.4327C52.4344 45.8263 51.8701 44.8829 51.5058 43.9059C51.1415 42.9288 50.9562 41.8844 50.7014 40.8673C50.6847 40.763 50.6395 40.6654 50.5708 40.5852C50.4549 40.5022 50.3125 40.4647 50.1708 40.4799L47.366 40.4294C46.2142 40.4294 44.9634 40.402 43.8937 40.8905C42.5629 41.5012 43.6979 42.455 43.66 43.5879Z" fill="#FFC0C6"/>
<path opacity="0.1" d="M43.66 43.5879C43.6368 44.2701 43.2388 44.8766 42.8556 45.443C42.3439 46.1969 41.8027 46.9802 40.9941 47.4013C45.0579 49.547 49.7917 50.0462 54.2137 48.7953C54.9233 48.5847 55.7614 48.1467 55.7193 47.4076C54.877 47.1781 54.0052 46.9402 53.2893 46.4327C52.4344 45.8263 51.8701 44.8829 51.5058 43.9059C51.1415 42.9288 50.9562 41.8844 50.7014 40.8673C50.6847 40.763 50.6395 40.6654 50.5708 40.5852C50.4549 40.5022 50.3125 40.4647 50.1708 40.4799L47.366 40.4294C46.2142 40.4294 44.9634 40.402 43.8937 40.8905C42.5629 41.5012 43.6979 42.455 43.66 43.5879Z" fill="#0A0B0C"/>
<path d="M41.2195 139.658C40.5288 140.711 39.6255 141.601 38.8674 142.606C38.1094 143.61 37.4756 144.781 37.4671 146.038C37.4571 146.118 37.4649 146.199 37.49 146.275C37.5152 146.352 37.557 146.422 37.6124 146.48C37.6987 146.536 37.7983 146.567 37.9009 146.571L40.8278 146.946C41.2728 147.023 41.7263 147.039 42.1755 146.992C42.6591 146.896 43.1251 146.727 43.5568 146.489C43.8867 146.359 44.174 146.141 44.3865 145.857C44.5275 145.625 44.5654 145.341 44.7002 145.105C45.1066 144.391 46.13 144.423 46.9428 144.547C47.1765 142.376 46.5764 140.212 45.9805 138.11C45.9548 137.981 45.8993 137.86 45.8183 137.756C45.7119 137.654 45.5805 137.581 45.4372 137.546C44.736 137.316 43.0409 136.417 42.4513 136.838C42.0197 137.15 41.569 139.1 41.2195 139.658Z" fill="#575A88"/>
<path d="M55.332 143.939C55.8942 143.675 56.4944 143.336 57.1008 143.475C57.9557 143.667 58.3369 144.678 59.0633 145.16C59.5097 145.461 60.0614 145.549 60.5942 145.619C62.2348 145.831 63.8883 145.929 65.5425 145.912C66.0711 145.912 66.7365 145.785 66.8649 145.28C66.9934 144.775 66.507 144.372 66.0753 144.109C65.1383 143.534 64.1616 143.027 63.1526 142.591C62.6566 142.408 62.1877 142.159 61.7586 141.85C61.0364 141.267 60.6847 140.353 60.3625 139.483C60.1035 138.784 59.8656 137.274 59.335 136.746C58.7538 136.175 57.9726 136.554 57.244 136.714C56.1111 136.962 54.7845 137.135 54.056 138.152C52.9905 139.641 52.1714 145.402 55.332 143.939Z" fill="#575A88"/>
<path d="M38.5903 76.7441C37.623 79.1246 37.0909 81.6593 37.0194 84.2278C36.9689 86.1461 37.1753 88.058 37.3837 89.9658C37.7164 93.0542 38.0505 96.1425 38.386 99.2309C38.4932 100.515 38.6952 101.79 38.9904 103.044C39.3546 104.445 39.9463 105.782 40.3696 107.159C41.6793 111.45 41.3066 116.079 40.4412 120.482C40.326 120.965 40.2653 121.459 40.2601 121.956C40.2854 122.699 40.5717 123.406 40.757 124.126C41.8899 128.517 39.2831 133.392 40.9845 137.603C41.0277 137.753 41.1223 137.884 41.2519 137.971C41.3373 138.003 41.4284 138.018 41.5196 138.014C41.6107 138.01 41.7002 137.988 41.7825 137.948C42.2672 137.78 42.7324 137.559 43.1702 137.291C44.0868 138.401 45.2709 139.258 46.6109 139.782C47.609 139.536 47.7964 138.323 48.1228 137.348C48.3716 136.656 48.5742 135.947 48.7292 135.228C48.8735 134.345 48.9475 133.452 48.9503 132.558L49.8136 102.162L49.7505 111.438C49.7203 112.189 49.7676 112.941 49.8915 113.682C50.0179 114.299 50.2495 114.891 50.3822 115.508C50.5696 116.39 50.5464 117.304 50.538 118.207C50.4855 123.565 50.9758 128.914 52.0015 134.173C52.3384 135.895 52.7427 137.635 53.6039 139.161C53.6322 139.231 53.6747 139.295 53.7287 139.348C53.7827 139.4 53.847 139.442 53.9176 139.469C54.1008 139.509 54.2693 139.363 54.4083 139.235C55.2402 138.499 56.2796 138.04 57.3835 137.92C58.4873 137.8 59.6012 138.026 60.5716 138.565C60.3863 137.672 61.237 136.634 60.6285 135.956C60.4537 135.76 60.1926 135.666 59.9968 135.495C59.6093 135.165 59.5167 134.609 59.4619 134.101C59.2229 131.842 59.2229 129.565 59.4619 127.306C59.7588 124.482 60.4263 121.635 59.9336 118.841C59.5756 116.813 58.6112 114.84 58.8028 112.8C58.9292 111.431 59.5651 110.17 60.0031 108.867C61.9151 103.169 60.0031 96.8177 61.3865 90.9681C61.7045 89.6247 62.1846 88.1718 61.6076 86.9189L62.4857 86.6514L60.6622 82.4885C60.2747 81.602 59.8704 80.6902 59.1882 80.008C58.0427 78.8688 56.3308 78.5635 54.7325 78.3234L41.732 76.2956C40.5802 76.1082 39.0262 75.6745 38.5903 76.7441Z" fill="#3C354C"/>
<path d="M46.7743 43.558C49.848 43.558 52.3397 41.0663 52.3397 37.9927C52.3397 34.919 49.848 32.4273 46.7743 32.4273C43.7007 32.4273 41.209 34.919 41.209 37.9927C41.209 41.0663 43.7007 43.558 46.7743 43.558Z" fill="#FFC0C6"/>
<path d="M43.7404 44.6194C43.4704 44.4597 43.1516 44.4035 42.8434 44.4614C42.6918 44.5154 42.5497 44.5928 42.4222 44.691L39.7901 46.5356C39.4128 46.7699 39.0763 47.0643 38.7941 47.4073C38.3435 48.0201 38.2719 48.835 38.3309 49.593C38.4614 51.3028 39.1521 52.9158 39.5269 54.5877C39.9017 56.2597 39.9017 58.1674 38.8236 59.5066C38.6382 59.6987 38.4834 59.9182 38.3646 60.1573C38.3003 60.3615 38.2711 60.5751 38.2782 60.789C38.2392 61.5894 38.2561 62.3915 38.3288 63.1895C38.4467 64.2192 38.7499 65.2194 38.9142 66.2406C39.2026 67.9799 39.1247 69.7635 39.3479 71.5049C39.338 71.6214 39.3524 71.7386 39.3903 71.8492C39.4281 71.9598 39.4886 72.0613 39.5678 72.1473C39.647 72.2333 39.7433 72.3018 39.8504 72.3485C39.9576 72.3953 40.0733 72.4192 40.1902 72.4188C41.4917 72.6092 42.8063 72.6958 44.1215 72.6778C45.6439 72.6778 47.1643 72.5935 48.6846 72.5135L55.6039 72.1492C55.7024 72.1619 55.8026 72.1529 55.8973 72.1228C55.992 72.0927 56.0789 72.0424 56.1521 71.9752C56.2253 71.908 56.283 71.8256 56.321 71.7339C56.3591 71.6421 56.3766 71.5431 56.3725 71.4438C56.9789 68.5338 57.5896 65.571 57.3032 62.6146C57.1179 60.7048 56.562 58.8539 56.0398 57.0093C55.6186 55.5142 55.2143 53.9455 55.5302 52.4231C55.7408 51.4187 56.2524 50.49 56.3851 49.4751C56.4618 48.9469 56.4158 48.4081 56.2508 47.9006C56.0857 47.393 55.806 46.9303 55.4333 46.5482C54.6584 45.8049 53.5277 45.5227 52.7549 44.7773C52.5427 44.5362 52.3117 44.3123 52.0642 44.1077C51.9379 44.007 51.7859 43.9438 51.6255 43.9252C51.4651 43.9065 51.3026 43.9333 51.1567 44.0024C51.0142 44.1034 50.8962 44.2351 50.8113 44.3877C50.1375 45.4111 49.1268 47.0978 47.7054 46.8325C46.1683 46.5566 45.0944 45.2721 43.7404 44.6194Z" fill="#6C63FF"/>
<path d="M57.6461 82.2441C57.1533 82.6126 56.7869 83.2674 57.0144 83.8381C57.6838 83.9575 58.3738 83.8617 58.9853 83.5643C59.379 83.3727 59.8697 83.1032 60.2108 83.3811C60.3213 83.4874 60.4069 83.6169 60.4614 83.7602C60.8304 84.5425 61.2777 85.2853 61.7964 85.9775C62.1712 85.8006 62.565 85.6069 62.7903 85.2594C62.9262 85.0227 63.0143 84.7616 63.0493 84.4908C63.1814 83.8133 63.2791 83.1295 63.342 82.442C63.3862 81.943 63.3946 81.3892 63.0535 81.0186C61.59 79.4393 58.861 81.3365 57.6461 82.2441Z" fill="#FFC0C6"/>
<path d="M42.9716 35.6409C42.9566 35.4884 42.979 35.3344 43.0369 35.1924C43.2075 34.8892 43.6539 34.9819 43.9908 35.0556C45.3468 35.3988 46.7745 35.0893 48.1685 35.1693C49.5624 35.2493 51.1354 35.9463 51.4155 37.315C52.4286 36.597 53.3021 35.7 53.9928 34.6681C54.3803 34.089 54.7172 33.4258 54.6645 32.7309C54.5887 31.7286 53.7486 30.9789 52.9695 30.343L50.6532 28.4479C50.3485 28.1679 49.9962 27.9447 49.613 27.7888C49.0781 27.6056 48.4928 27.6919 47.9284 27.6919C46.2439 27.6919 44.4393 26.9255 42.9358 27.6919C42.3041 28.0162 41.8367 28.5679 41.3797 29.107L39.3098 31.5601C39.1534 31.7158 39.039 31.9084 38.9771 32.1202C38.9182 32.4192 39.0719 32.7161 39.1266 33.0151C39.2235 33.5626 38.9876 34.148 39.1687 34.6744C39.4699 35.5483 40.5311 35.6704 41.1797 36.1716C41.4218 36.359 41.7987 36.9907 42.0872 36.9823C42.5989 36.9738 42.9569 36.0452 42.9716 35.6409Z" fill="#3F3D56"/>
<path d="M56.716 46.9292C57.2986 46.7916 57.9035 46.7767 58.4922 46.8854C59.081 46.9942 59.6406 47.2242 60.1357 47.5609C61.7276 48.6516 62.3824 50.6436 62.9362 52.4924L64.1765 56.6385C64.7197 58.4558 65.2672 60.2898 65.3936 62.1828C65.5094 63.9032 65.2735 65.6256 65.0377 67.3334C64.7113 69.6981 65.4799 72.2902 65.4904 74.6759C65.4904 77.4133 65.4736 80.3171 64.0796 82.6776C64.0218 82.4711 63.915 82.2815 63.7684 82.125C63.6218 81.9685 63.4396 81.8496 63.2373 81.7784C62.8339 81.6407 62.4107 81.5696 61.9845 81.5679L58.2784 81.3299C58.5942 80.7963 58.866 80.2378 59.0912 79.6601C60.5126 76.0088 59.9672 71.928 59.4008 68.0535C59.3561 67.6841 59.2858 67.3182 59.1902 66.9586C58.8166 65.5764 58.7313 64.1321 58.9396 62.7156C59.0244 62.0749 59.0463 61.4275 59.0049 60.7826C58.9985 60.5102 58.9406 60.2416 58.8343 59.9908C58.7253 59.7845 58.5878 59.5945 58.4258 59.4265L57.6762 58.5842C57.6151 56.0363 57.2151 53.4695 56.8192 50.9511C56.627 49.6191 56.5924 48.2692 56.716 46.9292V46.9292Z" fill="#6C63FF"/>
<path d="M49.4345 58.1802C45.8348 55.387 43.4368 51.3253 42.73 46.8242C42.6078 46.0262 42.2899 44.9838 41.4834 45.0112C41.2391 45.0371 41.0041 45.1193 40.7969 45.2513L37.8742 46.8179C37.6653 46.9028 37.4874 47.0498 37.3647 47.239C37.173 47.6138 37.4447 48.0455 37.6784 48.3951C39.2514 50.7745 39.363 53.7962 39.4261 56.6473C39.4451 57.4896 39.4514 58.3761 39.045 59.113C38.7144 59.709 38.1395 60.1469 37.8363 60.7597C37.5521 61.3346 37.5394 62 37.531 62.6422C37.472 67.2242 37.4131 71.8125 37.6531 76.3903C37.6889 77.0809 37.7437 77.8053 38.1122 78.3907C38.4554 78.9318 39.0218 79.2814 39.5693 79.612L44.0018 82.2904C44.8441 82.8021 45.7201 83.3222 46.695 83.4865C47.6699 83.6507 48.7838 83.3728 49.344 82.5579C49.6156 82.162 49.7356 81.6798 49.9967 81.2776C50.2578 80.8754 50.7569 80.549 51.2012 80.728C51.517 80.8543 51.6897 81.1849 51.8329 81.4903C52.115 82.0735 52.4098 82.6716 52.871 83.1285C53.3321 83.5854 53.9996 83.8929 54.6335 83.7602C55.1809 83.6402 55.6084 83.2254 56.0022 82.8295C57.2193 81.6103 58.449 80.3742 59.3439 78.8982C59.4727 78.7267 59.5395 78.5166 59.5334 78.3022C59.4759 78.0937 59.3632 77.9045 59.207 77.7548C58.6469 77.0683 58.4258 76.1692 58.2595 75.2974C56.5939 66.5377 58.9459 57.4327 57.6509 48.6098C57.5035 47.5991 57.1792 46.6705 56.4212 45.9861C55.6631 45.3018 54.7198 44.8659 53.7912 44.4406C53.4859 44.3016 53.1363 44.1584 52.8247 44.2847C52.3088 44.4953 52.3067 45.2049 52.3446 45.7587C52.3884 46.8936 52.332 48.0302 52.1761 49.1552L51.7234 53.3224C51.6801 53.9589 51.5614 54.588 51.3696 55.1965C50.9715 56.331 50.308 57.354 49.4345 58.1802V58.1802Z" fill="#575A88"/>
<path d="M23.6161 25.0722C23.6161 25.0722 22.0094 26.3777 20.1122 22.9538C18.215 19.53 9.05311 11.3009 9.05311 11.3009C9.05311 11.3009 7.8676 10.2165 12.3717 8.40981C16.8758 6.60312 23.0265 -0.000335693 23.0265 -0.000335693C23.0265 -0.000335693 33.2897 9.12364 34.2941 13.6425C35.2985 18.1613 33.1001 18.9278 29.3267 21.3282C25.5533 23.7287 23.6161 25.0722 23.6161 25.0722Z" fill="#3F3D56"/>
<path d="M53.0309 68.7696L27.1309 22.0927L29.3292 21.3283L54.7913 67.8031C54.8553 67.9209 54.8953 68.0503 54.9088 68.1837C54.9223 68.3171 54.909 68.4519 54.8698 68.5801C54.8306 68.7083 54.7662 68.8275 54.6804 68.9305C54.5946 69.0336 54.4891 69.1185 54.3701 69.1803C54.1374 69.2997 53.8672 69.3236 53.6171 69.2469C53.367 69.1702 53.1567 68.999 53.0309 68.7696V68.7696Z" fill="#656380"/>
<path d="M42.3953 56.8535C43.0733 55.4027 42.3784 53.7287 41.9152 52.1957C41.5461 50.9774 41.3262 49.7189 41.2603 48.4476C41.2161 48.0476 41.2607 47.6429 41.3908 47.2621C41.4597 47.0733 41.5811 46.9081 41.7408 46.7861C41.9005 46.6641 42.0918 46.5903 42.2921 46.5735C42.8968 47.4781 43.1381 48.5774 42.968 49.652C43.3604 49.5509 43.7583 49.4729 44.1598 49.4183C44.6804 49.3484 45.209 49.4644 45.6523 49.746C46.0957 50.0276 46.4255 50.4567 46.5835 50.9576C47.251 53.097 47.4784 55.3795 46.5477 57.3799C46.251 57.972 45.9066 58.5388 45.518 59.075L43.4881 62.0398C43.3491 62.2504 43.1786 62.461 42.9343 62.4968C42.6901 62.5326 42.4353 62.3115 42.2563 62.1072C41.6393 61.4102 40.5444 60.3953 40.6644 59.4351C40.7844 58.4749 41.991 57.7063 42.3953 56.8535Z" fill="#FFC0C6"/>
<path d="M37.7034 47.9105C35.6419 47.6768 33.2814 48.2348 32.2033 50.0162C31.6621 50.9154 31.5274 51.9935 31.4326 53.0379C31.2999 54.5014 31.222 55.969 31.1483 57.4346L30.7504 65.1499C30.7019 66.0722 30.6556 66.9966 30.6388 67.9189C30.5908 68.6399 30.6685 69.3638 30.8683 70.0582C31.1231 70.8058 31.6284 71.4375 32.1317 72.0523C32.635 72.6672 33.2646 73.301 34.0037 73.122C34.3061 73.0222 34.5809 72.8527 34.8059 72.6272L36.4905 71.1701C37.636 70.1867 38.7941 69.1886 39.6659 67.9547C40.087 67.3609 40.4323 66.7186 40.8577 66.129C42.1085 64.3939 44.0331 63.0779 44.6922 61.0438C44.0605 61.0101 43.1424 60.8016 42.8518 60.2415C42.6981 59.9446 42.677 59.5908 42.5065 59.3066C42.2475 58.8728 41.6642 58.637 41.5778 58.14C39.9228 59.4729 38.5372 61.0206 37.2148 62.682L37.7518 60.5953C37.7894 60.3993 37.8707 60.2143 37.9897 60.0541C38.1781 59.8891 38.3913 59.7548 38.6214 59.6561C39.2763 59.2602 39.5248 58.4411 39.6575 57.6873C40.2494 54.2987 39.5524 50.8112 37.7034 47.9105Z" fill="#6C63FF"/>
</g>
<defs>
<clipPath id="clip0_3733_84270">
<rect width="179.78" height="152.873" fill="white" transform="translate(0.110352)"/>
</clipPath>
</defs>
</svg>
