<svg width="274" height="200" viewBox="0 0 274 200" fill="none" xmlns="http://www.w3.org/2000/svg">
<g clip-path="url(#clip0_1762_4821)">
<path d="M253.705 200V177.289C253.705 177.289 262.555 193.39 253.705 200Z" fill="#F1F1F1"/>
<path d="M254.252 199.996L237.522 184.638C237.522 184.638 255.368 189.006 254.252 199.996Z" fill="#F1F1F1"/>
<path d="M181.977 140.01C181.94 139.594 181.995 139.175 182.137 138.782C182.279 138.39 182.505 138.033 182.8 137.738C183.095 137.442 183.451 137.215 183.843 137.072C184.236 136.929 184.654 136.874 185.07 136.91L188.086 131.124L192.05 132.099L187.676 140.211C187.568 140.905 187.21 141.536 186.668 141.984C186.127 142.432 185.44 142.666 184.737 142.641C184.035 142.616 183.366 142.335 182.857 141.85C182.349 141.365 182.036 140.71 181.977 140.01H181.977Z" fill="#FFB7B7"/>
<path d="M199.98 196.38L196.636 196.38L195.044 183.48L199.981 183.481L199.98 196.38Z" fill="#FFB7B7"/>
<path d="M200.833 199.622L190.049 199.622V199.485C190.049 198.372 190.491 197.305 191.279 196.517C192.066 195.73 193.133 195.288 194.246 195.288H194.247L200.833 195.288L200.833 199.622Z" fill="#2F2E41"/>
<path d="M226.878 193.882L223.651 194.762L218.722 182.735L223.484 181.437L226.878 193.882Z" fill="#FFB7B7"/>
<path d="M228.554 196.786L218.15 199.623L218.114 199.491C217.821 198.417 217.967 197.271 218.519 196.304C219.072 195.338 219.985 194.63 221.059 194.337L221.059 194.337L227.414 192.604L228.554 196.786Z" fill="#2F2E41"/>
<path d="M193.874 140.658L192.206 165.991L195.79 194.414L201.66 192.622L201.907 167.227L206.603 152.583L220.505 191.695L226.869 189.347L221.617 163.952L218.651 140.102L193.874 140.658Z" fill="#2F2E41"/>
<path d="M210.093 96.1719L200.208 97.6295L196.647 101.151L195.542 113.805L196.228 125.014L193.366 144.779C193.366 144.779 200.565 140.783 206.143 145.786C211.722 150.788 219.529 146.67 219.689 143.342L210.093 96.1719Z" fill="#CBCBCB"/>
<path d="M205.074 112.042L205.074 112.028L209.984 96.0215L210.048 96.0174C210.397 95.9946 218.63 95.5094 220.471 99.5744L220.48 99.594L219.921 116.228L220.691 142.279L205.465 145.576L205.354 145.601L205.074 112.042Z" fill="#2F2E41"/>
<path d="M199.632 110.935L200.533 97.3662C194.126 97.7647 194.223 102.307 194.23 102.505L194.16 122.801L192.877 144.515L197.542 144.165L199.632 110.935Z" fill="#2F2E41"/>
<path d="M185.186 135.626L190.873 122.425L194.843 115.135L196.916 128.286L189.72 139.08L185.186 135.626Z" fill="#2F2E41"/>
<path d="M208.692 130.768C208.779 130.36 208.955 129.976 209.206 129.643C209.458 129.309 209.78 129.036 210.149 128.84C210.517 128.645 210.925 128.533 211.342 128.512C211.759 128.491 212.175 128.562 212.562 128.719L217.15 124.08L220.65 126.181L214.077 132.641C213.77 133.273 213.241 133.77 212.592 134.039C211.942 134.307 211.217 134.328 210.553 134.097C209.889 133.866 209.333 133.399 208.99 132.786C208.647 132.172 208.541 131.454 208.692 130.768Z" fill="#FFB7B7"/>
<path d="M212.551 127.026L221.907 116.762L215.714 107.925L216.351 103.605L220.001 99.0957L220.073 99.1878C220.462 99.6913 229.605 111.57 229.867 116.066C230.13 120.58 216.989 131.996 216.429 132.48L216.351 132.547L212.551 127.026Z" fill="#2F2E41"/>
<path d="M204.389 95.0602C208.062 95.0602 211.039 92.083 211.039 88.4105C211.039 84.7379 208.062 81.7607 204.389 81.7607C200.717 81.7607 197.74 84.7379 197.74 88.4105C197.74 92.083 200.717 95.0602 204.389 95.0602Z" fill="#FFB7B7"/>
<path d="M210.644 83.0945L210.966 82.4457L209.344 81.6398C209.344 81.6398 207.554 78.7281 204.316 79.5464C201.078 80.3646 199.621 80.8543 199.621 80.8543L198.003 81.6684L198.815 82.4764L197.359 82.9661L198.332 83.4497L197.199 84.1006L197.809 87.4373C197.809 87.4373 198.822 84.9065 200.768 85.8736C202.715 86.8407 206.275 85.3737 206.275 85.3737L209.368 91.3602C209.368 91.3602 210.007 89.2616 211.144 89.8212C211.144 89.8212 214.051 85.192 210.644 83.0945Z" fill="#2F2E41"/>
<path d="M135.401 120.742L34.279 148.63L0.97998 27.8881L102.102 0L135.401 120.742Z" fill="white"/>
<path d="M135.401 120.742L34.279 148.63L0.97998 27.8881L102.102 0L135.401 120.742ZM35.5709 146.354L133.125 119.45L100.81 2.27593L3.25593 29.18L35.5709 146.354Z" fill="#F1F1F1"/>
<path d="M80.0958 54.0908L54.7476 61.0815C54.39 61.1797 54.0081 61.132 53.6856 60.949C53.3632 60.7659 53.1265 60.4624 53.0275 60.1051L46.0368 34.7569C45.9386 34.3993 45.9863 34.0174 46.1693 33.6949C46.3524 33.3724 46.6559 33.1357 47.0132 33.0367L72.3614 26.0461C72.719 25.9479 73.1009 25.9956 73.4234 26.1786C73.7459 26.3617 73.9826 26.6652 74.0816 27.0225L81.0723 52.3707C81.1704 52.7283 81.1228 53.1102 80.9397 53.4327C80.7566 53.7552 80.4531 53.9919 80.0958 54.0908ZM47.162 33.5761C46.9476 33.6355 46.7654 33.7775 46.6556 33.971C46.5458 34.1645 46.5172 34.3936 46.5761 34.6082L53.5668 59.9563C53.6262 60.1707 53.7682 60.3529 53.9617 60.4627C54.1551 60.5725 54.3843 60.6011 54.5989 60.5422L79.947 53.5515C80.1614 53.4922 80.3435 53.3501 80.4534 53.1566C80.5632 52.9632 80.5918 52.734 80.5329 52.5194L73.5422 27.1713C73.4828 26.9569 73.3408 26.7748 73.1473 26.6649C72.9538 26.5551 72.7247 26.5265 72.5101 26.5854L47.162 33.5761Z" fill="#E5E5E5"/>
<path d="M73.67 59.2L48.3219 66.1907C48 66.279 47.6563 66.2361 47.3661 66.0714C47.0758 65.9066 46.8628 65.6335 46.7737 65.3118L39.783 39.9637C39.6947 39.6418 39.7376 39.2981 39.9023 39.0079C40.0671 38.7176 40.3402 38.5046 40.6618 38.4155L66.01 31.4249C66.3318 31.3365 66.6755 31.3794 66.9658 31.5442C67.256 31.7089 67.469 31.9821 67.5581 32.3037L74.5488 57.6518C74.6372 57.9737 74.5943 58.3174 74.4295 58.6076C74.2648 58.8979 73.9916 59.1109 73.67 59.2Z" fill="#1890FF"/>
<path d="M103.035 62.6598L32.2979 82.168L33.0517 84.9015L103.789 65.3933L103.035 62.6598Z" fill="#F1F1F1"/>
<path d="M105 69.7867L34.2634 89.2949L35.0173 92.0284L105.754 72.5202L105 69.7867Z" fill="#F1F1F1"/>
<path d="M106.966 76.9146L36.229 96.4229L36.9829 99.1564L107.72 79.6482L106.966 76.9146Z" fill="#F1F1F1"/>
<path d="M110.425 89.4576L39.6885 108.966L40.4423 111.699L111.179 92.1911L110.425 89.4576Z" fill="#F1F1F1"/>
<path d="M112.391 96.5855L41.6538 116.094L42.4077 118.827L113.144 99.3191L112.391 96.5855Z" fill="#F1F1F1"/>
<path d="M114.356 103.712L43.6194 123.221L44.3733 125.954L115.11 106.446L114.356 103.712Z" fill="#F1F1F1"/>
<path d="M167.771 148.227H62.8738V22.9775H167.771V148.227Z" fill="white"/>
<path d="M167.771 148.227H62.8738V22.9775H167.771V148.227ZM64.7243 146.377H165.92V24.8281H64.7243V146.377Z" fill="#E5E5E5"/>
<path d="M148.673 76.8203H88.6985V79.6559H148.673V76.8203Z" fill="#1890FF"/>
<path d="M148.673 84.1934H88.6985V87.0289H148.673V84.1934Z" fill="#1890FF"/>
<path d="M148.673 91.5654H88.6985V94.401H148.673V91.5654Z" fill="#1890FF"/>
<path d="M83.8227 80.5038C84.8448 80.5038 85.6733 79.6753 85.6733 78.6533C85.6733 77.6313 84.8448 76.8027 83.8227 76.8027C82.8007 76.8027 81.9722 77.6313 81.9722 78.6533C81.9722 79.6753 82.8007 80.5038 83.8227 80.5038Z" fill="#1890FF"/>
<path d="M148.673 45.0527H88.6985V47.8883H148.673V45.0527Z" fill="#E5E5E5"/>
<path d="M148.673 52.4248H88.6985V55.2604H148.673V52.4248Z" fill="#E5E5E5"/>
<path d="M148.673 59.7979H88.6985V62.6334H148.673V59.7979Z" fill="#E5E5E5"/>
<path d="M83.8227 48.4277C84.8448 48.4277 85.6733 47.5991 85.6733 46.5771C85.6733 45.5551 84.8448 44.7266 83.8227 44.7266C82.8007 44.7266 81.9722 45.5551 81.9722 46.5771C81.9722 47.5991 82.8007 48.4277 83.8227 48.4277Z" fill="#E5E5E5"/>
<path d="M148.673 108.896H88.6985V111.732H148.673V108.896Z" fill="#E5E5E5"/>
<path d="M148.673 116.27H88.6985V119.105H148.673V116.27Z" fill="#E5E5E5"/>
<path d="M148.673 123.642H88.6985V126.477H148.673V123.642Z" fill="#E5E5E5"/>
<path d="M83.8227 112.272C84.8448 112.272 85.6733 111.444 85.6733 110.422C85.6733 109.4 84.8448 108.571 83.8227 108.571C82.8007 108.571 81.9722 109.4 81.9722 110.422C81.9722 111.444 82.8007 112.272 83.8227 112.272Z" fill="#E5E5E5"/>
<path d="M162.874 159.012C174.715 159.012 184.314 149.413 184.314 137.572C184.314 125.731 174.715 116.132 162.874 116.132C151.032 116.132 141.433 125.731 141.433 137.572C141.433 149.413 151.032 159.012 162.874 159.012Z" fill="#1890FF"/>
<path d="M168.814 136.204V132.102C168.815 131.321 168.661 130.548 168.363 129.827C168.065 129.106 167.627 128.451 167.076 127.899C166.524 127.347 165.869 126.909 165.148 126.61C164.427 126.311 163.654 126.157 162.874 126.157C162.093 126.157 161.321 126.311 160.6 126.61C159.879 126.909 159.224 127.347 158.672 127.899C158.12 128.451 157.683 129.106 157.384 129.827C157.086 130.548 156.933 131.321 156.934 132.102V136.204C156.14 136.24 155.39 136.58 154.84 137.155C154.291 137.729 153.984 138.493 153.984 139.288V148.982H171.764V139.288C171.763 138.493 171.456 137.729 170.907 137.155C170.358 136.58 169.608 136.24 168.814 136.204ZM162.874 128.253C163.894 128.254 164.872 128.66 165.594 129.382C166.315 130.103 166.721 131.081 166.722 132.102V136.197H159.025V132.102C159.026 131.081 159.432 130.103 160.154 129.382C160.875 128.66 161.853 128.254 162.874 128.253Z" fill="white"/>
<path d="M164.472 140.991C164.472 140.716 164.401 140.445 164.265 140.205C164.13 139.965 163.934 139.764 163.698 139.622C163.462 139.48 163.194 139.401 162.918 139.393C162.643 139.386 162.37 139.449 162.126 139.578C161.883 139.707 161.677 139.896 161.528 140.128C161.379 140.36 161.293 140.627 161.278 140.902C161.263 141.177 161.319 141.452 161.441 141.699C161.563 141.946 161.747 142.157 161.975 142.312V145.786H163.772V142.312C163.988 142.166 164.164 141.969 164.286 141.739C164.408 141.508 164.472 141.252 164.472 140.991Z" fill="#1890FF"/>
<path d="M272.706 199.872H153.093C153.01 199.872 152.93 199.839 152.871 199.78C152.812 199.721 152.779 199.641 152.779 199.558C152.779 199.475 152.812 199.395 152.871 199.336C152.93 199.277 153.01 199.244 153.093 199.244H272.706C272.789 199.244 272.869 199.277 272.928 199.336C272.987 199.395 273.02 199.475 273.02 199.558C273.02 199.641 272.987 199.721 272.928 199.78C272.869 199.839 272.789 199.872 272.706 199.872Z" fill="#CBCBCB"/>
</g>
<defs>
<clipPath id="clip0_1762_4821">
<rect width="272.04" height="200" fill="white" transform="translate(0.97998)"/>
</clipPath>
</defs>
</svg>
