<svg width="20" height="20" viewBox="0 0 20 20" fill="none" xmlns="http://www.w3.org/2000/svg">
<circle cx="10" cy="10" r="9.5" fill="white" stroke="black"/>
<path fill-rule="evenodd" clip-rule="evenodd" d="M4.94067 7.46049L7.47027 6V8.92969L4.94067 7.46049ZM9.99998 7.46049L12.5296 6V8.92969L9.99998 7.46049ZM9.99998 7.46049L7.47028 8.92969V6L9.99998 7.46049ZM9.99997 10.3902L7.47028 8.92972L9.99997 7.46051H9.99998L12.5296 8.92972L9.99998 10.3902H9.99997ZM12.5296 6L15.0593 7.46049L12.5296 8.92969V6ZM4.94067 11.4889L7.47027 10.0284V12.9579L4.94067 11.4889ZM9.99998 11.4889L12.5296 10.0284V12.958L9.99998 11.4889ZM9.99998 11.4889L7.47027 12.958V10.0284L9.99998 11.4889ZM9.99997 14.4185L7.47027 12.958L9.99997 11.4889H9.99998L12.5296 12.958L9.99998 14.4185H9.99997ZM12.5296 10.0284L15.0593 11.4889L12.5296 12.958V10.0284Z" fill="#111111"/>
</svg>
