<svg width="13" height="12" viewBox="0 0 13 12" fill="none" xmlns="http://www.w3.org/2000/svg">
<path fill-rule="evenodd" clip-rule="evenodd" d="M0.0859725 2.39376L3.29271 0.399902V4.39952L0.0859725 2.39376ZM3.29276 4.39952L6.4996 2.39378L9.70625 4.39948V4.39952L9.70628 4.3995L9.70632 4.39952V4.39948L12.9131 2.39376L9.70632 0.399945V0.399902L9.70628 0.399924L9.70625 0.399902V0.399945L6.4996 2.39375L3.29276 0.399902V4.39952ZM6.49963 6.39349L6.4996 6.39348L6.49958 6.39349V6.39346L3.29276 4.39964L6.49958 2.39391V2.39388L6.4996 2.39389L6.49963 2.39388V2.39391L9.70632 4.39964L6.49963 6.39346V6.39349ZM3.29272 9.8988L6.49957 7.8932L9.70621 9.89876V9.8988L9.70625 9.89878L9.70628 9.8988V9.89876L12.9131 7.89319L9.70628 5.89937V5.89933L9.70625 5.89935L9.70621 5.89933V5.89937L6.49957 7.89317L3.29272 5.89933V9.8988ZM6.49959 11.8928L6.49957 11.8928L6.49955 11.8928V11.8927L3.29272 9.89892L6.49955 7.89333V7.8933L6.49957 7.89332L6.49959 7.8933V7.89333L9.70628 9.89892L6.49959 11.8927V11.8928ZM0.0859375 7.89323L3.29267 5.89937V9.89884L0.0859375 7.89323Z" fill="#111111"/>
</svg>
