<svg width="22" height="23" viewBox="0 0 22 23" fill="none" xmlns="http://www.w3.org/2000/svg">
<path d="M21.5 11.2543C21.5 17.0533 16.799 21.7543 11 21.7543C5.20101 21.7543 0.5 17.0533 0.5 11.2543C0.5 5.45534 5.20101 0.754333 11 0.754333C16.799 0.754333 21.5 5.45534 21.5 11.2543Z" fill="white" stroke="white"/>
<path d="M18.5 10.3883C19.1667 10.7732 19.1667 11.7355 18.5 12.1204L8 18.1825C7.33333 18.5674 6.5 18.0863 6.5 17.3165L6.5 5.19215C6.5 4.42235 7.33333 3.94123 8 4.32613L18.5 10.3883Z" fill="black"/>
<rect x="6.625" y="4.25433" width="14" height="0.884333" transform="rotate(45 6.625 4.25433)" fill="white"/>
<rect x="16.5234" y="8.87958" width="14" height="0.884333" transform="rotate(135 16.5234 8.87958)" fill="white"/>
</svg>
