<svg width="22" height="22" viewBox="0 0 22 22" fill="none" xmlns="http://www.w3.org/2000/svg">
<g clip-path="url(#clip0_3899_10205)">
<path fill-rule="evenodd" clip-rule="evenodd" d="M20.903 0.108473C20.8928 0.0895672 20.8701 0.0811453 20.8502 0.0887938L13.8807 2.69261C13.8696 2.69674 13.8607 2.70525 13.8561 2.71616L12.2749 6.46304C12.2674 6.48091 12.2726 6.50162 12.2879 6.51357C12.2956 6.51967 12.305 6.52276 12.3145 6.52276C12.3234 6.52276 12.3325 6.51993 12.34 6.51425L20.8908 0.163473C20.908 0.150755 20.9132 0.127294 20.903 0.108473Z" fill="#E2761B"/>
<path fill-rule="evenodd" clip-rule="evenodd" d="M9.60707 6.5829C9.61618 6.5829 9.62537 6.57998 9.63311 6.57414C9.64841 6.56253 9.65408 6.54208 9.64703 6.52412L9.57459 6.34073L9.5641 6.02285C9.5635 6.00626 9.55336 5.99139 9.53815 5.98486C9.52294 5.97833 9.50515 5.98108 9.4926 5.99208L9.45135 6.02869L8.14312 2.71709C8.13866 2.70574 8.12963 2.69689 8.1182 2.6926L1.14008 0.0887755C1.12023 0.081213 1.09762 0.0895489 1.08731 0.108283C1.07709 0.127018 1.08207 0.150393 1.09917 0.163283L9.17884 6.27009L6.18401 8.92264C6.18126 8.92513 6.17877 8.92796 6.1767 8.93106L4.81889 10.985C4.8103 10.9979 4.80935 11.0144 4.8164 11.0281C4.82344 11.0419 4.83737 11.0509 4.85284 11.0516L9.69112 11.2664C9.69172 11.2665 9.69241 11.2665 9.69301 11.2665C9.70426 11.2665 9.71518 11.262 9.72326 11.254C9.73176 11.2456 9.73632 11.2341 9.73598 11.2221L9.58232 6.57456C9.58971 6.57989 9.5983 6.5829 9.60707 6.5829Z" fill="#E4761B"/>
<path fill-rule="evenodd" clip-rule="evenodd" d="M21.819 14.902C21.8111 14.8913 21.7986 14.8847 21.7851 14.8845L17.789 14.8071C17.7743 14.8057 17.7603 14.8143 17.7522 14.8266L15.5395 18.2167L15.1496 14.9567C15.1477 14.9413 15.1378 14.9281 15.1235 14.922C15.1092 14.9163 15.0927 14.9183 15.0805 14.9279L12.5712 16.8873C12.5596 16.8965 12.5534 16.911 12.5549 16.9258C12.5565 16.9405 12.5655 16.9533 12.5789 16.9598L15.4921 18.3778C15.4934 18.3784 15.4947 18.3782 15.496 18.3787C15.4972 18.3791 15.4981 18.3803 15.4995 18.3807L20.3721 19.7212C20.376 19.7222 20.3798 19.7228 20.3836 19.7228C20.4022 19.7228 20.4193 19.7106 20.4247 19.6919L21.8255 14.9396C21.8293 14.9268 21.8269 14.9128 21.819 14.902Z" fill="#E4761B"/>
<path fill-rule="evenodd" clip-rule="evenodd" d="M17.1825 11.0281C17.1894 11.0143 17.1885 10.9977 17.1799 10.9848L15.8135 8.93098C15.8115 8.92798 15.8091 8.92514 15.8064 8.92273L12.4548 5.93211C12.4423 5.92085 12.4243 5.9181 12.4091 5.92472C12.3936 5.93142 12.3836 5.94646 12.3832 5.96322L12.2715 11.2226C12.2712 11.2345 12.2759 11.2459 12.2844 11.2542C12.2925 11.2621 12.3033 11.2664 12.3145 11.2664C12.3151 11.2664 12.3157 11.2664 12.3164 11.2663L17.146 11.0515C17.1615 11.0509 17.1754 11.0419 17.1825 11.0281Z" fill="#E4761B"/>
<path fill-rule="evenodd" clip-rule="evenodd" d="M6.90926 14.9279C6.89697 14.9184 6.88055 14.916 6.86629 14.9222C6.85194 14.9281 6.84197 14.9413 6.84016 14.9567L6.4586 18.2163L4.24614 14.8265C4.23806 14.8142 4.22517 14.8071 4.20936 14.8071L0.221857 14.8845C0.208451 14.8847 0.195904 14.8912 0.188084 14.902C0.180092 14.9128 0.177685 14.9267 0.181381 14.9395L1.57365 19.6919C1.57915 19.7105 1.59626 19.7227 1.61482 19.7227C1.6186 19.7227 1.62247 19.7222 1.62625 19.7212L6.49891 18.3807C6.50028 18.3803 6.50114 18.3792 6.50243 18.3787C6.50372 18.3782 6.50509 18.3783 6.50638 18.3778L9.41107 16.9598C9.42439 16.9533 9.43341 16.9404 9.43496 16.9256C9.43651 16.9109 9.43032 16.8964 9.41863 16.8873L6.90926 14.9279Z" fill="#E4761B"/>
<path fill-rule="evenodd" clip-rule="evenodd" d="M15.5297 18.3006L12.6165 16.8826C12.6023 16.8756 12.5854 16.8772 12.5727 16.8862C12.5598 16.8953 12.553 16.9108 12.555 16.9264L12.7866 18.819L12.7608 19.6182C12.7604 19.6332 12.7677 19.6473 12.7803 19.6555C12.7874 19.6602 12.7957 19.6626 12.8038 19.6626C12.8101 19.6626 12.8164 19.6612 12.8222 19.6585L15.5292 18.378C15.5442 18.371 15.5537 18.356 15.5538 18.3394C15.5539 18.3229 15.5445 18.3078 15.5297 18.3006Z" fill="#D7C1B3"/>
<path fill-rule="evenodd" clip-rule="evenodd" d="M9.41781 16.8861C9.40509 16.8771 9.38824 16.8757 9.37415 16.8826L6.46946 18.3006C6.45459 18.3078 6.44523 18.3229 6.44531 18.3394C6.4454 18.356 6.45494 18.371 6.46989 18.378L9.17692 19.6585C9.18277 19.6612 9.18904 19.6626 9.19531 19.6626C9.20348 19.6626 9.21164 19.6602 9.21869 19.6557C9.23124 19.6476 9.23863 19.6336 9.23828 19.6187L9.22084 18.8252L9.43568 16.9261C9.43749 16.9105 9.43061 16.8951 9.41781 16.8861Z" fill="#D7C1B3"/>
<path fill-rule="evenodd" clip-rule="evenodd" d="M9.23789 13.7071L6.81445 12.9938L8.52461 12.2118L9.23789 13.7071Z" fill="#233447"/>
<path fill-rule="evenodd" clip-rule="evenodd" d="M6.93685 12.9851L9.15757 13.6387L8.50401 12.2684L6.93685 12.9851ZM9.23783 13.7501C9.23379 13.7501 9.22967 13.7495 9.22571 13.7483L6.80228 13.0351C6.78509 13.03 6.7728 13.0149 6.7716 12.9969C6.77031 12.979 6.78028 12.9622 6.79652 12.9547L8.50667 12.1727C8.52807 12.163 8.55325 12.1722 8.56331 12.1933L9.27659 13.6887C9.28389 13.7039 9.28149 13.722 9.27049 13.735C9.26224 13.7447 9.25021 13.7501 9.23783 13.7501Z" fill="#233447"/>
<path fill-rule="evenodd" clip-rule="evenodd" d="M12.7539 13.7071L13.4672 12.2118L15.1859 12.9938L12.7539 13.7071Z" fill="#233447"/>
<path fill-rule="evenodd" clip-rule="evenodd" d="M13.4878 12.2683L12.8341 13.6388L15.063 12.9851L13.4878 12.2683ZM12.7539 13.7501C12.7414 13.7501 12.7295 13.7447 12.7212 13.735C12.7102 13.7221 12.7078 13.7039 12.7151 13.6886L13.4284 12.1933C13.4386 12.1722 13.4638 12.1632 13.485 12.1727L15.2037 12.9547C15.2201 12.9622 15.23 12.979 15.2288 12.9969C15.2275 13.0149 15.2152 13.03 15.198 13.0351L12.766 13.7484C12.7621 13.7495 12.7579 13.7501 12.7539 13.7501Z" fill="#233447"/>
<path fill-rule="evenodd" clip-rule="evenodd" d="M6.89959 14.8071L4.20975 14.8844C4.19411 14.885 4.17993 14.8939 4.17279 14.9077C4.16557 14.9217 4.16652 14.9382 4.1752 14.9513L6.45254 18.363C6.46062 18.3752 6.47411 18.3822 6.48829 18.3822C6.49156 18.3822 6.495 18.3818 6.49835 18.381C6.51579 18.3768 6.52886 18.3621 6.53092 18.3442L6.9435 14.8551C6.94497 14.8427 6.94093 14.8303 6.9325 14.821C6.92408 14.8118 6.91085 14.807 6.89959 14.8071Z" fill="#CD6116"/>
<path fill-rule="evenodd" clip-rule="evenodd" d="M17.8276 14.9077C17.8204 14.8939 17.8063 14.8849 17.7906 14.8844L15.1009 14.8071C15.0888 14.8067 15.0763 14.8119 15.0679 14.821C15.0595 14.8303 15.0554 14.8427 15.057 14.8551L15.4695 18.3442C15.4715 18.3621 15.4845 18.3768 15.502 18.381C15.5054 18.3817 15.5087 18.3822 15.5121 18.3822C15.5262 18.3822 15.5397 18.3752 15.5478 18.363L17.8252 14.9513C17.8338 14.9382 17.8347 14.9216 17.8276 14.9077Z" fill="#CD6116"/>
<path fill-rule="evenodd" clip-rule="evenodd" d="M15.224 13.024L17.1748 11.0387C17.1873 11.0262 17.1906 11.0073 17.1835 10.9912C17.1762 10.975 17.1622 10.963 17.1422 10.9658L12.3125 11.1806C12.3002 11.1811 12.2886 11.187 12.2809 11.1966C12.2732 11.2064 12.27 11.2189 12.2721 11.2311L12.7191 13.7147C12.7224 13.733 12.7372 13.7472 12.7556 13.7496C12.7576 13.75 12.7595 13.7501 12.7614 13.7501C12.7777 13.7501 12.7929 13.7407 12.8001 13.7256L13.4953 12.2683L15.1756 13.0329C15.192 13.0403 15.2114 13.0369 15.224 13.024Z" fill="#CD6116"/>
<path fill-rule="evenodd" clip-rule="evenodd" d="M9.69568 11.1806L4.8574 10.9657C4.83892 10.9634 4.82337 10.975 4.81623 10.9912C4.80901 11.0073 4.81245 11.0262 4.82491 11.0389L6.78429 13.024C6.79701 13.0368 6.81626 13.0404 6.83267 13.033L8.51284 12.2684L9.19948 13.7254C9.20661 13.7406 9.22182 13.75 9.23832 13.75C9.24012 13.75 9.24201 13.75 9.24382 13.7498C9.26238 13.7473 9.27716 13.7332 9.28051 13.7148L9.73607 11.2312C9.7383 11.219 9.73512 11.2065 9.72739 11.1967C9.71966 11.187 9.70814 11.1811 9.69568 11.1806Z" fill="#CD6116"/>
<path fill-rule="evenodd" clip-rule="evenodd" d="M6.84546 12.9636L4.88609 10.9784C4.87105 10.9634 4.84741 10.9615 4.83031 10.9738C4.81312 10.9862 4.80754 11.0094 4.81725 11.0282L6.84537 14.9814C6.85285 14.996 6.8678 15.0047 6.88362 15.0047C6.88714 15.0047 6.89084 15.0043 6.89444 15.0034C6.91387 14.9983 6.92727 14.9804 6.9265 14.9602L6.85784 12.9923C6.85741 12.9816 6.85302 12.9714 6.84546 12.9636Z" fill="#E4751F"/>
<path fill-rule="evenodd" clip-rule="evenodd" d="M17.1694 10.9738C17.1523 10.9614 17.1285 10.9633 17.1136 10.9785L15.1627 12.9637C15.1552 12.9713 15.1509 12.9813 15.1504 12.992L15.0645 14.9599C15.0636 14.98 15.0769 14.9981 15.0965 15.0033C15.1001 15.0042 15.1038 15.0047 15.1075 15.0047C15.1232 15.0047 15.1381 14.996 15.1456 14.9814L17.1823 11.0283C17.1921 11.0094 17.1865 10.9864 17.1694 10.9738Z" fill="#E4751F"/>
<path fill-rule="evenodd" clip-rule="evenodd" d="M9.69436 11.1805C9.67305 11.1791 9.65526 11.195 9.65148 11.2157L9.19601 13.6994C9.19507 13.7046 9.19507 13.7101 9.1961 13.7152L9.76328 16.6457C9.76724 16.6661 9.78503 16.6805 9.80539 16.6805C9.8066 16.6805 9.80771 16.6804 9.80892 16.6803C9.83066 16.6787 9.84768 16.6608 9.84836 16.639L9.97684 12.7724L9.73621 11.217C9.73303 11.1962 9.71533 11.1809 9.69436 11.1805Z" fill="#E4751F"/>
<path fill-rule="evenodd" clip-rule="evenodd" d="M12.3134 11.1805C12.2923 11.1809 12.2746 11.1963 12.2715 11.2171L12.0391 12.7716L12.1421 16.6387C12.1427 16.6607 12.1596 16.6785 12.1815 16.6803C12.1827 16.6804 12.1839 16.6805 12.1851 16.6805C12.2054 16.6805 12.2232 16.6662 12.2272 16.6459L12.803 13.7154C12.8041 13.7102 12.8041 13.7048 12.8031 13.6995L12.3563 11.2158C12.3526 11.1952 12.3354 11.1795 12.3134 11.1805Z" fill="#E4751F"/>
<mask id="mask0_3899_10205" style="mask-type:alpha" maskUnits="userSpaceOnUse" x="6" y="18" width="10" height="3">
<path fill-rule="evenodd" clip-rule="evenodd" d="M6.44531 18.2962H15.5547V20.4876H6.44531V18.2962Z" fill="white"/>
</mask>
<g mask="url(#mask0_3899_10205)">
<path fill-rule="evenodd" clip-rule="evenodd" d="M15.5481 18.3162C15.5364 18.298 15.5131 18.2911 15.4933 18.3003L12.85 19.5507L12.8734 18.8218C12.8738 18.809 12.8684 18.7967 12.8588 18.7882L12.644 18.5991C12.6361 18.5921 12.6261 18.5884 12.6156 18.5884H9.37576C9.36468 18.5884 9.35411 18.5927 9.34611 18.6003L9.14846 18.7894C9.13978 18.7977 9.13496 18.8092 9.13514 18.8213L9.15086 19.551L6.50665 18.3003C6.48697 18.291 6.4636 18.2979 6.45191 18.3162C6.44039 18.3346 6.44426 18.3586 6.46111 18.3724L7.40908 19.1479L9.32549 20.4799C9.33271 20.4849 9.34121 20.4877 9.34998 20.4877H12.6415C12.6502 20.4877 12.6587 20.4849 12.6659 20.48L14.5936 19.1458L15.5389 18.3724C15.5557 18.3586 15.5597 18.3346 15.5481 18.3162Z" fill="#C0AD9E"/>
</g>
<path fill-rule="evenodd" clip-rule="evenodd" d="M12.6407 16.916C12.6391 16.9037 12.6325 16.8927 12.6224 16.8858L12.2098 16.6022C12.2027 16.5972 12.1942 16.5946 12.1855 16.5946H9.80502C9.79634 16.5946 9.78783 16.5972 9.78069 16.6022L9.36819 16.8858C9.35797 16.8928 9.35126 16.904 9.34989 16.9164L9.13505 18.8156C9.13298 18.8335 9.14244 18.8509 9.15859 18.8589C9.16469 18.862 9.17123 18.8634 9.17776 18.8634C9.18859 18.8634 9.19924 18.8592 9.20741 18.8514L9.3926 18.6743H12.599L12.8017 18.8526C12.815 18.8646 12.8344 18.8667 12.8501 18.8585C12.8659 18.8501 12.8749 18.8329 12.8726 18.8152L12.6407 16.916Z" fill="#161616"/>
<path fill-rule="evenodd" clip-rule="evenodd" d="M21.2257 6.89228L21.9562 3.38603L20.8648 0.128998L12.5977 6.26494L15.7773 8.95478L20.2718 10.2696L21.2687 9.10947L20.839 8.80009L21.5265 8.17275L20.9937 7.76025L21.6812 7.23603L21.2257 6.89228Z" fill="#763D16"/>
<path fill-rule="evenodd" clip-rule="evenodd" d="M15.7982 8.91609L20.2574 10.2206L21.2056 9.11693L20.8139 8.83497C20.8034 8.8274 20.7969 8.81546 20.7961 8.80257C20.7953 8.78959 20.8005 8.77704 20.81 8.76836L21.4598 8.1754L20.9674 7.79418C20.9568 7.78601 20.9506 7.77338 20.9507 7.76006C20.9508 7.74674 20.957 7.73419 20.9677 7.72603L21.6101 7.23619L21.1999 6.92655C21.1865 6.91658 21.1803 6.89983 21.1837 6.8835L21.9118 3.38868L20.8429 0.198763L12.6668 6.26707L15.7982 8.91609ZM20.2719 10.3126C20.2679 10.3126 20.2638 10.3121 20.2598 10.3109L15.7652 8.99601C15.7596 8.99438 15.7542 8.99146 15.7496 8.98759L12.5699 6.29775C12.5599 6.28924 12.5543 6.27669 12.5547 6.26355C12.5551 6.2504 12.5615 6.23819 12.5721 6.23046L20.8392 0.0945212C20.8501 0.0862712 20.8645 0.0838649 20.8776 0.08799C20.8908 0.092115 20.9011 0.102256 20.9055 0.115318L21.9969 3.37235C21.9993 3.37957 21.9998 3.3873 21.9982 3.39478L21.2733 6.87439L21.7071 7.20173C21.7178 7.20989 21.7242 7.22244 21.7242 7.23593C21.7242 7.24933 21.718 7.26205 21.7072 7.27022L21.0642 7.76049L21.5528 8.13879C21.5629 8.14652 21.5689 8.15838 21.5695 8.17101C21.57 8.18373 21.5649 8.19594 21.5555 8.20444L20.9071 8.79612L21.2938 9.07456C21.3036 9.08161 21.3099 9.09244 21.3113 9.10438C21.3128 9.11633 21.3092 9.12836 21.3013 9.13747L20.3045 10.2976C20.2962 10.3073 20.2842 10.3126 20.2719 10.3126Z" fill="#763D16"/>
<path fill-rule="evenodd" clip-rule="evenodd" d="M0.0429688 3.38601L0.773437 6.89226L0.309375 7.23601L0.996875 7.76023L0.472656 8.17273L1.16016 8.80008L0.730469 9.10945L1.71875 10.2696L6.21328 8.95476L9.39297 6.26492L1.12578 0.128983L0.0429688 3.38601Z" fill="#763D16"/>
<mask id="mask1_3899_10205" style="mask-type:alpha" maskUnits="userSpaceOnUse" x="0" y="0" width="10" height="11">
<path fill-rule="evenodd" clip-rule="evenodd" d="M0 0.0860138H9.4359V10.3126H0V0.0860138Z" fill="white"/>
</mask>
<g mask="url(#mask1_3899_10205)">
<path fill-rule="evenodd" clip-rule="evenodd" d="M0.793424 9.1171L1.73341 10.2205L6.19253 8.91609L9.32384 6.26707L1.14783 0.198849L0.087447 3.38859L0.815509 6.8835C0.818947 6.89991 0.812502 6.91684 0.79901 6.92681L0.380924 7.23653L1.02296 7.72603C1.03353 7.73411 1.03981 7.74657 1.03989 7.75989C1.03998 7.77321 1.03388 7.78576 1.02348 7.79401L0.539049 8.17522L1.18908 8.76836C1.1987 8.77704 1.20378 8.78959 1.20309 8.80257C1.20231 8.81546 1.19578 8.8274 1.1853 8.83497L0.793424 9.1171ZM1.7188 10.3126C1.70642 10.3126 1.69431 10.3072 1.68606 10.2975L0.697775 9.13729C0.689955 9.12819 0.686345 9.11624 0.687806 9.10429C0.689267 9.09235 0.695627 9.08161 0.705424 9.07456L1.09214 8.79612L0.443744 8.20444C0.434377 8.19602 0.429306 8.18382 0.429736 8.17119C0.430166 8.15855 0.436181 8.14678 0.446064 8.13896L0.926713 7.76075L0.283299 7.27022C0.272556 7.26205 0.266369 7.24925 0.266455 7.23576C0.266541 7.22226 0.272986 7.20955 0.283814 7.20147L0.725791 6.87413L0.000907948 3.39478C-0.000638927 3.38739 -0.000209239 3.37965 0.00219701 3.37244L1.08501 0.115404C1.08939 0.102342 1.0997 0.092115 1.11285 0.08799C1.12592 0.083865 1.14035 0.0862712 1.15144 0.0945212L9.41863 6.23046C9.42911 6.23819 9.43556 6.25048 9.4359 6.26355C9.43633 6.27669 9.43074 6.28924 9.42077 6.29775L6.24109 8.98759C6.23645 8.99146 6.23112 8.99438 6.22536 8.99601L1.73083 10.3109C1.72688 10.3121 1.72275 10.3126 1.7188 10.3126Z" fill="#763D16"/>
</g>
<path fill-rule="evenodd" clip-rule="evenodd" d="M21.8252 14.9142L20.3127 10.2564C20.3084 10.2429 20.2976 10.2324 20.284 10.2283L15.7895 8.91351C15.772 8.90843 15.7535 8.91471 15.7428 8.92932C15.7321 8.94384 15.7317 8.96352 15.7416 8.97856L17.094 11.0114L15.1586 14.7681L15.2359 12.9957C15.2365 12.9819 15.2304 12.9686 15.2195 12.96C15.2087 12.9515 15.1941 12.9487 15.1809 12.9527L12.7489 13.6659C12.7335 13.6703 12.7218 13.6831 12.7188 13.6988L12.2301 16.1859L12.2452 12.7906L12.3569 11.2265V11.2259L12.6402 6.27385L13.9442 2.74775C13.9491 2.7346 13.9472 2.7199 13.9391 2.7083C13.9311 2.69679 13.918 2.68991 13.9039 2.68991H8.10317C8.08916 2.68991 8.07601 2.6967 8.06794 2.70822C8.05986 2.71973 8.05797 2.73443 8.06278 2.74757L9.34969 6.27376L9.65013 11.2263L9.75308 12.7877L9.76073 16.1842L9.27965 13.6989C9.27665 13.6832 9.26505 13.6704 9.24966 13.6659L6.82622 12.9527C6.81299 12.9487 6.79864 12.9515 6.78772 12.9599C6.77681 12.9683 6.77062 12.9815 6.77114 12.9954L6.83319 14.7708L4.9044 11.0114L6.24838 8.97847C6.25826 8.96343 6.25783 8.94376 6.24709 8.92923C6.23644 8.91471 6.21787 8.90835 6.20043 8.91351L1.7059 10.2283C1.69223 10.2324 1.6814 10.243 1.67702 10.2564L0.181709 14.9143C0.177584 14.9273 0.179819 14.9417 0.187983 14.9528C0.195975 14.9638 0.208951 14.9704 0.222701 14.9704H4.2096L6.86773 15.0046L9.36576 16.9551C9.3735 16.9611 9.38287 16.9641 9.39223 16.9641C9.40065 16.9641 9.40916 16.9616 9.41655 16.9567L9.81805 16.6805H12.1718L12.5734 16.9567C12.5807 16.9616 12.5892 16.9641 12.5977 16.9641C12.607 16.9641 12.6164 16.9611 12.6242 16.9551L15.1221 15.0046L17.7882 14.9704H21.7843C21.7982 14.9704 21.8111 14.9638 21.8191 14.9527C21.8272 14.9415 21.8295 14.9272 21.8252 14.9142Z" fill="#F6851B"/>
</g>
<defs>
<clipPath id="clip0_3899_10205">
<rect width="22" height="22" fill="white"/>
</clipPath>
</defs>
</svg>
