<svg width="20" height="20" viewBox="0 0 20 20" fill="none" xmlns="http://www.w3.org/2000/svg">
<path fill-rule="evenodd" clip-rule="evenodd" d="M19.0031 0.0985706C18.9938 0.0813831 18.9731 0.0737269 18.9551 0.08068L12.6192 2.44779C12.6091 2.45154 12.601 2.45927 12.5968 2.4692L11.1593 5.87545C11.1525 5.8917 11.1573 5.91052 11.1712 5.92138C11.1782 5.92693 11.1867 5.92974 11.1953 5.92974C11.2035 5.92974 11.2117 5.92716 11.2185 5.92201L18.992 0.148571C19.0077 0.137008 19.0124 0.11568 19.0031 0.0985706Z" fill="#E2761B"/>
<path fill-rule="evenodd" clip-rule="evenodd" d="M8.73441 5.9844C8.74269 5.9844 8.75105 5.98174 8.75808 5.97643C8.77199 5.96588 8.77714 5.94729 8.77074 5.93096L8.70488 5.76424L8.69535 5.47526C8.6948 5.46018 8.68558 5.44667 8.67175 5.44073C8.65793 5.43479 8.64175 5.43729 8.63035 5.44729L8.59285 5.48057L7.40355 2.47002C7.39949 2.45971 7.39128 2.45167 7.38089 2.44776L1.03714 0.0806495C1.0191 0.0737745 0.998551 0.0813526 0.989176 0.0983839C0.979879 0.115415 0.98441 0.136665 0.999957 0.148384L8.34511 5.70002L5.62253 8.11143C5.62003 8.1137 5.61777 8.11627 5.61589 8.11909L4.38152 9.98627C4.37371 9.99799 4.37285 10.013 4.37925 10.0255C4.38566 10.0381 4.39832 10.0462 4.41238 10.0468L8.81082 10.2421C8.81136 10.2422 8.81199 10.2422 8.81253 10.2422C8.82277 10.2422 8.83269 10.2381 8.84003 10.2309C8.84777 10.2232 8.85191 10.2128 8.8516 10.2018L8.71191 5.97682C8.71863 5.98167 8.72644 5.9844 8.73441 5.9844Z" fill="#E4761B"/>
<path fill-rule="evenodd" clip-rule="evenodd" d="M19.8362 13.5473C19.829 13.5376 19.8176 13.5316 19.8054 13.5314L16.1726 13.4611C16.1592 13.4598 16.1465 13.4676 16.1391 13.4787L14.1276 16.5607L13.7731 13.597C13.7714 13.583 13.7623 13.571 13.7494 13.5655C13.7364 13.5603 13.7213 13.5621 13.7103 13.5709L11.4291 15.3522C11.4185 15.3605 11.4129 15.3737 11.4143 15.3871C11.4157 15.4005 11.4239 15.4122 11.4361 15.418L14.0844 16.7071C14.0856 16.7076 14.0868 16.7075 14.0879 16.708C14.089 16.7083 14.0899 16.7094 14.0912 16.7098L18.5208 17.9284C18.5244 17.9294 18.5278 17.9298 18.5312 17.9298C18.5482 17.9298 18.5637 17.9187 18.5687 17.9018L19.8421 13.5815C19.8455 13.5698 19.8433 13.5572 19.8362 13.5473Z" fill="#E4761B"/>
<path fill-rule="evenodd" clip-rule="evenodd" d="M15.6208 10.0255C15.6271 10.0129 15.6263 9.99783 15.6184 9.98611L14.3763 8.119C14.3745 8.11627 14.3723 8.11369 14.3698 8.1115L11.3229 5.39275C11.3115 5.38252 11.2952 5.38002 11.2813 5.38603C11.2673 5.39213 11.2581 5.4058 11.2578 5.42103L11.1563 10.2023C11.156 10.2131 11.1602 10.2235 11.168 10.231C11.1753 10.2382 11.1852 10.2421 11.1953 10.2421C11.1959 10.2421 11.1964 10.2421 11.197 10.2421L15.5877 10.0467C15.6017 10.0462 15.6144 10.038 15.6208 10.0255Z" fill="#E4761B"/>
<path fill-rule="evenodd" clip-rule="evenodd" d="M6.28185 13.5707C6.27068 13.5621 6.25576 13.5599 6.24279 13.5655C6.22974 13.5709 6.22068 13.583 6.21904 13.597L5.87216 16.5602L3.86084 13.4786C3.85349 13.4673 3.84177 13.4609 3.8274 13.4609L0.202399 13.5312C0.190211 13.5315 0.178805 13.5373 0.171695 13.5472C0.16443 13.557 0.162242 13.5696 0.165602 13.5813L1.4313 17.9016C1.4363 17.9186 1.45185 17.9297 1.46873 17.9297C1.47216 17.9297 1.47568 17.9292 1.47912 17.9283L5.9088 16.7096C5.91005 16.7093 5.91084 16.7083 5.91201 16.7078C5.91318 16.7073 5.91443 16.7075 5.9156 16.707L8.55623 15.418C8.56834 15.412 8.57654 15.4003 8.57795 15.3869C8.57935 15.3735 8.57373 15.3603 8.5631 15.352L6.28185 13.5707Z" fill="#E4761B"/>
<path fill-rule="evenodd" clip-rule="evenodd" d="M14.1186 16.6368L11.4702 15.3477C11.4573 15.3413 11.442 15.3428 11.4305 15.351C11.4187 15.3593 11.4126 15.3734 11.4144 15.3876L11.6249 17.1081L11.6015 17.8346C11.6011 17.8483 11.6077 17.8611 11.6191 17.8686C11.6256 17.8728 11.6331 17.875 11.6405 17.875C11.6462 17.875 11.6519 17.8737 11.6573 17.8712L14.1182 16.7072C14.1318 16.7008 14.1405 16.6872 14.1405 16.6721C14.1406 16.6571 14.1321 16.6434 14.1186 16.6368Z" fill="#D7C1B3"/>
<path fill-rule="evenodd" clip-rule="evenodd" d="M8.56164 15.3509C8.55008 15.3427 8.53477 15.3414 8.52195 15.3477L5.88133 16.6368C5.86781 16.6433 5.8593 16.6571 5.85938 16.6721C5.85945 16.6871 5.86813 16.7007 5.88172 16.7071L8.34266 17.8712C8.34797 17.8737 8.35367 17.875 8.35938 17.875C8.3668 17.875 8.37422 17.8728 8.38063 17.8687C8.39203 17.8613 8.39875 17.8486 8.39844 17.835L8.38258 17.1137L8.57789 15.3872C8.57953 15.373 8.57328 15.359 8.56164 15.3509Z" fill="#D7C1B3"/>
<path fill-rule="evenodd" clip-rule="evenodd" d="M8.39844 12.4609L6.19531 11.8125L7.75 11.1016L8.39844 12.4609Z" fill="#233447"/>
<path fill-rule="evenodd" clip-rule="evenodd" d="M6.30659 11.8046L8.32541 12.3988L7.73127 11.153L6.30659 11.8046ZM8.39838 12.5C8.39471 12.5 8.39096 12.4995 8.38737 12.4984L6.18424 11.85C6.16862 11.8454 6.15745 11.8316 6.15635 11.8153C6.15518 11.7991 6.16424 11.7838 6.17901 11.777L7.7337 11.066C7.75315 11.0572 7.77604 11.0655 7.78518 11.0848L8.43362 12.4442C8.44026 12.458 8.43807 12.4745 8.42807 12.4863C8.42057 12.4952 8.40963 12.5 8.39838 12.5Z" fill="#233447"/>
<path fill-rule="evenodd" clip-rule="evenodd" d="M11.5938 12.4609L12.2422 11.1016L13.8047 11.8125L11.5938 12.4609Z" fill="#233447"/>
<path fill-rule="evenodd" clip-rule="evenodd" d="M12.2609 11.1529L11.6666 12.3988L13.6929 11.8045L12.2609 11.1529ZM11.5938 12.4999C11.5824 12.4999 11.5716 12.4951 11.564 12.4862C11.554 12.4745 11.5519 12.458 11.5585 12.4441L12.207 11.0847C12.2162 11.0655 12.2391 11.0573 12.2584 11.0659L13.8209 11.7769C13.8357 11.7837 13.8448 11.799 13.8437 11.8152C13.8425 11.8316 13.8313 11.8453 13.8156 11.8499L11.6048 12.4984C11.6012 12.4994 11.5974 12.4999 11.5938 12.4999Z" fill="#233447"/>
<path fill-rule="evenodd" clip-rule="evenodd" d="M6.27236 13.4609L3.82704 13.5313C3.81282 13.5317 3.79993 13.5398 3.79345 13.5524C3.78689 13.5651 3.78775 13.5802 3.79564 13.592L5.86595 16.6936C5.87329 16.7047 5.88556 16.711 5.89845 16.711C5.90142 16.711 5.90454 16.7106 5.90759 16.7099C5.92345 16.7061 5.93532 16.6927 5.9372 16.6765L6.31228 13.5046C6.31361 13.4933 6.30993 13.482 6.30228 13.4736C6.29462 13.4652 6.28259 13.4609 6.27236 13.4609Z" fill="#CD6116"/>
<path fill-rule="evenodd" clip-rule="evenodd" d="M16.2065 13.5524C16.2 13.5399 16.1872 13.5317 16.173 13.5313L13.7277 13.461C13.7167 13.4606 13.7054 13.4653 13.6977 13.4736C13.6901 13.482 13.6864 13.4933 13.6878 13.5046L14.0628 16.6765C14.0647 16.6927 14.0765 16.7061 14.0924 16.7099C14.0955 16.7106 14.0985 16.711 14.1015 16.711C14.1144 16.711 14.1266 16.7047 14.134 16.6936L16.2044 13.592C16.2122 13.5802 16.213 13.5651 16.2065 13.5524Z" fill="#CD6116"/>
<path fill-rule="evenodd" clip-rule="evenodd" d="M13.8404 11.84L15.6138 10.0352C15.6251 10.0238 15.6282 10.0066 15.6217 9.99199C15.6151 9.97722 15.6023 9.96636 15.5842 9.96886L11.1936 10.1642C11.1824 10.1646 11.1718 10.17 11.1648 10.1787C11.1578 10.1876 11.1549 10.1989 11.1568 10.2101L11.5632 12.4679C11.5661 12.4846 11.5797 12.4975 11.5964 12.4996C11.5982 12.5 11.5999 12.5 11.6016 12.5C11.6165 12.5 11.6303 12.4915 11.6368 12.4778L12.2688 11.153L13.7964 11.8481C13.8112 11.8548 13.8289 11.8517 13.8404 11.84Z" fill="#CD6116"/>
<path fill-rule="evenodd" clip-rule="evenodd" d="M8.81425 10.1641L4.41582 9.96877C4.39902 9.96667 4.38488 9.97721 4.37839 9.9919C4.37183 10.0066 4.37496 10.0238 4.38628 10.0353L6.16753 11.8399C6.1791 11.8515 6.1966 11.8548 6.21152 11.8481L7.73894 11.153L8.36316 12.4775C8.36964 12.4914 8.38347 12.4999 8.39847 12.4999C8.40011 12.4999 8.40183 12.4999 8.40347 12.4997C8.42035 12.4974 8.43378 12.4846 8.43683 12.4679L8.85097 10.2101C8.853 10.199 8.85011 10.1876 8.84308 10.1787C8.83605 10.1699 8.82558 10.1646 8.81425 10.1641Z" fill="#CD6116"/>
<path fill-rule="evenodd" clip-rule="evenodd" d="M6.22315 11.785L4.4419 9.98027C4.42822 9.96668 4.40674 9.96488 4.39119 9.97613C4.37557 9.98738 4.37049 10.0085 4.37932 10.0256L6.22307 13.6193C6.22986 13.6326 6.24346 13.6406 6.25783 13.6406C6.26104 13.6406 6.2644 13.6402 6.26768 13.6393C6.28533 13.6347 6.29752 13.6185 6.29682 13.6001L6.2344 11.8111C6.234 11.8014 6.23002 11.7921 6.22315 11.785Z" fill="#E4751F"/>
<path fill-rule="evenodd" clip-rule="evenodd" d="M15.6089 9.97614C15.5933 9.96489 15.5717 9.96661 15.5582 9.98044L13.7846 11.7851C13.7778 11.792 13.7739 11.8011 13.7735 11.8108L13.6953 13.5999C13.6946 13.6182 13.7066 13.6346 13.7244 13.6393C13.7277 13.6401 13.7311 13.6406 13.7344 13.6406C13.7487 13.6406 13.7623 13.6327 13.7691 13.6194L15.6207 10.0257C15.6296 10.0085 15.6245 9.98755 15.6089 9.97614Z" fill="#E4751F"/>
<path fill-rule="evenodd" clip-rule="evenodd" d="M8.81306 10.1641C8.79368 10.1628 8.77751 10.1773 8.77407 10.1962L8.36001 12.4541C8.35915 12.4588 8.35915 12.4638 8.36009 12.4684L8.87571 15.1325C8.87931 15.151 8.89548 15.1641 8.91399 15.1641C8.91509 15.1641 8.9161 15.1641 8.9172 15.164C8.93696 15.1625 8.95243 15.1463 8.95306 15.1264L9.06985 11.6113L8.8511 10.1973C8.84821 10.1784 8.83212 10.1645 8.81306 10.1641Z" fill="#E4751F"/>
<path fill-rule="evenodd" clip-rule="evenodd" d="M11.1947 10.1641C11.1755 10.1644 11.1595 10.1785 11.1566 10.1974L10.9453 11.6105L11.039 15.1261C11.0395 15.1461 11.0549 15.1623 11.0748 15.1639C11.0759 15.164 11.077 15.1641 11.078 15.1641C11.0966 15.1641 11.1127 15.1511 11.1163 15.1326L11.6398 12.4686C11.6408 12.4638 11.6408 12.4589 11.6399 12.4541L11.2337 10.1962C11.2303 10.1775 11.2147 10.1632 11.1947 10.1641Z" fill="#E4751F"/>
<mask id="mask0_303_2642" style="mask-type:alpha" maskUnits="userSpaceOnUse" x="5" y="16" width="10" height="3">
<path fill-rule="evenodd" clip-rule="evenodd" d="M5.85938 16.6328H14.1406V18.625H5.85938V16.6328Z" fill="white"/>
</mask>
<g mask="url(#mask0_303_2642)">
<path fill-rule="evenodd" clip-rule="evenodd" d="M14.1346 16.651C14.124 16.6344 14.1028 16.6282 14.0848 16.6366L11.6818 17.7733L11.7031 17.1106C11.7035 17.099 11.6986 17.0878 11.6898 17.0801L11.4945 16.9082C11.4874 16.9019 11.4783 16.8984 11.4687 16.8984H8.52342C8.51334 16.8984 8.50373 16.9023 8.49647 16.9093L8.31678 17.0812C8.30889 17.0887 8.30451 17.0992 8.30467 17.1102L8.31897 17.7736L5.91514 16.6366C5.89725 16.6281 5.876 16.6344 5.86537 16.651C5.8549 16.6677 5.85842 16.6896 5.87373 16.7021L6.73553 17.4071L8.47772 18.618C8.48428 18.6226 8.49201 18.6251 8.49998 18.6251H11.4922C11.5001 18.6251 11.508 18.6226 11.5144 18.6181L13.2669 17.4052L14.1263 16.7021C14.1415 16.6896 14.1451 16.6677 14.1346 16.651Z" fill="#C0AD9E"/>
</g>
<path fill-rule="evenodd" clip-rule="evenodd" d="M11.4919 15.3781C11.4905 15.367 11.4845 15.357 11.4753 15.3506L11.1002 15.0928C11.0937 15.0883 11.086 15.0859 11.0781 15.0859H8.91401C8.90611 15.0859 8.89838 15.0883 8.8919 15.0928L8.5169 15.3506C8.5076 15.357 8.50151 15.3672 8.50026 15.3784L8.30494 17.105C8.30307 17.1213 8.31166 17.1371 8.32635 17.1444C8.3319 17.1472 8.33783 17.1484 8.34377 17.1484C8.35361 17.1484 8.3633 17.1447 8.37072 17.1376L8.53908 16.9766H11.454L11.6382 17.1387C11.6503 17.1495 11.668 17.1515 11.6823 17.144C11.6966 17.1364 11.7048 17.1208 11.7028 17.1047L11.4919 15.3781Z" fill="#161616"/>
<path fill-rule="evenodd" clip-rule="evenodd" d="M19.2968 6.26562L19.9609 3.07812L18.9687 0.117188L11.4531 5.69531L14.3438 8.14062L18.4296 9.33594L19.3359 8.28125L18.9452 8L19.5702 7.42969L19.0859 7.05469L19.7109 6.57812L19.2968 6.26562Z" fill="#763D16"/>
<path fill-rule="evenodd" clip-rule="evenodd" d="M14.3627 8.10547L18.4165 9.29141L19.2785 8.28805L18.9224 8.03172C18.9129 8.02484 18.907 8.01398 18.9063 8.00226C18.9056 7.99047 18.9103 7.97906 18.9189 7.97117L19.5096 7.43211L19.062 7.08555C19.0524 7.07812 19.0467 7.06664 19.0468 7.05453C19.0469 7.04242 19.0525 7.03102 19.0622 7.02359L19.6463 6.57828L19.2733 6.2968C19.2612 6.28773 19.2555 6.2725 19.2586 6.25766L19.9205 3.08055L18.9488 0.180625L11.516 5.69727L14.3627 8.10547ZM18.4297 9.375C18.426 9.375 18.4224 9.37453 18.4187 9.37344L14.3328 8.17812C14.3276 8.17664 14.3227 8.17398 14.3185 8.17047L11.4279 5.72516C11.4188 5.71742 11.4137 5.70602 11.4141 5.69406C11.4145 5.68211 11.4203 5.67102 11.4299 5.66398L18.9454 0.085859C18.9553 0.078359 18.9685 0.0761715 18.9803 0.0799215C18.9924 0.0836715 19.0017 0.0928903 19.0057 0.104765L19.9979 3.0657C20.0001 3.07227 20.0006 3.0793 19.9991 3.08609L19.3401 6.24937L19.7344 6.54695C19.7442 6.55437 19.7499 6.56578 19.7499 6.57805C19.7499 6.59023 19.7443 6.6018 19.7346 6.60922L19.1499 7.05492L19.5942 7.39883C19.6033 7.40586 19.6088 7.41664 19.6093 7.42812C19.6098 7.43969 19.6052 7.45078 19.5966 7.45852L19.0071 7.99641L19.3587 8.24953C19.3676 8.25594 19.3734 8.26578 19.3746 8.27664C19.376 8.2875 19.3727 8.29844 19.3655 8.30672L18.4593 9.36141C18.4518 9.37016 18.4409 9.375 18.4297 9.375Z" fill="#763D16"/>
<path fill-rule="evenodd" clip-rule="evenodd" d="M0.0390625 3.07812L0.703125 6.26562L0.28125 6.57812L0.90625 7.05469L0.429688 7.42969L1.05469 8L0.664062 8.28125L1.5625 9.33594L5.64844 8.14062L8.53906 5.69531L1.02344 0.117188L0.0390625 3.07812Z" fill="#763D16"/>
<mask id="mask1_303_2642" style="mask-type:alpha" maskUnits="userSpaceOnUse" x="0" y="0" width="9" height="10">
<path fill-rule="evenodd" clip-rule="evenodd" d="M0 0.078125H8.57809V9.375H0V0.078125Z" fill="white"/>
</mask>
<g mask="url(#mask1_303_2642)">
<path fill-rule="evenodd" clip-rule="evenodd" d="M0.721294 8.2882L1.57583 9.29133L5.62958 8.10547L8.47622 5.69727L1.04348 0.180703L0.0794973 3.08047L0.741372 6.25766C0.744497 6.27258 0.738638 6.28797 0.726372 6.29703L0.346294 6.57859L0.929966 7.02359C0.939575 7.03094 0.945279 7.04227 0.945357 7.05437C0.945435 7.06648 0.939888 7.07789 0.930435 7.08539L0.490044 7.43195L1.08098 7.97117C1.08973 7.97906 1.09434 7.99047 1.09372 8.00226C1.09301 8.01398 1.08708 8.02484 1.07754 8.03172L0.721294 8.2882ZM1.56254 9.375C1.55129 9.375 1.54028 9.37016 1.53278 9.36125L0.634341 8.30656C0.627232 8.29828 0.62395 8.28742 0.625279 8.27656C0.626607 8.2657 0.632388 8.25594 0.641294 8.24953L0.992857 7.99641L0.403404 7.45852C0.394888 7.45086 0.390279 7.43976 0.390669 7.42828C0.39106 7.4168 0.396529 7.40609 0.405513 7.39898L0.842466 7.05516L0.257544 6.60922C0.247779 6.6018 0.242154 6.59016 0.242232 6.57789C0.24231 6.56562 0.248169 6.55406 0.258013 6.54672L0.65981 6.24914L0.000825408 3.08609C-0.000580842 3.07937 -0.000190217 3.07234 0.00199728 3.06578L0.986372 0.104843C0.990357 0.0929684 0.999732 0.0836715 1.01168 0.0799215C1.02356 0.0761715 1.03668 0.078359 1.04676 0.085859L8.56239 5.66398C8.57192 5.67102 8.57778 5.68219 8.57809 5.69406C8.57848 5.70602 8.5734 5.71742 8.56434 5.72516L5.67372 8.17047C5.6695 8.17398 5.66465 8.17664 5.65942 8.17812L1.57348 9.37344C1.56989 9.37453 1.56614 9.375 1.56254 9.375Z" fill="#763D16"/>
</g>
<path fill-rule="evenodd" clip-rule="evenodd" d="M19.8418 13.5583L18.4668 9.32391C18.4629 9.31164 18.4531 9.30211 18.4407 9.29844L14.3548 8.10313C14.3389 8.09852 14.3221 8.10422 14.3124 8.1175C14.3026 8.1307 14.3022 8.14859 14.3113 8.16227L15.5407 10.0103L13.7812 13.4255L13.8515 11.8142C13.8521 11.8016 13.8465 11.7895 13.8366 11.7818C13.8268 11.7741 13.8136 11.7715 13.8015 11.7751L11.5906 12.4235C11.5766 12.4275 11.566 12.4391 11.5632 12.4534L11.119 14.7144L11.1327 11.6277L11.2343 10.2059V10.2053L11.4918 5.70344L12.6772 2.49789C12.6817 2.48594 12.68 2.47258 12.6726 2.46203C12.6654 2.45156 12.6534 2.44531 12.6406 2.44531H7.36723C7.35449 2.44531 7.34254 2.45148 7.3352 2.46195C7.32785 2.47242 7.32613 2.48578 7.33051 2.49773L8.50043 5.70336L8.77356 10.2057L8.86715 11.6251L8.8741 14.7129L8.43676 12.4535C8.43403 12.4392 8.42348 12.4276 8.40949 12.4235L6.20637 11.7751C6.19434 11.7715 6.18129 11.774 6.17137 11.7816C6.16145 11.7893 6.15582 11.8013 6.15629 11.8139L6.2127 13.428L4.45926 10.0103L5.68106 8.16219C5.69004 8.14852 5.68965 8.13063 5.67988 8.11742C5.6702 8.10422 5.65332 8.09844 5.63746 8.10313L1.55153 9.29844C1.5391 9.30211 1.52926 9.31172 1.52528 9.32398L0.1659 13.5584C0.16215 13.5702 0.164182 13.5833 0.171603 13.5934C0.178869 13.6034 0.190666 13.6094 0.203166 13.6094H3.82762L6.2441 13.6405L8.51504 15.4137C8.52207 15.4191 8.53059 15.4219 8.5391 15.4219C8.54676 15.4219 8.55449 15.4196 8.56121 15.4151L8.92621 15.1641H11.066L11.4311 15.4151C11.4377 15.4196 11.4454 15.4219 11.4532 15.4219C11.4616 15.4219 11.4702 15.4191 11.4772 15.4137L13.7481 13.6405L16.1718 13.6094H19.8047C19.8172 13.6094 19.8289 13.6034 19.8363 13.5933C19.8436 13.5831 19.8457 13.5702 19.8418 13.5583Z" fill="#F6851B"/>
</svg>
