<svg width="20" height="13" viewBox="0 0 20 13" fill="none" xmlns="http://www.w3.org/2000/svg">
<path fill-rule="evenodd" clip-rule="evenodd" d="M15.9056 2.66584C12.644 -0.518171 7.35598 -0.518171 4.09441 2.66584L3.66357 3.08644C3.50049 3.24564 3.50049 3.50375 3.66357 3.66296L5.00636 4.97381C5.0879 5.05341 5.2201 5.05341 5.30164 4.97381L5.88012 4.40908C8.15547 2.18784 11.8445 2.18784 14.1199 4.40908L14.6601 4.93641C14.7416 5.01601 14.8738 5.01601 14.9554 4.93641L16.2981 3.62556C16.4612 3.46636 16.4612 3.20824 16.2981 3.04904L15.9056 2.66584ZM19.8777 6.54349L18.6826 5.37683C18.5195 5.21762 18.2551 5.21762 18.0921 5.37683L14.2675 9.11044C14.2267 9.15024 14.1606 9.15024 14.1198 9.11044L10.2952 5.37675L10.2952 5.37675C10.1321 5.21755 9.86773 5.21755 9.70466 5.37676L5.88022 9.11044C5.83945 9.15024 5.77335 9.15024 5.73258 9.11044L1.90795 5.37676C1.74487 5.21756 1.48047 5.21756 1.31739 5.37676L0.122309 6.54342C-0.0407696 6.70262 -0.0407696 6.96074 0.122309 7.11994L5.51116 12.3807C5.67424 12.5399 5.93865 12.5399 6.10172 12.3807L9.92622 8.64702C9.96699 8.60722 10.0331 8.60722 10.0739 8.64702L13.8984 12.3807C14.0615 12.5399 14.3259 12.5399 14.489 12.3807L19.8777 7.12001C20.0408 6.96081 20.0408 6.70269 19.8777 6.54349Z" fill="#3B99FC"/>
</svg>
