<svg width="240" height="149" viewBox="0 0 240 149" fill="none" xmlns="http://www.w3.org/2000/svg">
<g clip-path="url(#clip0_477_6678)">
<path d="M208.558 116.836C208.504 116.768 208.451 116.7 208.399 116.632C208.346 116.564 208.294 116.496 208.241 116.427C208.189 116.359 208.137 116.29 208.086 116.221C208.034 116.152 207.983 116.083 207.931 116.013C207.846 114.017 207.844 112.037 207.928 110.076C208.009 108.129 208.174 106.205 208.421 104.304C208.666 102.417 208.99 100.56 209.394 98.7319C209.794 96.9177 210.271 95.1377 210.825 93.392C210.888 93.1908 210.952 92.9903 211.018 92.7906C211.083 92.591 211.15 92.3926 211.218 92.1955C211.285 91.9975 211.354 91.8004 211.424 91.6042C211.494 91.408 211.565 91.2125 211.636 91.0177C212.17 89.56 212.757 88.138 213.398 86.7517C214.035 85.375 214.722 84.0364 215.461 82.7359C216.194 81.4445 216.975 80.1929 217.805 78.9812C218.628 77.7784 219.498 76.6176 220.414 75.499L220.558 75.3234L220.703 75.149L220.848 74.9753L220.994 74.8026L221.099 74.6787L221.205 74.5552C221.24 74.5142 221.276 74.4734 221.312 74.4327C221.347 74.392 221.384 74.3518 221.421 74.312L221.508 74.2643L221.594 74.217L221.68 74.1699L221.766 74.1228L221.771 74.1211L221.777 74.1185L221.782 74.1159L221.788 74.1139L221.822 74.095L221.856 74.0758L221.89 74.0567L221.922 74.0375L222.072 73.9571L222.221 73.878L222.37 73.7991L222.518 73.7195L222.405 73.6629L222.122 73.5217L222.124 73.5205C222.148 73.5309 222.172 73.5419 222.196 73.5535C222.22 73.5651 222.244 73.5762 222.268 73.587C222.292 73.5984 222.316 73.6097 222.34 73.621C222.364 73.6323 222.388 73.6438 222.412 73.6557L222.439 73.6674L222.467 73.6793L222.495 73.6913C222.504 73.695 222.513 73.6995 222.522 73.7046C222.53 73.7088 222.538 73.7123 222.546 73.715L222.571 73.7255L222.595 73.7359L222.619 73.7463C223.651 74.2201 224.686 74.701 225.707 75.2053C226.728 75.7097 227.733 76.2353 228.712 76.801C229.687 77.3623 230.633 77.9747 231.544 78.6355C232.453 79.2929 233.313 80.0154 234.118 80.7973C234.967 81.6285 235.727 82.547 236.384 83.5375C237.034 84.5106 237.569 85.5564 237.977 86.6536C238.37 87.6981 238.604 88.7957 238.671 89.9098C238.736 90.9814 238.586 92.0551 238.229 93.0673C238.181 93.1993 238.129 93.3294 238.073 93.4578C238.017 93.5861 237.957 93.7124 237.894 93.8368C237.831 93.9612 237.764 94.0834 237.693 94.2034C237.622 94.3234 237.548 94.4413 237.47 94.5569C237.438 94.6052 237.405 94.653 237.371 94.7003C237.337 94.7476 237.303 94.7945 237.268 94.8411C237.233 94.8876 237.198 94.9339 237.162 94.98C237.127 95.0262 237.091 95.0719 237.054 95.1173C236.379 95.9684 235.52 96.6556 234.542 97.1277C233.559 97.5984 232.491 97.8638 231.402 97.9079C230.258 97.9557 229.115 97.7895 228.031 97.4178C226.869 97.0204 225.79 96.4136 224.845 95.6274C224.519 95.3572 224.21 95.0669 223.919 94.7584C223.632 94.4526 223.363 94.1293 223.115 93.7901C222.87 93.4539 222.646 93.1025 222.444 92.738C222.244 92.3763 222.068 92.0019 221.916 91.6173C221.845 92.812 222.03 94.0082 222.459 95.1253C222.912 96.2997 223.527 97.4044 224.287 98.407C225.089 99.4746 225.98 100.473 226.949 101.391C227.924 102.329 228.961 103.207 229.984 104.016C231.008 104.825 232.067 105.652 233.093 106.515C234.118 107.364 235.094 108.27 236.015 109.23C236.909 110.158 237.7 111.179 238.373 112.278C239.035 113.362 239.513 114.549 239.789 115.789C240.084 117.141 240.069 118.541 239.745 119.886C239.588 120.54 239.364 121.176 239.076 121.785C238.786 122.398 238.439 122.982 238.039 123.529L238.002 123.579L237.964 123.629L237.926 123.679L237.887 123.728C236.911 125.007 235.685 126.073 234.285 126.862C233.58 127.259 232.837 127.584 232.067 127.832C231.279 128.086 230.468 128.261 229.645 128.354C228.08 128.499 226.503 128.408 224.964 128.086C223.38 127.753 221.84 127.237 220.376 126.548C218.861 125.837 217.414 124.992 216.051 124.023C214.675 123.048 213.373 121.973 212.155 120.807C211.831 120.498 211.513 120.183 211.201 119.863C210.889 119.542 210.583 119.216 210.283 118.885C209.983 118.554 209.689 118.218 209.401 117.876C209.114 117.535 208.833 117.188 208.558 116.836Z" fill="#F2F2F2"/>
<path d="M233.718 93.7019C232.751 93.199 231.821 92.6273 230.935 91.9912C229.166 90.7209 227.586 89.2058 226.241 87.4912C225.575 86.6404 224.971 85.742 224.435 84.8032C223.987 84.0101 223.59 83.1895 223.245 82.3464C222.909 81.5239 222.626 80.6804 222.399 79.8212C222.176 78.982 222.011 78.1288 221.903 77.2673C221.797 76.4235 221.751 75.5732 221.764 74.7229C221.765 74.6749 221.767 74.6273 221.768 74.5799C221.768 74.5326 221.77 74.485 221.771 74.437C221.772 74.3891 221.774 74.3417 221.776 74.295L221.783 74.1537C221.743 74.1858 221.702 74.2182 221.662 74.2509L221.541 74.3495L221.42 74.4489L221.3 74.5485L221.223 74.6125L221.146 74.677L221.069 74.7419L220.993 74.8069L221.098 74.6832L221.205 74.5555C221.241 74.5146 221.277 74.4737 221.312 74.433C221.348 74.3923 221.385 74.3521 221.421 74.3123L221.508 74.2646L221.595 74.2173L221.679 74.1703L221.765 74.1233L221.77 74.1215L221.776 74.1189L221.781 74.1164L221.787 74.1144L221.821 74.0954L221.856 74.0763L221.889 74.0572L221.922 74.038L222.071 73.9577L222.22 73.8786L222.369 73.7997L222.518 73.7206L222.402 73.6626L222.118 73.5212L222.12 73.52C222.145 73.5304 222.169 73.5414 222.193 73.553C222.217 73.5646 222.241 73.5758 222.265 73.5865C222.289 73.5979 222.313 73.6092 222.337 73.6205C222.361 73.6318 222.384 73.6433 222.409 73.6552L222.436 73.6669L222.464 73.6788L222.492 73.6908C222.501 73.6945 222.51 73.6989 222.519 73.704L222.516 73.7491L222.513 73.7913L222.51 73.8333L222.508 73.8759C222.404 75.3082 222.478 76.748 222.73 78.1619C222.989 79.6172 223.414 81.038 223.996 82.3962C224.598 83.802 225.351 85.1383 226.24 86.3814C227.16 87.6673 228.213 88.8516 229.383 89.9141C230.56 90.9688 231.844 91.8972 233.215 92.6842C233.891 93.0726 234.588 93.4249 235.302 93.7394C236.01 94.0507 236.734 94.3234 237.472 94.5561C237.439 94.6043 237.406 94.6521 237.372 94.6994C237.338 94.7467 237.304 94.7937 237.269 94.8402C237.235 94.8867 237.199 94.933 237.164 94.9792C237.128 95.0253 237.092 95.0711 237.056 95.1165C236.771 95.0221 236.488 94.9217 236.207 94.8153C235.926 94.7089 235.646 94.5966 235.367 94.4786C235.089 94.3605 234.812 94.2366 234.537 94.1069C234.263 93.9772 233.989 93.8422 233.718 93.7019Z" fill="white"/>
<path d="M214.573 104.407C214.256 103.933 213.958 103.451 213.676 102.959C213.395 102.468 213.133 101.97 212.888 101.465C212.644 100.96 212.418 100.448 212.211 99.9307C212.004 99.4129 211.817 98.8906 211.649 98.3638C211.563 98.0844 211.484 97.804 211.411 97.5226C211.339 97.2411 211.273 96.9593 211.215 96.677C211.156 96.3947 211.103 96.1118 211.058 95.8282C211.012 95.5446 210.974 95.2613 210.942 94.9782C210.926 94.8463 210.912 94.7141 210.899 94.5816C210.887 94.4492 210.875 94.3169 210.866 94.1847C210.856 94.0523 210.847 93.9201 210.841 93.788C210.834 93.6559 210.828 93.524 210.824 93.3923C210.887 93.1911 210.951 92.9907 211.017 92.791C211.082 92.5913 211.149 92.3925 211.216 92.1945C211.284 91.9965 211.352 91.7994 211.422 91.6031C211.492 91.4069 211.563 91.2114 211.636 91.0166C211.62 91.1798 211.606 91.3434 211.595 91.5074C211.584 91.6714 211.575 91.8359 211.568 92.0009C211.562 92.1659 211.558 92.3313 211.556 92.4971C211.554 92.6629 211.554 92.8291 211.557 92.9955C211.556 93.0862 211.557 93.1769 211.559 93.2676C211.561 93.3583 211.563 93.449 211.566 93.5397C211.569 93.6304 211.573 93.7211 211.578 93.8119C211.583 93.9026 211.588 93.9933 211.594 94.0841C211.664 95.102 211.823 96.1117 212.071 97.1014C212.321 98.1032 212.648 99.0842 213.048 100.036C213.456 101.006 213.926 101.948 214.456 102.857C214.994 103.782 215.583 104.677 216.22 105.537C216.905 106.465 217.63 107.369 218.393 108.249C219.157 109.128 219.949 109.984 220.771 110.815C221.593 111.646 222.439 112.451 223.31 113.23C224.18 114.009 225.065 114.761 225.965 115.487C226.886 116.231 227.825 116.948 228.784 117.636C229.742 118.324 230.716 118.982 231.706 119.61C232.695 120.238 233.699 120.835 234.718 121.401C235.737 121.968 236.768 122.502 237.81 123.003C237.858 123.027 237.901 123.059 237.937 123.098C237.973 123.136 238.002 123.18 238.023 123.228C238.043 123.275 238.055 123.326 238.058 123.377C238.062 123.429 238.055 123.481 238.038 123.53C238.033 123.551 238.026 123.572 238.016 123.592C238.007 123.611 237.996 123.629 237.983 123.646C237.97 123.663 237.956 123.679 237.94 123.692C237.924 123.706 237.906 123.718 237.888 123.728C237.868 123.737 237.847 123.743 237.826 123.747C237.805 123.751 237.784 123.752 237.762 123.75C237.74 123.749 237.718 123.745 237.697 123.738C237.676 123.732 237.655 123.723 237.635 123.712C237.506 123.65 237.378 123.588 237.249 123.525C237.12 123.463 236.992 123.4 236.864 123.337C236.736 123.274 236.608 123.21 236.48 123.146C236.352 123.082 236.224 123.016 236.097 122.95C235.035 122.404 233.987 121.824 232.953 121.212C231.919 120.6 230.901 119.956 229.898 119.28C228.896 118.604 227.912 117.898 226.946 117.162C225.98 116.425 225.034 115.66 224.109 114.865C223.215 114.099 222.332 113.308 221.471 112.49C220.61 111.671 219.77 110.827 218.962 109.956C218.153 109.084 217.377 108.186 216.642 107.261C215.906 106.336 215.214 105.385 214.573 104.407Z" fill="white"/>
<path d="M234.581 28.3737L233.82 28.4728L238.921 9.29326C239.297 8.01257 239.358 6.65982 239.099 5.35033C238.875 4.28035 238.32 3.30835 237.513 2.57225C236.668 1.83624 235.632 1.35466 234.525 1.18308C233.177 0.973951 231.801 1.03567 230.477 1.36465L195.81 9.27388C194.6 9.56799 193.442 10.0453 192.376 10.6893C191.216 11.3802 190.138 12.1994 189.16 13.1316C188.155 14.0822 187.253 15.1363 186.468 16.2766C185.702 17.3802 185.078 18.576 184.609 19.8359L148.337 119.783C147.734 121.426 147.342 123.14 147.171 124.882C147.013 126.429 147.088 127.991 147.394 129.516C147.649 130.841 148.183 132.096 148.959 133.198C149.671 134.201 150.674 134.959 151.832 135.369L188.46 148.002C190.087 148.557 191.834 148.661 193.515 148.303C195.313 147.911 197.003 147.131 198.469 146.018C200.115 144.779 201.531 143.259 202.651 141.528C203.892 139.626 204.819 137.537 205.396 135.34L229.953 43.0096L230.724 42.9477L234.581 28.3737Z" fill="#2F2E41"/>
<path d="M231.931 27.312L231.17 27.411L236.271 8.23149C236.647 6.9508 236.708 5.59806 236.45 4.28856C236.225 3.21859 235.67 2.24658 234.863 1.51048C234.018 0.774474 232.982 0.292896 231.876 0.121309C230.528 -0.0878162 229.152 -0.0260941 227.828 0.302884L193.161 8.21212C191.951 8.50622 190.792 8.98353 189.726 9.62757C188.566 10.3184 187.488 11.1377 186.511 12.0698C185.506 13.0204 184.603 14.0745 183.819 15.2148C183.053 16.3184 182.428 17.5143 181.96 18.7741L145.688 118.721C145.085 120.364 144.693 122.078 144.522 123.821C144.363 125.368 144.438 126.93 144.744 128.454C144.999 129.779 145.533 131.034 146.309 132.136C147.022 133.139 148.025 133.897 149.182 134.307L185.81 146.94C187.438 147.495 189.184 147.599 190.866 147.241C192.663 146.849 194.353 146.069 195.819 144.956C197.466 143.717 198.881 142.197 200.001 140.466C201.242 138.564 202.169 136.475 202.747 134.278L227.303 41.9478L228.074 41.8859L231.931 27.312Z" fill="#3F3D56"/>
<path d="M227.521 2.80552L222.425 3.92392C222.481 4.36561 222.437 4.81419 222.297 5.23664C222.138 5.73076 221.908 6.19889 221.613 6.62608C220.951 7.59589 220.066 8.39308 219.034 8.95127C218.91 9.01711 218.787 9.0779 218.664 9.13365C218.541 9.18939 218.419 9.24001 218.296 9.28549C218.174 9.33098 218.052 9.37115 217.932 9.40601C217.811 9.44088 217.692 9.47026 217.574 9.49415L197.65 13.5358C197.28 13.6219 196.895 13.6175 196.528 13.5231C196.232 13.4435 195.97 13.2673 195.786 13.0224C195.599 12.7595 195.494 12.4475 195.483 12.1252C195.468 11.714 195.533 11.3038 195.674 10.9176C195.709 10.8133 195.75 10.7084 195.795 10.6027C195.84 10.4971 195.889 10.3914 195.943 10.2858C195.996 10.1796 196.054 10.0739 196.116 9.9688C196.179 9.86367 196.245 9.75864 196.315 9.65369L192.542 10.4817C191.634 10.6951 190.763 11.0479 189.962 11.5276C189.087 12.0442 188.273 12.6587 187.536 13.3593C186.777 14.0751 186.095 14.87 185.504 15.7304C184.927 16.5619 184.458 17.4635 184.109 18.4135L147.905 119.229C147.454 120.468 147.165 121.76 147.044 123.072C146.933 124.231 146.999 125.4 147.24 126.539C147.44 127.524 147.85 128.453 148.442 129.265C148.984 130.001 149.74 130.551 150.606 130.84L187.504 142.849C188.721 143.24 190.021 143.299 191.268 143.018C192.596 142.714 193.844 142.127 194.927 141.298C196.139 140.379 197.182 139.256 198.01 137.98C198.926 136.578 199.613 135.039 200.047 133.42L233.759 8.78934C234.042 7.83797 234.095 6.83274 233.912 5.85703C233.754 5.05744 233.35 4.32734 232.758 3.76862C232.137 3.21003 231.37 2.83982 230.547 2.70119C229.541 2.53206 228.512 2.56754 227.521 2.80552Z" fill="white"/>
<path d="M207.733 50.553H134.334V25.635H207.733V50.553Z" fill="white"/>
<path d="M186.275 59.3474H114.339V94.2814H186.275V59.3474Z" fill="white"/>
<path d="M126.025 76.1227C128.899 76.1227 131.228 73.7888 131.228 70.9099C131.228 68.0309 128.899 65.697 126.025 65.697C123.151 65.697 120.822 68.0309 120.822 70.9099C120.822 73.7888 123.151 76.1227 126.025 76.1227Z" fill="#6C63FF"/>
<path d="M138.042 67.4346C137.812 67.4346 137.592 67.5261 137.429 67.689C137.266 67.852 137.175 68.073 137.175 68.3034C137.175 68.5338 137.266 68.7548 137.429 68.9177C137.592 69.0807 137.812 69.1722 138.042 69.1722H178.926C179.156 69.1716 179.376 69.0798 179.538 68.917C179.7 68.7541 179.791 68.5334 179.791 68.3034C179.791 68.0733 179.7 67.8527 179.538 67.6898C179.376 67.5269 179.156 67.4351 178.926 67.4346H138.042Z" fill="#E6E6E6"/>
<path d="M138.043 72.6475C137.929 72.6471 137.816 72.6692 137.71 72.7126C137.605 72.7559 137.509 72.8197 137.428 72.9002C137.347 72.9808 137.283 73.0764 137.239 73.1818C137.195 73.2872 137.173 73.4002 137.172 73.5144C137.172 73.6286 137.194 73.7417 137.238 73.8473C137.281 73.9529 137.345 74.0488 137.425 74.1297C137.506 74.2106 137.602 74.2747 137.707 74.3186C137.812 74.3624 137.925 74.385 138.039 74.3851H155.635C155.749 74.3851 155.862 74.3626 155.967 74.3189C156.072 74.2753 156.168 74.2113 156.248 74.1306C156.329 74.0499 156.393 73.9542 156.436 73.8487C156.48 73.7433 156.502 73.6304 156.502 73.5163C156.502 73.4022 156.48 73.2892 156.436 73.1838C156.393 73.0784 156.329 72.9826 156.248 72.9019C156.168 72.8213 156.072 72.7573 155.967 72.7136C155.862 72.6699 155.749 72.6475 155.635 72.6475H138.043Z" fill="#E6E6E6"/>
<path d="M122.034 80.9814C121.374 80.9814 120.837 81.3712 120.837 81.8503C120.837 82.3293 121.374 82.7191 122.034 82.7191H178.441C179.101 82.7191 179.638 82.3293 179.638 81.8503C179.638 81.3713 179.101 80.9814 178.441 80.9814H122.034Z" fill="#E6E6E6"/>
<path d="M122.034 86.1941C121.374 86.1941 120.837 86.5839 120.837 87.0629C120.837 87.5419 121.374 87.9317 122.034 87.9317H165.457C166.117 87.9317 166.653 87.5419 166.653 87.0629C166.653 86.5839 166.117 86.1941 165.457 86.1941H122.034Z" fill="#E6E6E6"/>
<path d="M187.006 95.0142H113.607V58.6145H187.006V95.0142ZM115.07 93.5485H185.543V60.0803H115.07V93.5485Z" fill="#E6E6E6"/>
<path d="M146.752 43.143C149.626 43.143 151.956 40.8091 151.956 37.9301C151.956 35.0512 149.626 32.7173 146.752 32.7173C143.878 32.7173 141.549 35.0512 141.549 37.9301C141.549 40.8091 143.878 43.143 146.752 43.143Z" fill="#6C63FF"/>
<path d="M158.77 34.4551C158.54 34.4551 158.319 34.5466 158.156 34.7095C157.994 34.8725 157.902 35.0935 157.902 35.3239C157.902 35.5543 157.994 35.7753 158.156 35.9382C158.319 36.1012 158.54 36.1927 158.77 36.1927H199.653C199.883 36.1921 200.103 36.1003 200.265 35.9375C200.427 35.7746 200.519 35.5539 200.519 35.3239C200.519 35.0938 200.427 34.8732 200.265 34.7103C200.103 34.5474 199.883 34.4556 199.653 34.4551H158.77Z" fill="#E6E6E6"/>
<path d="M158.77 39.668C158.656 39.6676 158.543 39.6897 158.437 39.7331C158.332 39.7765 158.236 39.8402 158.155 39.9208C158.075 40.0013 158.01 40.097 157.966 40.2024C157.923 40.3077 157.9 40.4208 157.9 40.5349C157.899 40.6491 157.922 40.7623 157.965 40.8678C158.009 40.9734 158.072 41.0694 158.153 41.1502C158.233 41.2311 158.329 41.2953 158.434 41.3391C158.539 41.3829 158.652 41.4055 158.766 41.4056H190.936C191.166 41.4056 191.387 41.3141 191.55 41.1511C191.712 40.9882 191.804 40.7672 191.804 40.5368C191.804 40.3064 191.712 40.0854 191.55 39.9224C191.387 39.7595 191.166 39.668 190.936 39.668H158.77Z" fill="#E6E6E6"/>
<path d="M207.733 50.553H134.334V25.635H207.733V50.553ZM135.797 49.0872H206.27V27.1008H135.797V49.0872Z" fill="#E6E6E6"/>
<path d="M63.5123 145.471H67.2122L68.9725 131.173L63.5115 131.174L63.5123 145.471Z" fill="#FFB6B6"/>
<path d="M74.3484 148.913L62.7198 148.913L62.7196 144.412L70.4034 144.412C71.4496 144.412 72.453 144.828 73.1928 145.569C73.9327 146.31 74.3483 147.315 74.3484 148.363L74.3484 148.913Z" fill="#2F2E41"/>
<path d="M26.5142 140.667L29.7565 142.453L38.175 130.774L33.3897 128.138L26.5142 140.667Z" fill="#FFB6B6"/>
<path d="M34.3542 148.913L24.1641 143.301L26.3286 139.356L33.062 143.065C33.9788 143.57 34.6578 144.419 34.9497 145.426C35.2415 146.432 35.1223 147.513 34.6183 148.432L34.3542 148.913Z" fill="#2F2E41"/>
<path d="M63.3395 137.535C63.0098 137.535 62.6914 137.415 62.4438 137.197C62.1963 136.978 62.0363 136.677 61.9939 136.35L57.3666 100.628C57.3462 100.47 57.2764 100.322 57.1673 100.206C57.0582 100.091 56.9153 100.012 56.7591 99.9824C56.6028 99.9527 56.4412 99.9733 56.2973 100.041C56.1534 100.109 56.0345 100.221 55.9577 100.36L36.673 135.412C36.5139 135.698 36.2575 135.917 35.9505 136.03C35.6436 136.143 35.3064 136.142 35.0002 136.027L30.7967 134.422C30.6277 134.358 30.4732 134.26 30.3423 134.135C30.2115 134.01 30.1069 133.859 30.0347 133.693C29.9626 133.527 29.9243 133.348 29.9222 133.167C29.9201 132.986 29.9541 132.806 30.0223 132.638L43.3813 99.7612C43.4151 99.6777 43.4381 99.5902 43.4495 99.5008C45.2589 85.4708 49.8626 78.3361 51.2305 76.4836C51.3304 76.3474 51.3961 76.1892 51.4222 76.0222C51.4482 75.8553 51.4338 75.6845 51.3801 75.5243L51.1921 74.9592C51.117 74.7349 51.1016 74.4948 51.1474 74.2627C51.1933 74.0306 51.2987 73.8145 51.4535 73.6358C56.3823 68.0116 64.973 71.0806 65.0592 71.1122L65.1022 71.1281L65.1292 71.165C74.7619 84.3996 71.2004 127.385 70.3886 135.868C70.3583 136.187 70.2164 136.484 69.9881 136.708C69.7598 136.932 69.4597 137.068 69.1409 137.092L63.4449 137.532C63.4095 137.534 63.3744 137.535 63.3395 137.535Z" fill="#2F2E41"/>
<path d="M60.7277 38.2766C65.2754 38.2766 68.962 34.5833 68.962 30.0273C68.962 25.4714 65.2754 21.7781 60.7277 21.7781C56.18 21.7781 52.4934 25.4714 52.4934 30.0273C52.4934 34.5833 56.18 38.2766 60.7277 38.2766Z" fill="#FFB8B8"/>
<path d="M47.9976 82.5192L72.2275 84.7286C70.1151 77.3698 68.1796 70.0369 69.7572 62.7305C71.7605 56.2077 71.9468 52.5942 66.662 49.5222L63.0938 41.5479L56.636 41.3126L53.4871 40.448C50.9431 44.5458 49.9024 49.403 50.5438 54.1858C51.9126 64.5862 51.543 74.2372 47.9976 82.5192Z" fill="#6C63FF"/>
<path d="M51.6752 45.7078L49.2379 34.5013C48.7294 31.8486 48.857 29.1128 49.6102 26.5191C49.6922 26.2533 49.7911 25.993 49.9062 25.7398C50.5808 24.2669 51.6415 23.0048 52.9754 22.0879C54.3093 21.171 55.8663 20.6336 57.4809 20.533C63.0198 20.1497 63.833 20.7346 64.0332 21.0232C67.1632 20.8966 69.5901 22.108 70.6975 24.3498C70.806 24.5723 70.8644 24.8159 70.8687 25.0635C70.873 25.3111 70.8231 25.5566 70.7224 25.7828C70.6218 26.009 70.4728 26.2103 70.2861 26.3725C70.0994 26.5348 69.8794 26.6541 69.6417 26.722C68.0949 27.1688 65.9206 27.6651 64.2901 27.5191C61.0216 31.4466 62.3578 38.6426 65.6738 42.93L65.8041 43.0985L62.5186 43.7731L58.7007 38.4466C58.6251 38.3412 58.5158 38.2649 58.3908 38.2306C58.2659 38.1963 58.133 38.206 58.0144 38.2581C57.8958 38.3102 57.7986 38.4015 57.739 38.5167C57.6795 38.632 57.6613 38.7642 57.6874 38.8913L58.8466 44.5327L51.6752 45.7078Z" fill="#2F2E41"/>
<path d="M229.761 149H0V148.421H229.866L229.761 149Z" fill="#CACACA"/>
<path d="M98.7411 75.8837L38.8124 118.34L24.4514 97.9948L84.3801 55.5388L98.7411 75.8837Z" fill="white"/>
<path d="M44.6809 105.107C47.0273 103.445 47.5843 100.192 45.9251 97.8411C44.2658 95.4905 41.0186 94.9325 38.6723 96.5947C36.3259 98.257 35.7689 101.51 37.4282 103.861C39.0874 106.211 42.3346 106.769 44.6809 105.107Z" fill="#6C63FF"/>
<path d="M49.4854 91.0621C49.2976 91.1951 49.1703 91.3975 49.1314 91.6246C49.0925 91.8517 49.1453 92.085 49.2781 92.2731C49.4109 92.4612 49.6128 92.5888 49.8395 92.6278C50.0662 92.6667 50.2991 92.6139 50.4869 92.4808L83.8676 68.8325C84.0547 68.6992 84.1815 68.497 84.22 68.2702C84.2586 68.0435 84.2057 67.8106 84.0732 67.6228C83.9406 67.435 83.739 67.3075 83.5128 67.2683C83.2865 67.2291 83.054 67.2815 82.8661 67.4138L49.4854 91.0621Z" fill="#E6E6E6"/>
<path d="M52.4898 95.3181C52.302 95.4509 52.1745 95.6529 52.1353 95.8798C52.0961 96.1067 52.1483 96.3399 52.2807 96.5282C52.413 96.7165 52.6145 96.8444 52.8409 96.884C53.0674 96.9235 53.3002 96.8713 53.4883 96.739L53.4913 96.7369L79.7545 78.1309C79.9423 77.9979 80.0696 77.7955 80.1085 77.5684C80.1474 77.3413 80.0946 77.1081 79.9618 76.9199C79.8961 76.8268 79.8127 76.7475 79.7163 76.6866C79.62 76.6258 79.5126 76.5845 79.4004 76.5652C79.1737 76.5263 78.9408 76.5791 78.753 76.7122L52.4898 95.3181Z" fill="#E6E6E6"/>
<path d="M98.7411 75.8837L38.8124 118.34L24.4514 97.9948L84.3801 55.5388L98.7411 75.8837ZM39.1622 116.297L96.7017 75.5333L84.0303 57.5819L26.4908 98.3453L39.1622 116.297Z" fill="#E6E6E6"/>
<path d="M235.582 68.3459C235.794 68.3377 236.006 68.3738 236.204 68.4521C236.392 68.5274 236.562 68.6408 236.704 68.7852C236.847 68.9305 236.958 69.1035 237.031 69.2936C237.108 69.4951 237.143 69.7103 237.135 69.9259C237.126 70.1471 237.075 70.3646 236.983 70.5662C236.894 70.764 236.77 70.9438 236.616 71.0971C236.464 71.2497 236.286 71.3731 236.089 71.4613C235.89 71.551 235.675 71.6003 235.456 71.6063C235.243 71.6127 235.032 71.5747 234.834 71.4945C234.648 71.418 234.478 71.3037 234.338 71.1587C234.196 71.013 234.086 70.8399 234.014 70.6501C233.938 70.4493 233.904 70.2352 233.914 70.0207C233.922 69.8006 233.974 69.5842 234.064 69.3836C234.153 69.1878 234.276 69.0095 234.428 68.8574C234.579 68.7052 234.756 68.5817 234.952 68.4929C235.15 68.4029 235.364 68.353 235.582 68.3459Z" fill="#F2F2F2"/>
<path d="M67.0951 89.0418L63.198 67.6991L63.4725 54.5003L54.6892 54.2253L56.3361 69.074L62.0152 89.6643C61.5438 90.2383 61.255 90.9406 61.1859 91.6807C61.1169 92.4207 61.2708 93.1645 61.6278 93.8161C61.9849 94.4676 62.5286 94.9971 63.1889 95.336C63.8492 95.675 64.5957 95.8079 65.3322 95.7177C66.0686 95.6274 66.7612 95.3182 67.3204 94.8298C67.8797 94.3414 68.2801 93.6963 68.4698 92.9777C68.6596 92.2592 68.63 91.5001 68.385 90.7986C68.1399 90.097 67.6906 89.4851 67.0951 89.0418H67.0951Z" fill="#FFB8B8"/>
<path d="M54.1404 55.6C57.3226 54.3857 60.8393 54.3857 64.0216 55.6L63.4726 44.601C63.4726 44.0232 63.359 43.4511 63.1383 42.9174C62.9176 42.3836 62.5941 41.8986 62.1863 41.49C61.7785 41.0815 61.2944 40.7574 60.7616 40.5363C60.2288 40.3152 59.6577 40.2014 59.081 40.2014C58.5043 40.2014 57.9332 40.3152 57.4004 40.5363C56.8676 40.7574 56.3834 41.0815 55.9756 41.49C55.5678 41.8986 55.2443 42.3836 55.0236 42.9174C54.8029 43.4511 54.6893 44.0232 54.6893 44.601L54.1404 55.6Z" fill="#6C63FF"/>
</g>
<defs>
<clipPath id="clip0_477_6678">
<rect width="240" height="149" fill="white"/>
</clipPath>
</defs>
</svg>
