<svg width="43" height="40" viewBox="0 0 43 40" fill="none" xmlns="http://www.w3.org/2000/svg">
<path fill-rule="evenodd" clip-rule="evenodd" d="M3.6689 19.9643C3.6689 10.9431 11.0607 3.62988 20.1789 3.62988C26.649 3.62988 32.2499 7.31206 34.9574 12.6739L39.5005 14.1883C36.9966 5.97862 29.2935 0 20.1789 0C9.03442 0 0 8.93834 0 19.9643C0 30.9904 9.03442 39.9287 20.1789 39.9287C29.3679 39.9287 37.1223 33.852 39.5608 25.5388L35.0651 27.0374C32.4005 32.5168 26.7361 36.2988 20.1789 36.2988C11.0607 36.2988 3.6689 28.9856 3.6689 19.9643ZM36.5925 21.7402L40.3511 20.4874C40.3556 20.3136 40.3579 20.1392 40.3579 19.9643C40.3579 19.7279 40.3537 19.4924 40.3455 19.258L36.5708 17.9997C36.6488 18.6438 36.689 19.2994 36.689 19.9643C36.689 20.5644 36.6563 21.1569 36.5925 21.7402Z" fill="#020E19"/>
<path d="M42.1919 19.8736L21.7744 26.6796L12.6572 19.8736L21.7744 13.0676L42.1919 19.8736Z" fill="#1890FF"/>
</svg>
