<svg width="174" height="22" viewBox="0 0 174 22" fill="none" xmlns="http://www.w3.org/2000/svg">
<g clip-path="url(#clip0_3164_4483)">
<path d="M47.8112 0.297729C41.833 0.297729 36.9746 5.07995 36.9746 10.9644C36.9746 16.8488 41.833 21.6311 47.8112 21.6311C51.5498 21.6311 54.9814 19.7703 56.9802 16.6533L53.9279 14.757C52.5914 16.837 50.3097 18.0755 47.8172 18.0755C44.4579 18.0755 41.6283 15.8059 40.8216 12.7422H58.6839V10.9644C58.6779 5.08588 53.8075 0.297729 47.8112 0.297729ZM40.8156 9.18662C41.6223 6.12292 44.4519 3.85329 47.8112 3.85329C51.1826 3.85329 54.0302 6.12292 54.8369 9.18662H40.8156Z" fill="#FFFFFF"/>
<path d="M93.6501 0.297729C87.6719 0.297729 82.8135 5.07995 82.8135 10.9644C82.8135 16.8488 87.6719 21.6311 93.6501 21.6311C97.3887 21.6311 100.814 19.7703 102.819 16.6533L99.7668 14.757C98.4302 16.837 96.1485 18.0755 93.6561 18.0755C90.2968 18.0755 87.4672 15.8059 86.6605 12.7422H104.523V10.9644C104.517 5.08588 99.6403 0.297729 93.6501 0.297729ZM86.6545 9.18662C87.4612 6.12292 90.2907 3.85329 93.6501 3.85329C97.0215 3.85329 99.8691 6.12292 100.676 9.18662H86.6545Z" fill="#FFFFFF"/>
<path d="M123.552 1.93326C121.855 0.878448 119.862 0.297707 117.779 0.297707C111.801 0.297707 106.942 5.07993 106.942 10.9644C106.942 16.8488 111.801 21.631 117.779 21.631C119.868 21.631 121.855 21.0503 123.552 19.9955V21.6725H127.279V0.256226H123.552V1.93326ZM117.773 18.0755C113.788 18.0755 110.549 14.8873 110.549 10.9644C110.549 7.04141 113.788 3.85326 117.773 3.85326C120.067 3.85326 122.186 4.90808 123.546 6.69178V15.231C122.186 17.0266 120.067 18.0755 117.773 18.0755Z" fill="#FFFFFF"/>
<path d="M140.476 3.85329C142.969 3.85329 145.257 5.09181 146.587 7.17181L149.639 5.27551C147.641 2.15847 144.215 0.297729 140.47 0.297729C134.492 0.297729 129.634 5.07995 129.634 10.9644V12.7422H147.466C146.659 15.8059 143.83 18.0755 140.47 18.0755C137.978 18.0755 135.69 16.837 134.36 14.757L131.307 16.6533C133.306 19.7703 136.732 21.6311 140.476 21.6311C146.455 21.6311 151.313 16.8488 151.313 10.9644V9.18662H133.481C134.288 6.12292 137.117 3.85329 140.476 3.85329Z" fill="#FFFFFF"/>
<path d="M25.1083 0.297707C22.1945 0.297707 19.4733 1.42363 17.4685 3.39697C15.4637 1.42363 12.7426 0.297707 9.82872 0.297707C7.71558 0.297707 5.70479 0.8903 3.99501 1.96882V0.256226H0.382812V4.44586V6.22363V21.6725H3.99501V6.76882C5.35561 4.93178 7.49885 3.85326 9.82872 3.85326C12.1586 3.85326 14.3018 4.93771 15.6624 6.76882V21.6725H19.2746V6.76882C20.6352 4.93178 22.7785 3.85326 25.1083 3.85326C27.4382 3.85326 29.5814 4.93178 30.942 6.76882V21.6725H34.5542V5.70808L34.2773 5.27549C32.2785 2.15845 28.853 0.297707 25.1083 0.297707Z" fill="#FFFFFF"/>
<path d="M79.544 15.6873L78.0449 14.757C76.7084 16.837 74.4267 18.0755 71.9343 18.0755C67.9488 18.0755 64.7099 14.8873 64.7099 10.9644V8.00141H80.9949V4.44586H64.7099V0.256226H61.0977V10.9644C61.0977 16.8488 65.9561 21.631 71.9343 21.631C75.6729 21.631 79.1045 19.7703 81.1032 16.6533L79.5741 15.7051L79.544 15.6873Z" fill="#FFFFFF"/>
<path d="M172.209 15.7051L172.179 15.6873L170.685 14.757C169.349 16.837 167.067 18.0755 164.575 18.0755C160.589 18.0755 157.35 14.8873 157.35 10.9644V8.00141H173.635V4.44586H157.35V0.256226H153.738V10.9644C153.738 16.8488 158.597 21.631 164.575 21.631C168.313 21.631 171.745 19.7703 173.744 16.6533L172.209 15.7051Z" fill="#FFFFFF"/>
</g>
<defs>
<clipPath id="clip0_3164_4483">
<rect width="173.355" height="21.4163" fill="white" transform="translate(0.382812 0.256226)"/>
</clipPath>
</defs>
</svg>
