<svg width="41" height="41" viewBox="0 0 41 41" fill="none" xmlns="http://www.w3.org/2000/svg">
<mask id="path-1-inside-1_5153_180555" fill="white">
<path d="M2 9C2 5.68629 4.68629 3 8 3H33C36.3137 3 39 5.68629 39 9V32C39 35.3137 36.3137 38 33 38H8C4.68629 38 2 35.3137 2 32V9Z"/>
</mask>
<path d="M8 5H33V1H8V5ZM37 9V32H41V9H37ZM33 36H8V40H33V36ZM4 32V9H0V32H4ZM8 36C5.79086 36 4 34.2091 4 32H0C0 36.4183 3.58172 40 8 40V36ZM37 32C37 34.2091 35.2091 36 33 36V40C37.4183 40 41 36.4183 41 32H37ZM33 5C35.2091 5 37 6.79086 37 9H41C41 4.58172 37.4183 1 33 1V5ZM8 1C3.58172 1 0 4.58172 0 9H4C4 6.79086 5.79086 5 8 5V1Z" fill="#1890FF" mask="url(#path-1-inside-1_5153_180555)"/>
<path d="M36.0004 26H28.5M36.0004 14.5C32.8762 14.5 31.6242 14.5 28.5 14.5" stroke="#1890FF" stroke-width="2" stroke-linecap="square" stroke-linejoin="round"/>
<path d="M28 27C26.2761 27 24.6228 26.2888 23.4038 25.023C22.1848 23.7571 21.5 22.0402 21.5 20.25C21.5 18.4598 22.1848 16.7429 23.4038 15.477C24.6228 14.2112 26.2761 13.5 28 13.5V15.5014C26.7872 15.5014 25.6241 16.0017 24.7666 16.8922C23.909 17.7828 23.4273 18.9906 23.4273 20.25C23.4273 21.5094 23.909 22.7172 24.7666 23.6078C25.6241 24.4983 26.7872 24.9986 28 24.9986L28 27Z" fill="#1890FF"/>
<path d="M33.2998 20.25C33.2998 22.3211 31.6209 24 29.5498 24C27.4787 24 25.7998 22.3211 25.7998 20.25C25.7998 18.1789 27.4787 16.5 29.5498 16.5C31.6209 16.5 33.2998 18.1789 33.2998 20.25ZM27.674 20.25C27.674 21.286 28.5138 22.1258 29.5498 22.1258C30.5858 22.1258 31.4256 21.286 31.4256 20.25C31.4256 19.214 30.5858 18.3742 29.5498 18.3742C28.5138 18.3742 27.674 19.214 27.674 20.25Z" fill="#1890FF"/>
</svg>
