<svg width="41" height="41" viewBox="0 0 41 41" fill="none" xmlns="http://www.w3.org/2000/svg">
<path d="M20 29.59C25 32.09 31 31.8301 35.5 29.3301" stroke="#1890FF" stroke-width="1.5"/>
<path d="M19.75 35C19.75 38 35.25 38 35.25 35" stroke="#1890FF" stroke-width="1.5"/>
<path d="M29.25 9C29.25 10.188 28.1752 11.5015 25.8781 12.5617C23.6447 13.5925 20.5066 14.25 17 14.25C13.4934 14.25 10.3553 13.5925 8.12191 12.5617C5.8248 11.5015 4.75 10.188 4.75 9C4.75 7.81202 5.8248 6.49853 8.12191 5.43833C10.3553 4.40753 13.4934 3.75 17 3.75C20.5066 3.75 23.6447 4.40753 25.8781 5.43833C28.1752 6.49853 29.25 7.81202 29.25 9Z" stroke="#1890FF" stroke-width="1.5"/>
<path d="M35.25 22C35.25 22.6434 34.6676 23.455 33.1911 24.1498C31.7734 24.817 29.7621 25.25 27.5 25.25C25.2379 25.25 23.2266 24.817 21.8089 24.1498C20.3324 23.455 19.75 22.6434 19.75 22C19.75 21.3566 20.3324 20.545 21.8089 19.8502C23.2266 19.183 25.2379 18.75 27.5 18.75C29.7621 18.75 31.7734 19.183 33.1911 19.8502C34.6676 20.545 35.25 21.3566 35.25 22Z" stroke="#1890FF" stroke-width="1.5"/>
<path d="M4.74999 9L4.75 29" stroke="#1890FF" stroke-width="1.5"/>
<path d="M29.25 9L29.25 15.7214" stroke="#1890FF" stroke-width="1.5"/>
<line x1="19.75" y1="22" x2="19.75" y2="35" stroke="#1890FF" stroke-width="1.5"/>
<line x1="35.25" y1="22" x2="35.25" y2="35" stroke="#1890FF" stroke-width="1.5"/>
<path d="M4.5 19.5C8.11152 22.847 11.5 23.85 17 23.85" stroke="#1890FF" stroke-width="1.5"/>
<path d="M4.75 29C4.75 31.0601 11.72 33.5 17 33.5" stroke="#1890FF" stroke-width="1.5"/>
</svg>
